<svg xmlns="http://www.w3.org/2000/svg" width="24" height="24" viewBox="0 0 24 24"><path d="M19 4h.02c.023 0 .046.002.07.004L19 4a1.008 1.008 0 01.617.213c.063.05.12.107.17.17l-.08-.09a1.008 1.008 0 01.286.59l.003.03.003.055L20 5v6a1 1 0 01-1.993.117L18 11V7.414L7.414 18H11a1 1 0 01.993.883L12 19a1 1 0 01-.883.993L11 20H4.968l-.054-.004L5 20a1.008 1.008 0 01-.617-.213 1.008 1.008 0 01-.17-.17l.08.09a1.008 1.008 0 01-.286-.59l-.003-.028A1.006 1.006 0 014 19.02V13a1 1 0 011.993-.117L6 13v3.584L16.584 6H13a1 1 0 01-.993-.883L12 5a1 1 0 01.883-.993L13 4h6z"/></svg>