<svg xmlns="http://www.w3.org/2000/svg" width="24" height="24" viewBox="0 0 24 24"><path d="M10 13h.02c.023 0 .046.002.07.004L10 13a1.008 1.008 0 01.617.213c.063.05.12.107.17.17l-.08-.09a1.008 1.008 0 01.286.59l.003.03.003.055L11 14v6a1 1 0 01-1.993.117L9 20v-3.586l-4.293 4.293a1 1 0 01-1.497-1.32l.083-.094L7.584 15H4a1 1 0 01-.993-.883L3 14a1 1 0 01.883-.993L4 13h6zm4-10a1 1 0 01.993.883L15 4v3.584l4.293-4.291a1 1 0 011.497 1.32l-.083.094L16.414 9H20a1 1 0 01.993.883L21 10a1 1 0 01-.883.993L20 11h-6.032l-.054-.004L14 11a1.008 1.008 0 01-.617-.213 1.008 1.008 0 01-.17-.17l.08.09a1.008 1.008 0 01-.286-.59l-.003-.028a1.006 1.006 0 01-.004-.07V4a1 1 0 011-1z"/></svg>