<svg xmlns="http://www.w3.org/2000/svg" width="24" height="24" viewBox="0 0 24 24"><path d="M16 2a1 1 0 01.993.883L17 3v1h2a2 2 0 011.995 1.85L21 6v12a2 2 0 01-2 2H5a2 2 0 01-2-2V6a2 2 0 012-2h2V3a1 1 0 011.993-.117L9 3v1h6V3a1 1 0 011-1zm3 4H5v12h14V6zM8.5 13a.5.5 0 01.5.5v1a.5.5 0 01-.5.5h-1a.5.5 0 01-.5-.5v-1a.5.5 0 01.5-.5h1zm4 0a.5.5 0 01.5.5v1a.5.5 0 01-.5.5h-1a.5.5 0 01-.5-.5v-1a.5.5 0 01.5-.5h1zm-4-4a.5.5 0 01.5.5v1a.5.5 0 01-.5.5h-1a.5.5 0 01-.5-.5v-1a.5.5 0 01.5-.5h1zm4 0a.5.5 0 01.5.5v1a.5.5 0 01-.5.5h-1a.5.5 0 01-.5-.5v-1a.5.5 0 01.5-.5h1zm4 0a.5.5 0 01.5.5v1a.5.5 0 01-.5.5h-1a.5.5 0 01-.5-.5v-1a.5.5 0 01.5-.5h1z"/></svg>