<svg xmlns="http://www.w3.org/2000/svg" width="24" height="24" viewBox="0 0 24 24"><path d="M9 4a1 1 0 01.117 1.993L9 6H7a1 1 0 00-.993.883L6 7v2.172a3 3 0 01-.743 1.976l-.136.145-.707.707.707.707a3 3 0 01.872 1.923l.007.198V17a1 1 0 00.883.993L7 18h2a1 1 0 01.117 1.993L9 20H7a3 3 0 01-2.995-2.824L4 17v-2.172a1 1 0 00-.206-.608l-.087-.099-1.414-1.414a1 1 0 01-.083-1.32l.083-.094 1.414-1.414a1 1 0 00.284-.576L4 9.172V7a3 3 0 012.824-2.995L7 4h2zm8 0a3 3 0 012.995 2.824L20 7v2.172a1 1 0 00.206.608l.087.099 1.414 1.414a1 1 0 01.083 1.32l-.083.094-1.414 1.414a1 1 0 00-.284.576l-.009.131V17a3 3 0 01-2.824 2.995L17 20h-2a1 1 0 01-.117-1.993L15 18h2a1 1 0 00.993-.883L18 17v-2.172a3 3 0 01.743-1.976l.136-.145.706-.707-.706-.707a3 3 0 01-.872-1.923L18 9.172V7a1 1 0 00-.883-.993L17 6h-2a1 1 0 01-.117-1.993L15 4h2z"/></svg>