<svg xmlns="http://www.w3.org/2000/svg" width="24" height="24" viewBox="0 0 24 24"><path d="M12 2c5.523 0 10 4.477 10 10s-4.477 10-10 10S2 17.523 2 12 6.477 2 12 2zm1.001 2.062L13 6a1 1 0 01-1.993.117L11 6V4.062A8.004 8.004 0 004.062 11H6a1 1 0 01.117 1.993L6 13l-1.938.001A8.004 8.004 0 0011 19.938V18a1 1 0 011.993-.117L13 18l.001 1.938a8.004 8.004 0 006.937-6.937L18 13a1 1 0 01-.117-1.993L18 11h1.938a8.004 8.004 0 00-6.937-6.938zM12 9a3 3 0 110 6 3 3 0 010-6zm0 2a1 1 0 100 2 1 1 0 000-2z"/></svg>