<svg xmlns="http://www.w3.org/2000/svg" width="24" height="24" viewBox="0 0 24 24"><path d="M19 15a1 1 0 01.993.883L20 16v3a2 2 0 01-1.85 1.995L18 21H6a2 2 0 01-1.995-1.85L4 19v-3a1 1 0 011.993-.117L6 16v3h12v-3a1 1 0 011-1zM12 3a1 1 0 01.993.883L13 4l-.001 8.585 3.294-3.292a1 1 0 011.32-.083l.094.083a1 1 0 01.083 1.32l-.083.094-5 5a1.006 1.006 0 01-.09.08l.09-.08a1.008 1.008 0 01-.675.292L12 16h-.033l-.052-.004L12 16a1.008 1.008 0 01-.613-.21 1.037 1.037 0 01-.094-.083l-5-5a1 1 0 011.32-1.497l.094.083L11 12.585V4a1 1 0 011-1z"/></svg>