<svg xmlns="http://www.w3.org/2000/svg" width="24" height="24" viewBox="0 0 24 24"><path d="M12 2a1 1 0 01.993.883L13 3v1.535A3.982 3.982 0 0115 4h2a1 1 0 011 1v1a4 4 0 01-4 4h-1v3a4.975 4.975 0 012.783-.995L16 12h3a1 1 0 011 1v1a5 5 0 01-5 5h-2v2a1 1 0 01-1.993.117L11 21v-6H9a5 5 0 01-4.995-4.783L4 10V9a1 1 0 011-1h3c1.126 0 2.165.372 3.001 1L11 3a1 1 0 011-1zm6 12h-2a3 3 0 00-3 3h2a3 3 0 002.995-2.824L18 14zM8 10H6l.005.176A3 3 0 009 13h2l-.005-.176a3 3 0 00-2.819-2.819L8 10zm8-4h-1a2 2 0 00-2 2h1a2 2 0 001.995-1.85L16 6z"/></svg>