<svg xmlns="http://www.w3.org/2000/svg" width="24" height="24" viewBox="0 0 24 24"><path d="M8 10a1 1 0 01.117 1.993L8 12H5v6h14v-6h-3a1 1 0 01-.117-1.993L16 10h3a2 2 0 011.995 1.85L21 12v6a2 2 0 01-1.85 1.995L19 20H5a2 2 0 01-1.995-1.85L3 18v-6a2 2 0 011.85-1.995L5 10h3zm4-8h.02c.023 0 .046.002.07.004L12 2a1.008 1.008 0 01.625.22l.082.073 4 4a1 1 0 01-1.32 1.497l-.094-.083L13 5.415V15a1 1 0 01-1.993.117L11 15V5.415L8.707 7.707a1 1 0 01-1.32.083l-.094-.083a1 1 0 01-.083-1.32l.083-.094 4-4 .082-.073.008-.007-.09.08A1.008 1.008 0 0111.982 2H12z"/></svg>