<svg xmlns="http://www.w3.org/2000/svg" width="24" height="24" viewBox="0 0 24 24"><path d="M12 2c5.523 0 10 4.477 10 10s-4.477 10-10 10l-.28-.004C6.327 21.848 2 17.43 2 12 2 6.477 6.477 2 12 2zm2.556 14H9.444c.567 2.407 1.59 4 2.556 4l.098-.005c.936-.104 1.91-1.67 2.458-3.994zM7.39 16l-2.318.001a8.036 8.036 0 003.367 3.164c-.448-.898-.804-1.973-1.05-3.164zm11.54.001h-2.318c-.245 1.191-.6 2.266-1.05 3.165A8.035 8.035 0 0018.929 16zm-11.836-6H4.252A8.015 8.015 0 004 12c0 .69.088 1.361.252 2h2.84A21.315 21.315 0 017 12c0-.683.032-1.352.093-2zm7.8-.001H9.106a18.728 18.728 0 000 4.001h5.788a18.727 18.727 0 000-4.001zm4.854 0h-2.84a21.719 21.719 0 01-.001 4h2.84a8.015 8.015 0 000-4zM8.44 4.835l-.136.07A8.037 8.037 0 005.07 8h2.32c.245-1.192.6-2.266 1.05-3.166zM12 4l-.098.005c-.936.104-1.91 1.67-2.459 3.995h5.114C13.99 5.593 12.966 4 12 4zm3.562.835l.007.015c.445.896.798 1.965 1.042 3.15h2.319a8.036 8.036 0 00-3.368-3.165z"/></svg>