<svg xmlns="http://www.w3.org/2000/svg" width="24" height="24" viewBox="0 0 24 24"><path d="M18.364 5.636a9 9 0 01-12.519 12.93l-.209-.202-.07-.077L5 17.588V19a1 1 0 01-.883.993L4 20a1 1 0 01-.993-.883L3 19v-4a1 1 0 01.883-.993L4 14h4a1 1 0 01.117 1.993L8 16l-1.714-.001.79.975.163.158a7 7 0 009.522 0l.189-.182a7 7 0 00-9.9-9.9 1 1 0 01-1.414-1.414 9 9 0 0112.728 0zM12 7a1 1 0 01.993.883L13 8v3.585l1.707 1.708a1 1 0 01.083 1.32l-.083.094a1 1 0 01-1.32.083l-.094-.083-2-2a1 1 0 01-.284-.576L11 12V8a1 1 0 011-1z"/></svg>