<svg xmlns="http://www.w3.org/2000/svg" width="24" height="24" viewBox="0 0 24 24"><path d="M12.502 3.135l.112.076 9 7a1 1 0 01-1.124 1.65l-.104-.072-.386-.3V19.5a1.5 1.5 0 01-1.356 1.493L18.5 21h-4a1.5 1.5 0 01-1.493-1.356L13 19.5V15h-2v4.5a1.5 1.5 0 01-1.356 1.493L9.5 21h-4a1.5 1.5 0 01-1.493-1.356L4 19.5v-8.012l-.386.301a1 1 0 01-1.32-.08l-.083-.095a1 1 0 01.08-1.32l.095-.083 9-7a1 1 0 011.116-.076zM12 5.266L5.996 9.935 6 10v9h3v-5a1 1 0 01.883-.993L10 13h4a1 1 0 01.993.883L15 14v5h3v-9l.003-.065L12 5.266z"/></svg>