<svg xmlns="http://www.w3.org/2000/svg" width="24" height="24" viewBox="0 0 24 24"><path d="M12 2a7.98 7.98 0 015.942 2.643l1.35-1.35a1 1 0 011.498 1.32l-.083.094-1.605 1.607A7.966 7.966 0 0120 10c0 4.024-2.497 7.948-7.382 11.786a1 1 0 01-1.236 0c-1.583-1.244-2.916-2.497-3.994-3.76l-1.68 1.681a1 1 0 01-1.498-1.32l.083-.094 1.867-1.87C4.726 14.31 4 12.17 4 10a8 8 0 018-8zm5.593 5.823l-8.787 8.784c.844 1.006 1.88 2.02 3.11 3.04l.084.068.43-.358c3.631-3.102 5.46-6.135 5.565-9.088L18 10c0-.768-.144-1.502-.407-2.177zM12 4a6 6 0 00-6 6c0 1.636.53 3.296 1.604 4.98l8.92-8.92A5.986 5.986 0 0012 4z"/></svg>