<svg xmlns="http://www.w3.org/2000/svg" width="24" height="24" viewBox="0 0 24 24"><path d="M16 3a1.01 1.01 0 01.397.082l-.1-.037a.992.992 0 01.081.029l.02.008.014.007a.87.87 0 01.086.044l.016.01 5 3A1 1 0 0122 7v13a1 1 0 01-1.371.928l-4.7-1.88-7.686 1.922A1 1 0 018 21h-.018a1 1 0 01-.036-.001L8 21a1.01 1.01 0 01-.397-.082l.1.037a.992.992 0 01-.081-.029l-.02-.008-.014-.007a.997.997 0 01-.086-.044l-.016-.01-5-3A1 1 0 012 17V4a1 1 0 011.371-.928L8.07 4.95l7.687-1.921A1.001 1.001 0 0116 3zm-1 2.279L9 6.78v11.937l6-1.499V5.279zm2 .486v11.557l3 1.201V7.566l-3-1.801zM4 5.477v10.957l3 1.8V6.677l-3-1.2z"/></svg>