<svg xmlns="http://www.w3.org/2000/svg" width="24" height="24" viewBox="0 0 24 24"><path d="M12 3h.02c.023 0 .046.002.07.004L12 3a1.008 1.008 0 01.625.22l.082.073 4 4a1 1 0 01-1.32 1.497l-.094-.083L13 6.415v7.17a2 2 0 01-.467 1.285l-.119.13-5.707 5.707a1 1 0 01-1.497-1.32l.083-.094L11 13.586V6.415L8.707 8.707a1 1 0 01-1.32.083l-.094-.083a1 1 0 01-.083-1.32l.083-.094 4-4 .082-.073.008-.007-.09.08A1.008 1.008 0 0111.982 3H12zm3.613 13.21l.094.083 3 3a1 1 0 01-1.32 1.497l-.094-.083-3-3a1 1 0 011.32-1.497z"/></svg>