<svg xmlns="http://www.w3.org/2000/svg" width="24" height="24" viewBox="0 0 24 24"><path d="M9 5a1 1 0 01.117 1.993L9 7H5v12h12v-4a1 1 0 011.993-.117L19 15v4a2 2 0 01-1.85 1.995L17 21H5a2 2 0 01-1.995-1.85L3 19V7a2 2 0 011.85-1.995L5 5h4zm11-2h.02c.023 0 .046.002.07.004L20 3a1.008 1.008 0 01.617.213c.063.05.12.107.17.17l-.08-.09a1.008 1.008 0 01.286.59l.003.03.003.055L21 4v6a1 1 0 01-1.993.117L19 10V6.414l-7.293 7.293a1 1 0 01-1.497-1.32l.083-.094 7.292-7.294L14 5a1 1 0 01-.993-.883L13 4a1 1 0 01.883-.993L14 3h6z"/></svg>