<svg xmlns="http://www.w3.org/2000/svg" width="24" height="24" viewBox="0 0 24 24"><path d="M9 14h.02c.023 0 .046.002.07.004L9 14a1.008 1.008 0 01.617.213c.063.05.12.107.17.17l-.08-.09a1.008 1.008 0 01.286.59l.003.03.003.055L10 15v4a1 1 0 01-1.993.117L8 19v-1.586l-3.293 3.293a1 1 0 01-1.497-1.32l.083-.094L6.584 16H5a1 1 0 01-.993-.883L4 15a1 1 0 01.883-.993L5 14h4zm10 0a1 1 0 01.117 1.993L19 16h-1.585l3.292 3.293a1 1 0 01-1.32 1.497l-.094-.083L16 17.415V19a1 1 0 01-.883.993L15 20a1 1 0 01-.993-.883L14 19v-4.018c0-.024.002-.048.004-.071L14 15a1.008 1.008 0 01.213-.617c.05-.063.107-.12.17-.17l-.09.08a1.008 1.008 0 01.59-.286l.028-.003.07-.004H19zM4.613 3.21l.094.083L8 6.585V5a1 1 0 01.883-.993L9 4a1 1 0 01.993.883L10 5v4.033l-.004.052L10 9a1.008 1.008 0 01-.213.617c-.05.063-.107.12-.17.17l.09-.08a1.008 1.008 0 01-.59.286l-.032.003a1.006 1.006 0 01-.052.003L9 10H5a1 1 0 01-.117-1.993L5 8h1.585L3.293 4.707a1 1 0 011.32-1.497zm16.094.083a1 1 0 01.083 1.32l-.083.094L17.414 8H19a1 1 0 01.993.883L20 9a1 1 0 01-.883.993L19 10h-4.032l-.054-.004L15 10a1.008 1.008 0 01-.617-.213 1.008 1.008 0 01-.17-.17l.08.09a1.008 1.008 0 01-.286-.59l-.003-.032A1.006 1.006 0 0114 9.02V5a1 1 0 011.993-.117L16 5v1.584l3.293-3.291a1 1 0 011.414 0z"/></svg>