<svg xmlns="http://www.w3.org/2000/svg" width="24" height="24" viewBox="0 0 24 24"><path d="M8.707 12.293a1 1 0 01.083 1.32l-.083.094a1 1 0 01-1.32.083l-.094-.083-4-4-.022-.022a1.006 1.006 0 01-.058-.068l.08.09a1.008 1.008 0 01-.289-.617A1.03 1.03 0 013 9v-.018c0-.024.002-.048.004-.071L3 9a1.008 1.008 0 01.21-.613.974.974 0 01.083-.094l4-4a1 1 0 011.497 1.32l-.083.094L6.415 8H15.5a5.5 5.5 0 01.221 10.996L15.5 19H11a1 1 0 01-.117-1.993L11 17h4.5a3.5 3.5 0 00.192-6.995L15.5 10H6.415l2.292 2.293z"/></svg>