<svg xmlns="http://www.w3.org/2000/svg" width="24" height="24" viewBox="0 0 24 24"><path d="M19.695 4.281c4.407 4.259 4.407 11.179 0 15.438a1 1 0 01-1.39-1.438c3.593-3.473 3.593-9.09 0-12.562a1 1 0 011.39-1.438zm-13.976.024a1 1 0 01-.024 1.414c-3.593 3.473-3.593 9.09 0 12.562a1 1 0 01-1.39 1.438C-.102 15.46-.102 8.54 4.305 4.281a1 1 0 011.414.024zm2.757 3.007a1 1 0 01-.038 1.414c-1.917 1.815-1.917 4.733 0 6.548a1 1 0 11-1.376 1.452c-2.75-2.603-2.75-6.849 0-9.452a1 1 0 011.414.038zm8.462-.038c2.75 2.603 2.75 6.849 0 9.452a1 1 0 01-1.376-1.452c1.917-1.815 1.917-4.733 0-6.548a1 1 0 011.376-1.452zM12 9a3 3 0 110 6 3 3 0 010-6zm0 2a1 1 0 100 2 1 1 0 000-2z"/></svg>