<svg xmlns="http://www.w3.org/2000/svg" width="24" height="24" viewBox="0 0 24 24"><path d="M10.586 4A2 2 0 0114 5.414v13.172A2 2 0 0110.586 20l-3.001-3H4a2 2 0 01-1.995-1.85L2 15V9a2 2 0 012-2h3.584zM12 5.414L8.707 8.707A1 1 0 018 9H4v6h4a1 1 0 01.707.293L12 18.586V5.414zm5.613 3.796l.094.083L19 10.585l1.293-1.292a1 1 0 011.497 1.32l-.083.094L20.414 12l1.293 1.294a1 1 0 01-1.32 1.497l-.094-.083L19 13.414l-1.293 1.293a1 1 0 01-1.497-1.32l.083-.094 1.292-1.294-1.292-1.292a1 1 0 011.32-1.497z"/></svg>