<svg xmlns="http://www.w3.org/2000/svg" width="24" height="24" viewBox="0 0 24 24"><path d="M12 2c5.523 0 10 4.477 10 10s-4.477 10-10 10S2 17.523 2 12 6.477 2 12 2zm3.476 14.891A5.973 5.973 0 0112 18a5.973 5.973 0 01-3.476-1.109l-1.429 1.43A7.965 7.965 0 0012 20c1.848 0 3.55-.627 4.905-1.68zM5.679 7.095A7.965 7.965 0 004 12c0 1.848.627 3.55 1.68 4.905l1.429-1.43A5.973 5.973 0 016 12a5.97 5.97 0 011.109-3.476zm12.642 0l-1.43 1.43A5.973 5.973 0 0118 12a5.97 5.97 0 01-1.109 3.476l1.43 1.429A7.965 7.965 0 0020 12c0-1.848-.627-3.55-1.68-4.905zM12 8a4 4 0 100 8 4 4 0 000-8zm0-4c-1.848 0-3.55.627-4.905 1.68l1.43 1.429A5.973 5.973 0 0112 6a5.97 5.97 0 013.476 1.109l1.429-1.43A7.965 7.965 0 0012 4z"/></svg>