<svg xmlns="http://www.w3.org/2000/svg" width="24" height="24" viewBox="0 0 24 24"><path d="M19.999 11a1 1 0 011.001.999 8.947 8.947 0 01-2.636 6.365A9 9 0 016 18.708V20a1 1 0 01-.883.993L5 21a1 1 0 01-.993-.883L4 20v-4.01c0-.027.002-.053.004-.079L4 16a1.01 1.01 0 01.272-.686 1.495 1.495 0 01.121-.109.86.86 0 01.099-.067l.01-.005.014-.008a.996.996 0 01.076-.038l-.09.046a1.009 1.009 0 01.381-.126l.028-.003A.996.996 0 014.978 15H9a1 1 0 01.117 1.993L9 17H7.103l.136.132a7 7 0 009.71-.182A6.947 6.947 0 0019 12a1 1 0 01.999-1zM19 3a1 1 0 01.993.883L20 4v4.023l-.003.06L20 8a1.01 1.01 0 01-.261.675 1.246 1.246 0 01-.159.14 1 1 0 01-.072.047l-.01.005-.014.008a.996.996 0 01-.076.038l.09-.046a1.009 1.009 0 01-.381.126l-.032.004a.996.996 0 01-.043.002L19 9h-4a1 1 0 01-.117-1.993L15 7h1.897l-.136-.132a7 7 0 00-9.71.182A6.947 6.947 0 005 12a1 1 0 11-2 0 8.947 8.947 0 012.636-6.365 9 9 0 0112.365-.344L18 4a1 1 0 01.883-.993L19 3z"/></svg>