<svg xmlns="http://www.w3.org/2000/svg" width="24" height="24" viewBox="0 0 24 24"><path d="M19 15a1 1 0 01.993.883L20 16v3a2 2 0 01-1.85 1.995L18 21H6a2 2 0 01-1.995-1.85L4 19v-3a1 1 0 011.993-.117L6 16v3h12v-3a1 1 0 011-1zM12 3h.02c.023 0 .046.002.07.004L12 3a1.008 1.008 0 01.625.22l.082.073 5 5a1 1 0 01-1.32 1.497l-.094-.083L13 6.415V15a1 1 0 01-1.993.117L11 15V6.415L7.707 9.707a1 1 0 01-1.32.083l-.094-.083a1 1 0 01-.083-1.32l.083-.094 5-5 .082-.073.008-.007-.09.08A1.008 1.008 0 0111.982 3H12z"/></svg>