<svg xmlns="http://www.w3.org/2000/svg" width="24" height="24" viewBox="0 0 24 24"><path d="M20.707 3.293a1 1 0 01.083 1.32l-.083.094-1.94 1.94c1.435 1.203 2.794 2.81 4.075 4.814a1 1 0 010 1.078C19.691 17.467 16.072 20 12 20c-1.795 0-3.502-.492-5.12-1.465l-2.173 2.172a1 1 0 01-1.497-1.32l.083-.094 1.94-1.94c-1.435-1.203-2.794-2.81-4.075-4.814a1 1 0 010-1.078C4.309 6.533 7.928 4 12 4c1.795 0 3.502.492 5.12 1.465l2.173-2.172a1 1 0 011.414 0zm-3.36 4.773l-8.998 9c1.096.58 2.221.887 3.377.93L12 18c3.11 0 6-1.903 8.686-5.826l.117-.174-.117-.174c-1.08-1.577-2.193-2.828-3.34-3.76zM12 6c-3.11 0-6 1.903-8.686 5.826L3.196 12l.118.174c1.08 1.577 2.193 2.828 3.34 3.76l8.997-9c-1.096-.58-2.221-.887-3.377-.93z"/></svg>