<svg xmlns="http://www.w3.org/2000/svg" width="24" height="24" viewBox="0 0 24 24"><path d="M15.705 4.007c-1.455.067-2.636.635-3.537 1.536L12 5.719l-.168-.176C10.872 4.582 9.591 4 8 4 4.843 4 3 6.397 3 9c0 2.97 1.646 5.644 4.341 8.003a22.465 22.465 0 002.879 2.126l.547.332c.333.196.601.341.786.433a1 1 0 00.894 0l.337-.177c.264-.145.602-.341.996-.588.98-.612 1.96-1.323 2.879-2.126C19.354 14.643 21 11.969 21 9c0-2.603-1.843-5-5-5l-.295.007zM16 6c1.92 0 3 1.403 3 3 0 2.28-1.354 4.481-3.659 6.497a20.49 20.49 0 01-2.621 1.936l-.45.274-.271.155-.268-.155a20.49 20.49 0 01-3.072-2.21C6.354 13.481 5 11.281 5 9c0-1.597 1.08-3 3-3 1.034 0 1.816.356 2.418.957.316.316.52.628.618.833l.036.081c.319.799 1.41.837 1.803.114l.053-.114c.08-.196.293-.553.654-.914C14.184 6.356 14.966 6 16 6z"/></svg>