<svg xmlns="http://www.w3.org/2000/svg" width="24" height="24" viewBox="0 0 24 24">
  <path d="M12,2 C17.5,2 22,6.5 22,12 C22,17.5 17.5,22 12,22 C6.5,22 2,17.5 2,12 C2,6.5 6.5,2 12,2 Z M12,4 C7.5,4 4,7.5 4,12 C4,16.5 7.5,20 12,20 C16.5,20 20,16.5 20,12 C20,7.5 16.5,4 12,4 Z M12,7 C12.5,7 13,7.5 13,8 L13,11 L16,11 C16.5,11 17,11.5 17,12 C17,12.5 16.5,13 16,13 L13,13 L13,16 C13,16.5 12.5,17 12,17 C11.5,17 11,16.5 11,16 L11,13 L8,13 C7.5,13 7,12.5 7,12 C7,11.5 7.5,11 8,11 L11,11 L11,8 C11,7.5 11.5,7 12,7 Z"/>
</svg>
