<svg xmlns="http://www.w3.org/2000/svg" width="24" height="24" viewBox="0 0 24 24">
  <path d="M12,4 L12.0193545,4.00018615 C12.042681,4.00063489 12.0659949,4.00189498 12.0892501,4.00396641 L12,4 C12.0506203,4 12.1003621,4.00376119 12.1489612,4.01101934 C12.165949,4.01362808 12.1833753,4.01670217 12.2007258,4.02024007 C12.2227461,4.0246398 12.2444365,4.02983363 12.2658396,4.03572097 C12.2814633,4.04009773 12.2968513,4.04472872 12.3121425,4.04973809 C12.3317977,4.05612249 12.3515792,4.06331574 12.3710585,4.07110396 C12.3887956,4.07819642 12.4060985,4.08567905 12.4232215,4.09367336 C12.4438914,4.10337664 12.4642939,4.11379392 12.484277,4.12487577 C12.4963944,4.13149883 12.5086131,4.13860692 12.5207088,4.14599545 C12.546275,4.1617187 12.5711307,4.17849009 12.5951593,4.19631351 C12.6012086,4.20071786 12.6070733,4.20517454 12.6128994,4.20970461 C12.6196628,4.21507113 12.6225624,4.2173721 12.625449,4.21968877 L12.7071068,4.29289322 L18.7071068,10.2928932 C19.0976311,10.6834175 19.0976311,11.3165825 18.7071068,11.7071068 C18.3466228,12.0675907 17.7793918,12.0953203 17.3871006,11.7902954 L17.2928932,11.7071068 L13,7.414 L13,19 C13,19.5522847 12.5522847,20 12,20 C11.4871642,20 11.0644928,19.6139598 11.0067277,19.1166211 L11,19 L11,7.414 L6.70710678,11.7071068 C6.34662282,12.0675907 5.77939176,12.0953203 5.38710056,11.7902954 L5.29289322,11.7071068 C4.93240926,11.3466228 4.90467972,10.7793918 5.20970461,10.3871006 L5.29289322,10.2928932 L11.2928932,4.29289322 L11.374551,4.21968877 C11.3774376,4.2173721 11.3803372,4.21507113 11.3832499,4.21278596 L11.2928932,4.29289322 C11.3282873,4.25749917 11.3656744,4.22531295 11.4046934,4.19633458 C11.4288693,4.17849009 11.453725,4.1617187 11.4793398,4.14606743 C11.4913869,4.13860692 11.5036056,4.13149883 11.5159379,4.12467117 C11.5357061,4.11379392 11.5561086,4.10337664 11.5769009,4.09365378 C11.5939015,4.08567905 11.6112044,4.07819642 11.628664,4.07122549 C11.6484208,4.06331574 11.6682023,4.05612249 11.6882636,4.04954668 C11.7031487,4.04472872 11.7185367,4.04009773 11.734007,4.03584514 C11.7555635,4.02983363 11.7772539,4.0246398 11.7992059,4.02016515 C11.8166247,4.01670217 11.834051,4.01362808 11.8515331,4.0110178 C11.8705042,4.00811223 11.890153,4.00576612 11.909968,4.00399798 C11.9343349,4.0018656 11.9579802,4.00059932 11.9816379,4.00016755 C11.9872016,4.00006024 11.9935938,4 12,4 Z"/>
</svg>
