<svg xmlns="http://www.w3.org/2000/svg" width="24" height="24" viewBox="0 0 24 24">
  <path d="M10,13 L10.0193545,13.0001861 C10.042681,13.0006349 10.0659949,13.001895 10.0892501,13.0039664 L10,13 C10.0506203,13 10.1003621,13.0037612 10.1489612,13.0110193 C10.165949,13.0136281 10.1833753,13.0167022 10.2007258,13.0202401 C10.2227461,13.0246398 10.2444365,13.0298336 10.2658396,13.035721 C10.2814633,13.0400977 10.2968513,13.0447287 10.3121425,13.0497381 C10.3317977,13.0561225 10.3515792,13.0633157 10.3710585,13.071104 C10.3887956,13.0781964 10.4060985,13.085679 10.4232215,13.0936734 C10.4438914,13.1033766 10.4642939,13.1137939 10.484277,13.1248758 C10.4963944,13.1314988 10.5086131,13.1386069 10.5207088,13.1459955 C10.546275,13.1617187 10.5711307,13.1784901 10.5951593,13.1963135 C10.602603,13.2017534 10.6098424,13.2072845 10.6170223,13.2129277 C10.6801818,13.2625517 10.7374483,13.3198182 10.787214,13.3832499 L10.7071068,13.2928932 C10.7425008,13.3282873 10.774687,13.3656744 10.8036654,13.4046934 C10.8215099,13.4288693 10.8382813,13.453725 10.8539326,13.4793398 C10.8613931,13.4913869 10.8685012,13.5036056 10.8753288,13.5159379 C10.8862061,13.5357061 10.8966234,13.5561086 10.9063462,13.5769009 C10.914321,13.5939015 10.9218036,13.6112044 10.9287745,13.628664 C10.9366843,13.6484208 10.9438775,13.6682023 10.9504533,13.6882636 C10.9552713,13.7031487 10.9599023,13.7185367 10.9641549,13.734007 C10.9701664,13.7555635 10.9753602,13.7772539 10.9798348,13.7992059 C10.9832978,13.8166247 10.9863719,13.834051 10.9889822,13.8515331 C10.9905825,13.8617641 10.9920139,13.8725451 10.9932723,13.8833789 L10.9962979,13.9137692 C10.9978436,13.9317345 10.9989053,13.9497336 10.9994829,13.9677454 L11,14 L11,20 C11,20.5522847 10.5522847,21 10,21 C9.48716416,21 9.06449284,20.6139598 9.00672773,20.1166211 L9,20 L9,16.414 L4.70710678,20.7071068 C4.31658249,21.0976311 3.68341751,21.0976311 3.29289322,20.7071068 C2.93240926,20.3466228 2.90467972,19.7793918 3.20970461,19.3871006 L3.29289322,19.2928932 L7.584,15 L4,15 C3.48716416,15 3.06449284,14.6139598 3.00672773,14.1166211 L3,14 C3,13.4871642 3.38604019,13.0644928 3.88337887,13.0067277 L4,13 L10,13 Z M14,3 C14.5128358,3 14.9355072,3.38604019 14.9932723,3.88337887 L15,4 L15,7.584 L19.2928932,3.29289322 C19.6834175,2.90236893 20.3165825,2.90236893 20.7071068,3.29289322 C21.0675907,3.65337718 21.0953203,4.22060824 20.7902954,4.61289944 L20.7071068,4.70710678 L16.414,9 L20,9 C20.5128358,9 20.9355072,9.38604019 20.9932723,9.88337887 L21,10 C21,10.5128358 20.6139598,10.9355072 20.1166211,10.9932723 L20,11 L14,11 L13.9677454,10.9994829 C13.9497336,10.9989053 13.9317345,10.9978436 13.9137692,10.9962979 L14,11 C13.9493797,11 13.8996379,10.9962388 13.8510388,10.9889807 C13.834051,10.9863719 13.8166247,10.9832978 13.7992742,10.9797599 C13.7772539,10.9753602 13.7555635,10.9701664 13.7341604,10.964279 C13.7185367,10.9599023 13.7031487,10.9552713 13.6878575,10.9502619 C13.6682023,10.9438775 13.6484208,10.9366843 13.6289415,10.928896 C13.6112044,10.9218036 13.5939015,10.914321 13.5767785,10.9063266 C13.5561086,10.8966234 13.5357061,10.8862061 13.515723,10.8751242 C13.5036056,10.8685012 13.4913869,10.8613931 13.4792912,10.8540045 C13.453725,10.8382813 13.4288693,10.8215099 13.4048407,10.8036865 C13.397397,10.7982466 13.3901576,10.7927155 13.3829777,10.7870723 C13.3198182,10.7374483 13.2625517,10.6801818 13.212786,10.6167501 L13.2928932,10.7071068 C13.2574992,10.6717127 13.225313,10.6343256 13.1963346,10.5953066 C13.1784901,10.5711307 13.1617187,10.546275 13.1460674,10.5206602 C13.1386069,10.5086131 13.1314988,10.4963944 13.1246712,10.4840621 C13.1137939,10.4642939 13.1033766,10.4438914 13.0936538,10.4230991 C13.085679,10.4060985 13.0781964,10.3887956 13.0712255,10.371336 C13.0633157,10.3515792 13.0561225,10.3317977 13.0495467,10.3117364 C13.0447287,10.2968513 13.0400977,10.2814633 13.0358451,10.265993 C13.0298336,10.2444365 13.0246398,10.2227461 13.0201652,10.2007941 C13.0167022,10.1833753 13.0136281,10.165949 13.0110178,10.1484669 C13.0094175,10.1382359 13.0079861,10.1274549 13.0067277,10.1166211 L13.0039664,10.0892501 C13.001895,10.0659949 13.0006349,10.042681 13.0001861,10.0193545 L13,10 L13,4 C13,3.44771525 13.4477153,3 14,3 Z"/>
</svg>
