<svg xmlns="http://www.w3.org/2000/svg" width="24" height="24" viewBox="0 0 24 24">
  <path d="M19,4 L19.0193545,4.00018615 C19.042681,4.00063489 19.0659949,4.00189498 19.0892501,4.00396641 L19,4 C19.0506203,4 19.1003621,4.00376119 19.1489612,4.01101934 C19.165949,4.01362808 19.1833753,4.01670217 19.2007258,4.02024007 C19.2227461,4.0246398 19.2444365,4.02983363 19.2658396,4.03572097 C19.2814633,4.04009773 19.2968513,4.04472872 19.3121425,4.04973809 C19.3317977,4.05612249 19.3515792,4.06331574 19.3710585,4.07110396 C19.3887956,4.07819642 19.4060985,4.08567905 19.4232215,4.09367336 C19.4438914,4.10337664 19.4642939,4.11379392 19.484277,4.12487577 C19.4963944,4.13149883 19.5086131,4.13860692 19.5207088,4.14599545 C19.546275,4.1617187 19.5711307,4.17849009 19.5951593,4.19631351 C19.602603,4.20175344 19.6098424,4.20728448 19.6170223,4.21292769 C19.6801818,4.26255171 19.7374483,4.31981825 19.787214,4.38324992 L19.7071068,4.29289322 C19.7425008,4.32828727 19.774687,4.36567442 19.8036654,4.40469339 C19.8215099,4.42886931 19.8382813,4.45372505 19.8539326,4.47933981 C19.8613931,4.49138689 19.8685012,4.50360556 19.8753288,4.5159379 C19.8862061,4.53570605 19.8966234,4.5561086 19.9063462,4.57690085 C19.914321,4.5939015 19.9218036,4.61120435 19.9287745,4.62866398 C19.9366843,4.6484208 19.9438775,4.66820232 19.9504533,4.68826359 C19.9552713,4.70314866 19.9599023,4.71853672 19.9641549,4.73400703 C19.9701664,4.75556352 19.9753602,4.77725392 19.9798348,4.7992059 C19.9832978,4.81662474 19.9863719,4.83405099 19.9889822,4.85153313 C19.9905825,4.86176411 19.9920139,4.87254508 19.9932723,4.88337887 L19.9962979,4.9137692 C19.9978436,4.93173451 19.9989053,4.94973363 19.9994829,4.96774538 L20,5 L20,11 C20,11.5522847 19.5522847,12 19,12 C18.4871642,12 18.0644928,11.6139598 18.0067277,11.1166211 L18,11 L18,7.414 L7.414,18 L11,18 C11.5128358,18 11.9355072,18.3860402 11.9932723,18.8833789 L12,19 C12,19.5128358 11.6139598,19.9355072 11.1166211,19.9932723 L11,20 L5,20 L4.96774538,19.9994829 C4.94973363,19.9989053 4.93173451,19.9978436 4.9137692,19.9962979 L5,20 C4.94937972,20 4.89963791,19.9962388 4.85103878,19.9889807 C4.83405099,19.9863719 4.81662474,19.9832978 4.79927424,19.9797599 C4.77725392,19.9753602 4.75556352,19.9701664 4.73416039,19.964279 C4.71853672,19.9599023 4.70314866,19.9552713 4.68785748,19.9502619 C4.66820232,19.9438775 4.6484208,19.9366843 4.62894148,19.928896 C4.61120435,19.9218036 4.5939015,19.914321 4.57677845,19.9063266 C4.5561086,19.8966234 4.53570605,19.8862061 4.51572305,19.8751242 C4.50360556,19.8685012 4.49138689,19.8613931 4.47929125,19.8540045 C4.45372505,19.8382813 4.42886931,19.8215099 4.4048407,19.8036865 C4.39739696,19.7982466 4.39015759,19.7927155 4.38297765,19.7870723 C4.31981825,19.7374483 4.26255171,19.6801818 4.21278596,19.6167501 L4.29289322,19.7071068 C4.25749917,19.6717127 4.22531295,19.6343256 4.19633458,19.5953066 C4.17849009,19.5711307 4.1617187,19.546275 4.14606743,19.5206602 C4.13860692,19.5086131 4.13149883,19.4963944 4.12467117,19.4840621 C4.11379392,19.4642939 4.10337664,19.4438914 4.09365378,19.4230991 C4.08567905,19.4060985 4.07819642,19.3887956 4.07122549,19.371336 C4.06331574,19.3515792 4.05612249,19.3317977 4.04954668,19.3117364 C4.04472872,19.2968513 4.04009773,19.2814633 4.03584514,19.265993 C4.02983363,19.2444365 4.0246398,19.2227461 4.02016515,19.2007941 C4.01670217,19.1833753 4.01362808,19.165949 4.0110178,19.1484669 C4.00941754,19.1382359 4.00798606,19.1274549 4.00672773,19.1166211 L4.00396641,19.0892501 C4.00189498,19.0659949 4.00063489,19.042681 4.00018615,19.0193545 L4,19 L4,13 C4,12.4477153 4.44771525,12 5,12 C5.51283584,12 5.93550716,12.3860402 5.99327227,12.8833789 L6,13 L6,16.584 L16.584,6 L13,6 C12.4871642,6 12.0644928,5.61395981 12.0067277,5.11662113 L12,5 C12,4.48716416 12.3860402,4.06449284 12.8833789,4.00672773 L13,4 L19,4 Z"/>
</svg>
