<svg xmlns="http://www.w3.org/2000/svg" width="24" height="24" viewBox="0 0 24 24">
  <path d="M12,2 C17.5228475,2 22,6.4771525 22,12 C22,17.5228475 17.5228475,22 12,22 C6.4771525,22 2,17.5228475 2,12 C2,6.4771525 6.4771525,2 12,2 Z M16,17 L8,17 C7.48716416,17 7.06449284,17.3860402 7.00672773,17.8833789 L7,18 L7.00038632,18.2456806 C8.36992485,19.3434052 10.1082845,20 12,20 C13.8921736,20 15.630917,19.3430872 17.0006084,18.2448832 L17,18 C17,17.4871642 16.6139598,17.0644928 16.1166211,17.0067277 L16,17 Z M12,4 C7.581722,4 4,7.581722 4,12 C4,13.6746945 4.51458485,15.2292013 5.39426313,16.5140289 C5.88299514,15.6572684 6.78207067,15.0654477 7.82372721,15.0050927 L8,15 L16,15 C17.1159597,15 18.089603,15.6093286 18.6063781,16.5134337 C19.4854151,15.2292013 20,13.6746945 20,12 C20,7.581722 16.418278,4 12,4 Z M12,6 C14.209139,6 16,7.790861 16,10 C16,12.209139 14.209139,14 12,14 C9.790861,14 8,12.209139 8,10 C8,7.790861 9.790861,6 12,6 Z M12,8 C10.8954305,8 10,8.8954305 10,10 C10,11.1045695 10.8954305,12 12,12 C13.1045695,12 14,11.1045695 14,10 C14,8.8954305 13.1045695,8 12,8 Z"/>
</svg>
