<svg xmlns="http://www.w3.org/2000/svg" width="24" height="24" viewBox="0 0 24 24">
  <path d="M17,3 L7,3 C5.8954305,3 5,3.8954305 5,5 L5,20 L5.00593493,20.1118423 C5.08426422,20.8419811 5.92179093,21.2539898 6.5547002,20.8320503 L12,17.202 L17.4452998,20.8320503 C18.1098545,21.2750868 19,20.7986954 19,20 L19,5 C19,3.8954305 18.1045695,3 17,3 Z M7,5 L17,5 L17,18.131 L12.5547002,15.1679497 L12.439246,15.1015992 C12.1228116,14.9467814 11.7438771,14.9688982 11.4452998,15.1679497 L7,18.13 L7,5 Z"/>
</svg>
