<svg xmlns="http://www.w3.org/2000/svg" width="24" height="24" viewBox="0 0 24 24">
  <path d="M19,3 C19.5522847,3 20,3.44771525 20,4 C20,4.51283584 19.6139598,4.93550716 19.1166211,4.99327227 L19,5 L7,5 C6.44771525,5 6,5.44771525 6,6 C6,6.51283584 6.38604019,6.93550716 6.88337887,6.99327227 L7,7 L18,7 C19.0543618,7 19.9181651,7.81587779 19.9945143,8.85073766 L20,9 L20,19 C20,20.0543618 19.1841222,20.9181651 18.1492623,20.9945143 L18,21 L7,21 C5.40231912,21 4.09633912,19.75108 4.00509269,18.1762728 L4,18 L4,6 C4,4.40231912 5.24891996,3.09633912 6.82372721,3.00509269 L7,3 L19,3 Z M6,8.829 L6,18 C6,18.5128358 6.38604019,18.9355072 6.88337887,18.9932723 L7,19 L18,19 L18,9 L7,9 C6.70413317,9 6.4182698,8.9571701 6.14827175,8.87737216 L6,8.829 Z"/>
</svg>
