<svg xmlns="http://www.w3.org/2000/svg" width="24" height="24" viewBox="0 0 24 24">
  <path d="M16,4 C17.6568542,4 19,5.34314575 19,7 C19,8.31179956 18.1580438,9.42694971 16.9850473,9.83453458 C16.9890126,9.85032423 16.9913455,9.86678963 16.9932723,9.88337887 L17,10 L17,12.2192236 C17,13.0829744 16.4467258,13.8424039 15.6393574,14.1143291 L15.4850713,14.1595086 L9,15.78 L9,19 C9,19.5522847 8.55228475,20 8,20 C7.48716416,20 7.06449284,19.6139598 7.00672773,19.1166211 L7,19 L7.00014112,15.0266306 C6.99981684,15.0148736 6.99970209,15.0031407 6.99979415,14.9914364 L7.00008893,9.82932572 C5.8348501,9.41751442 5,8.30625206 5,7 C5,5.34314575 6.34314575,4 8,4 C9.65685425,4 11,5.34314575 11,7 C11,8.30588222 10.1656226,9.41688515 9.00090072,9.82897577 L9,13.718 L15,12.2192236 L15,10 C15,9.94344492 15.0046948,9.88798638 15.013716,9.83399285 C13.8419562,9.42694971 13,8.31179956 13,7 C13,5.34314575 14.3431458,4 16,4 Z M8,6 C7.44771525,6 7,6.44771525 7,7 C7,7.55228475 7.44771525,8 8,8 C8.55228475,8 9,7.55228475 9,7 C9,6.44771525 8.55228475,6 8,6 Z M16,6 C15.4477153,6 15,6.44771525 15,7 C15,7.55228475 15.4477153,8 16,8 C16.5522847,8 17,7.55228475 17,7 C17,6.44771525 16.5522847,6 16,6 Z"/>
</svg>
