<svg xmlns="http://www.w3.org/2000/svg" width="24" height="24" viewBox="0 0 24 24">
  <path d="M16,2 C16.5128358,2 16.9355072,2.38604019 16.9932723,2.88337887 L17,3 L17,4 L19,4 C20.0543618,4 20.9181651,4.81587779 20.9945143,5.85073766 L21,6 L21,18 C21,19.1045695 20.1045695,20 19,20 L19,20 L5,20 C3.8954305,20 3,19.1045695 3,18 L3,18 L3,6 C3,4.8954305 3.8954305,4 5,4 L5,4 L7,4 L7,3 C7,2.44771525 7.44771525,2 8,2 C8.51283584,2 8.93550716,2.38604019 8.99327227,2.88337887 L9,3 L9,4 L15,4 L15,3 C15,2.44771525 15.4477153,2 16,2 Z M19,6 L5,6 L5,18 L19,18 L19,6 Z M8.5,13 C8.77614237,13 9,13.2238576 9,13.5 L9,14.5 C9,14.7761424 8.77614237,15 8.5,15 L7.5,15 C7.22385763,15 7,14.7761424 7,14.5 L7,13.5 C7,13.2238576 7.22385763,13 7.5,13 L8.5,13 Z M12.5,13 C12.7761424,13 13,13.2238576 13,13.5 L13,14.5 C13,14.7761424 12.7761424,15 12.5,15 L11.5,15 C11.2238576,15 11,14.7761424 11,14.5 L11,13.5 C11,13.2238576 11.2238576,13 11.5,13 L12.5,13 Z M8.5,9 C8.77614237,9 9,9.22385763 9,9.5 L9,10.5 C9,10.7761424 8.77614237,11 8.5,11 L7.5,11 C7.22385763,11 7,10.7761424 7,10.5 L7,9.5 C7,9.22385763 7.22385763,9 7.5,9 L8.5,9 Z M12.5,9 C12.7761424,9 13,9.22385763 13,9.5 L13,10.5 C13,10.7761424 12.7761424,11 12.5,11 L11.5,11 C11.2238576,11 11,10.7761424 11,10.5 L11,9.5 C11,9.22385763 11.2238576,9 11.5,9 L12.5,9 Z M16.5,9 C16.7761424,9 17,9.22385763 17,9.5 L17,10.5 C17,10.7761424 16.7761424,11 16.5,11 L15.5,11 C15.2238576,11 15,10.7761424 15,10.5 L15,9.5 C15,9.22385763 15.2238576,9 15.5,9 L16.5,9 Z"/>
</svg>
