<svg xmlns="http://www.w3.org/2000/svg" width="24" height="24" viewBox="0 0 24 24">
  <path d="M15,3 C15.2652165,3 15.5195704,3.10535684 15.7071068,3.29289322 L15.7071068,3.29289322 L17.415,5 L20,5 C21.0543618,5 21.9181651,5.81587779 21.9945143,6.85073766 L21.9945143,6.85073766 L22,7 L22,18 C22,19.1045695 21.1045695,20 20,20 L20,20 L4,20 C2.8954305,20 2,19.1045695 2,18 L2,18 L2,7 C2,5.8954305 2.8954305,5 4,5 L4,5 L6.584,5 L8.29289322,3.29289322 C8.44917353,3.1366129 8.65185492,3.03740171 8.86855602,3.00867243 L8.86855602,3.00867243 L9,3 Z M14.585,5 L9.414,5 L7.70710678,6.70710678 C7.55082647,6.8633871 7.34814508,6.96259829 7.13144398,6.99132757 L7.13144398,6.99132757 L7,7 L4,7 L4,18 L20,18 L20,7 L17,7 C16.7347835,7 16.4804296,6.89464316 16.2928932,6.70710678 L16.2928932,6.70710678 L14.585,5 Z M12,8 C14.209139,8 16,9.790861 16,12 C16,14.209139 14.209139,16 12,16 C9.790861,16 8,14.209139 8,12 C8,9.790861 9.790861,8 12,8 Z M12,10 C10.8954305,10 10,10.8954305 10,12 C10,13.1045695 10.8954305,14 12,14 C13.1045695,14 14,13.1045695 14,12 C14,10.8954305 13.1045695,10 12,10 Z"/>
</svg>
