<svg xmlns="http://www.w3.org/2000/svg" width="24" height="24" viewBox="0 0 24 24">
  <path d="M19,12 C20.1045695,12 21,12.8954305 21,14 L21,14 L21,18 C21,19.1045695 20.1045695,20 19,20 L19,20 L5,20 C3.8954305,20 3,19.1045695 3,18 L3,18 L3,14 C3,12.8954305 3.8954305,12 5,12 L5,12 Z M19,14 L5,14 L5,18 L19,18 L19,14 Z M17,8 C17.5522847,8 18,8.44771525 18,9 C18,9.51283584 17.6139598,9.93550716 17.1166211,9.99327227 L17,10 L7,10 C6.44771525,10 6,9.55228475 6,9 C6,8.48716416 6.38604019,8.06449284 6.88337887,8.00672773 L7,8 L17,8 Z M15,4 C15.5522847,4 16,4.44771525 16,5 C16,5.51283584 15.6139598,5.93550716 15.1166211,5.99327227 L15,6 L9,6 C8.44771525,6 8,5.55228475 8,5 C8,4.48716416 8.38604019,4.06449284 8.88337887,4.00672773 L9,4 L15,4 Z"/>
</svg>
