<svg xmlns="http://www.w3.org/2000/svg" width="24" height="24" viewBox="0 0 24 24">
  <path d="M12,2 C17.5228475,2 22,6.4771525 22,12 C22,17.5228475 17.5228475,22 12,22 C6.4771525,22 2,17.5228475 2,12 C2,6.4771525 6.4771525,2 12,2 Z M12,4 C7.581722,4 4,7.581722 4,12 C4,16.418278 7.581722,20 12,20 C16.418278,20 20,16.418278 20,12 C20,7.581722 16.418278,4 12,4 Z M16.6401844,8.23177872 C17.0318246,8.55814556 17.110795,9.12053661 16.8425391,9.53883241 L16.7682213,9.6401844 L11.7682213,15.6401844 C11.418662,16.0596556 10.8047124,16.1163346 10.3858753,15.7893779 L10.2928932,15.7071068 L7.29289322,12.7071068 C6.90236893,12.3165825 6.90236893,11.6834175 7.29289322,11.2928932 C7.65337718,10.9324093 8.22060824,10.9046797 8.61289944,11.2097046 L8.70710678,11.2928932 L10.932,13.517 L15.2317787,8.3598156 C15.5853428,7.9355387 16.2159075,7.87821464 16.6401844,8.23177872 Z"/>
</svg>
