<svg xmlns="http://www.w3.org/2000/svg" width="24" height="24" viewBox="0 0 24 24">
  <path d="M19,3 C20.1045695,3 21,3.8954305 21,5 L21,5 L21,19 C21,20.1045695 20.1045695,21 19,21 L19,21 L5,21 C3.8954305,21 3,20.1045695 3,19 L3,19 L3,5 C3,3.8954305 3.8954305,3 5,3 L5,3 Z M19,5 L5,5 L5,19 L19,19 L19,5 Z M15,11 C15.5522847,11 16,11.4477153 16,12 C16,12.5128358 15.6139598,12.9355072 15.1166211,12.9932723 L15,13 L9,13 C8.44771525,13 8,12.5522847 8,12 C8,11.4871642 8.38604019,11.0644928 8.88337887,11.0067277 L9,11 L15,11 Z"/>
</svg>
