<svg xmlns="http://www.w3.org/2000/svg" width="24" height="24" viewBox="0 0 24 24">
  <path d="M19,3 C20.1045695,3 21,3.8954305 21,5 L21,5 L21,19 C21,20.1045695 20.1045695,21 19,21 L19,21 L5,21 C3.8954305,21 3,20.1045695 3,19 L3,19 L3,5 C3,3.8954305 3.8954305,3 5,3 L5,3 Z M19,5 L5,5 L5,19 L19,19 L19,5 Z M16.6401844,8.23177872 C17.0318246,8.55814556 17.110795,9.12053661 16.8425391,9.53883241 L16.7682213,9.6401844 L11.7682213,15.6401844 C11.418662,16.0596556 10.8047124,16.1163346 10.3858753,15.7893779 L10.2928932,15.7071068 L7.29289322,12.7071068 C6.90236893,12.3165825 6.90236893,11.6834175 7.29289322,11.2928932 C7.65337718,10.9324093 8.22060824,10.9046797 8.61289944,11.2097046 L8.70710678,11.2928932 L10.932,13.517 L15.2317787,8.3598156 C15.5853428,7.9355387 16.2159075,7.87821464 16.6401844,8.23177872 Z"/>
</svg>
