<svg xmlns="http://www.w3.org/2000/svg" width="24" height="24" viewBox="0 0 24 24">
  <path d="M15,3 C16.1045695,3 17,3.8954305 17,5 L17,5 L18,5 C19.0543618,5 19.9181651,5.81587779 19.9945143,6.85073766 L20,7 L20,19 C20,20.0543618 19.1841222,20.9181651 18.1492623,20.9945143 L18,21 L6,21 C4.9456382,21 4.08183488,20.1841222 4.00548574,19.1492623 L4,19 L4,7 C4,5.9456382 4.81587779,5.08183488 5.85073766,5.00548574 L6,5 L7,5 C7,3.8954305 7.8954305,3 9,3 L9,3 Z M17,7 C17,8.1045695 16.1045695,9 15,9 L15,9 L9,9 C7.8954305,9 7,8.1045695 7,7 L7,7 L6,7 L6,19 L18,19 L18,7 Z M15,5 L9,5 L9,7 L15,7 L15,5 Z"/>
</svg>
