<svg xmlns="http://www.w3.org/2000/svg" width="24" height="24" viewBox="0 0 24 24">
  <path d="M12,2 C17.5228475,2 22,6.4771525 22,12 C22,17.5228475 17.5228475,22 12,22 C6.4771525,22 2,17.5228475 2,12 C2,6.4771525 6.4771525,2 12,2 Z M12,4 C7.581722,4 4,7.581722 4,12 C4,16.418278 7.581722,20 12,20 C16.418278,20 20,16.418278 20,12 C20,7.581722 16.418278,4 12,4 Z M12,6 C12.5128358,6 12.9355072,6.38604019 12.9932723,6.88337887 L13,7 L13,11.585 L15.7071068,14.2928932 C16.0675907,14.6533772 16.0953203,15.2206082 15.7902954,15.6128994 L15.7071068,15.7071068 C15.3466228,16.0675907 14.7793918,16.0953203 14.3871006,15.7902954 L14.2928932,15.7071068 L11.2928932,12.7071068 C11.1366129,12.5508265 11.0374017,12.3481451 11.0086724,12.131444 L11,12 L11,7 C11,6.44771525 11.4477153,6 12,6 Z"/>
</svg>
