<svg xmlns="http://www.w3.org/2000/svg" width="24" height="24" viewBox="0 0 24 24">
  <path d="M7.61289944,6.20970461 L7.70710678,6.29289322 L12,10.585 L16.2928932,6.29289322 C16.6834175,5.90236893 17.3165825,5.90236893 17.7071068,6.29289322 C18.0675907,6.65337718 18.0953203,7.22060824 17.7902954,7.61289944 L17.7071068,7.70710678 L13.415,12 L17.7071068,16.2928932 C18.0976311,16.6834175 18.0976311,17.3165825 17.7071068,17.7071068 C17.3466228,18.0675907 16.7793918,18.0953203 16.3871006,17.7902954 L16.2928932,17.7071068 L12,13.415 L7.70710678,17.7071068 C7.31658249,18.0976311 6.68341751,18.0976311 6.29289322,17.7071068 C5.93240926,17.3466228 5.90467972,16.7793918 6.20970461,16.3871006 L6.29289322,16.2928932 L10.585,12 L6.29289322,7.70710678 C5.90236893,7.31658249 5.90236893,6.68341751 6.29289322,6.29289322 C6.65337718,5.93240926 7.22060824,5.90467972 7.61289944,6.20970461 Z"/>
</svg>
