<svg xmlns="http://www.w3.org/2000/svg" width="24" height="24" viewBox="0 0 24 24">
  <path d="M8,4 C8.55228475,4 9,4.44771525 9,5 C9,5.51283584 8.61395981,5.93550716 8.11662113,5.99327227 L8,6 L5,6 L5,18 L8,18 C8.55228475,18 9,18.4477153 9,19 C9,19.5128358 8.61395981,19.9355072 8.11662113,19.9932723 L8,20 L5,20 C3.9456382,20 3.08183488,19.1841222 3.00548574,18.1492623 L3,18 L3,6 C3,4.9456382 3.81587779,4.08183488 4.85073766,4.00548574 L5,4 L8,4 Z M19,4 C20.0543618,4 20.9181651,4.81587779 20.9945143,5.85073766 L21,6 L21,18 C21,19.0543618 20.1841222,19.9181651 19.1492623,19.9945143 L19,20 L16,20 C15.4477153,20 15,19.5522847 15,19 C15,18.4871642 15.3860402,18.0644928 15.8833789,18.0067277 L16,18 L19,18 L19,6 L16,6 C15.4477153,6 15,5.55228475 15,5 C15,4.48716416 15.3860402,4.06449284 15.8833789,4.00672773 L16,4 L19,4 Z"/>
</svg>
