<svg xmlns="http://www.w3.org/2000/svg" width="24" height="24" viewBox="0 0 24 24">
  <path d="M9,4 C9.55228475,4 10,4.44771525 10,5 C10,5.51283584 9.61395981,5.93550716 9.11662113,5.99327227 L9,6 L7,6 C6.48716416,6 6.06449284,6.38604019 6.00672773,6.88337887 L6,7 L6,9.17157288 C6,9.90091822 5.73441296,10.6028808 5.25679617,11.148162 L5.12132034,11.2928932 L4.414,12 L5.12132034,12.7071068 C5.63704538,13.2228318 5.94560951,13.9069927 5.99345544,14.6302908 L6,14.8284271 L6,17 C6,17.5128358 6.38604019,17.9355072 6.88337887,17.9932723 L7,18 L9,18 C9.55228475,18 10,18.4477153 10,19 C10,19.5128358 9.61395981,19.9355072 9.11662113,19.9932723 L9,20 L7,20 C5.40231912,20 4.09633912,18.75108 4.00509269,17.1762728 L4,17 L4,14.8284271 C4,14.6074134 3.92683553,14.3939431 3.79391937,14.2203976 L3.70710678,14.1213203 L2.29289322,12.7071068 C1.93240926,12.3466228 1.90467972,11.7793918 2.20970461,11.3871006 L2.29289322,11.2928932 L3.70710678,9.87867966 C3.8633871,9.72239934 3.96259829,9.51971796 3.99132757,9.30301685 L4,9.17157288 L4,7 C4,5.40231912 5.24891996,4.09633912 6.82372721,4.00509269 L7,4 L9,4 Z M17,4 C18.5976809,4 19.9036609,5.24891996 19.9949073,6.82372721 L20,7 L20,9.17157288 C20,9.39258662 20.0731645,9.6060569 20.2060806,9.77960239 L20.2928932,9.87867966 L21.7071068,11.2928932 C22.0675907,11.6533772 22.0953203,12.2206082 21.7902954,12.6128994 L21.7071068,12.7071068 L20.2928932,14.1213203 C20.1366129,14.2776007 20.0374017,14.480282 20.0086724,14.6969831 L20,14.8284271 L20,17 C20,18.5976809 18.75108,19.9036609 17.1762728,19.9949073 L17,20 L15,20 C14.4477153,20 14,19.5522847 14,19 C14,18.4871642 14.3860402,18.0644928 14.8833789,18.0067277 L15,18 L17,18 C17.5128358,18 17.9355072,17.6139598 17.9932723,17.1166211 L18,17 L18,14.8284271 C18,14.0990818 18.265587,13.3971192 18.7432038,12.851838 L18.8786797,12.7071068 L19.585,12 L18.8786797,11.2928932 C18.3629546,10.7771682 18.0543905,10.0930073 18.0065446,9.36970919 L18,9.17157288 L18,7 C18,6.48716416 17.6139598,6.06449284 17.1166211,6.00672773 L17,6 L15,6 C14.4477153,6 14,5.55228475 14,5 C14,4.48716416 14.3860402,4.06449284 14.8833789,4.00672773 L15,4 L17,4 Z"/>
</svg>
