<svg xmlns="http://www.w3.org/2000/svg" width="24" height="24" viewBox="0 0 24 24">
  <path d="M8.70710678,6.29289322 C9.06759074,6.65337718 9.09532028,7.22060824 8.79029539,7.61289944 L8.70710678,7.70710678 L4.415,12 L8.70710678,16.2928932 C9.06759074,16.6533772 9.09532028,17.2206082 8.79029539,17.6128994 L8.70710678,17.7071068 C8.34662282,18.0675907 7.77939176,18.0953203 7.38710056,17.7902954 L7.29289322,17.7071068 L2.29289322,12.7071068 C1.93240926,12.3466228 1.90467972,11.7793918 2.20970461,11.3871006 L2.29289322,11.2928932 L7.29289322,6.29289322 C7.68341751,5.90236893 8.31658249,5.90236893 8.70710678,6.29289322 Z M16.6128994,6.20970461 L16.7071068,6.29289322 L21.7071068,11.2928932 C22.0675907,11.6533772 22.0953203,12.2206082 21.7902954,12.6128994 L21.7071068,12.7071068 L16.7071068,17.7071068 C16.3165825,18.0976311 15.6834175,18.0976311 15.2928932,17.7071068 C14.9324093,17.3466228 14.9046797,16.7793918 15.2097046,16.3871006 L15.2928932,16.2928932 L19.585,12 L15.2928932,7.70710678 C14.9324093,7.34662282 14.9046797,6.77939176 15.2097046,6.38710056 L15.2928932,6.29289322 C15.6533772,5.93240926 16.2206082,5.90467972 16.6128994,6.20970461 Z"/>
</svg>
