<svg xmlns="http://www.w3.org/2000/svg" width="24" height="24" viewBox="0 0 24 24">
  <path d="M12,2 C6.4771525,2 2,6.4771525 2,12 L2,21 L2.00600472,21.1131715 C2.08919876,21.8878644 3.01846325,22.2863222 3.6401844,21.7682213 L5.97,19.827 L6.03856013,19.8857289 C7.7404726,21.2898151 9.73973378,22 12,22 C17.5228475,22 22,17.5228475 22,12 C22,6.4771525 17.5228475,2 12,2 Z M12,4 C16.418278,4 20,7.581722 20,12 C20,16.418278 16.418278,20 12,20 C9.93263949,20 8.18676647,19.2725529 6.70710678,17.7928932 L6.61135926,17.7085414 C6.24531248,17.4252417 5.72403157,17.4282654 5.3598156,17.7317787 L4,18.864 L4,12 C4,7.581722 7.581722,4 12,4 Z"/>
</svg>
