<svg xmlns="http://www.w3.org/2000/svg" width="24" height="24" viewBox="0 0 24 24">
  <path d="M12,2 C17.5228475,2 22,6.4771525 22,12 C22,17.5228475 17.5228475,22 12,22 C9.73973378,22 7.7404726,21.2898151 6.03856013,19.8857289 L6.03856013,19.8857289 L5.97,19.827 L3.6401844,21.7682213 C3.01846325,22.2863222 2.08919876,21.8878644 2.00600472,21.1131715 L2.00600472,21.1131715 L2,21 L2,12 C2,6.4771525 6.4771525,2 12,2 Z M12,4 C7.581722,4 4,7.581722 4,12 L4,12 L3.999,18.864 L5.3598156,17.7317787 C5.72403157,17.4282654 6.24531248,17.4252417 6.61135926,17.7085414 L6.61135926,17.7085414 L6.70710678,17.7928932 C8.18676647,19.2725529 9.93263949,20 12,20 C16.418278,20 20,16.418278 20,12 C20,7.581722 16.418278,4 12,4 Z M9,10 C10.1045695,10 11,10.8954305 11,12 C11,13.1045695 10.1045695,14 9,14 C7.8954305,14 7,13.1045695 7,12 C7,10.8954305 7.8954305,10 9,10 Z M15,10 C16.1045695,10 17,10.8954305 17,12 C17,13.1045695 16.1045695,14 15,14 C13.8954305,14 13,13.1045695 13,12 C13,10.8954305 13.8954305,10 15,10 Z"/>
</svg>
