<svg xmlns="http://www.w3.org/2000/svg" width="24" height="24" viewBox="0 0 24 24">
  <path d="M18,3 C19.6568542,3 21,4.34314575 21,6 C21,7.65685425 19.6568542,9 18,9 C17.1912973,9 16.4573316,8.68001304 15.9178082,8.15974447 L8.97728802,11.6290171 C8.99227981,11.7505759 9,11.8743864 9,12 C9,12.1256136 8.99227981,12.2494241 8.97728802,12.3709829 L15.9178082,15.8402555 C16.4573316,15.319987 17.1912973,15 18,15 C19.6568542,15 21,16.3431458 21,18 C21,19.6568542 19.6568542,21 18,21 C16.3431458,21 15,19.6568542 15,18 C15,17.8743864 15.0077202,17.7505759 15.022712,17.6290171 L8.08219177,14.1597445 C7.54266838,14.680013 6.80870267,15 6,15 C4.34314575,15 3,13.6568542 3,12 C3,10.3431458 4.34314575,9 6,9 C6.80870267,9 7.54266838,9.31998696 8.08219177,9.84025553 L15.022712,6.37098287 C15.0077202,6.24942413 15,6.12561364 15,6 C15,4.34314575 16.3431458,3 18,3 Z M18,17 C17.4477153,17 17,17.4477153 17,18 C17,18.5522847 17.4477153,19 18,19 C18.5522847,19 19,18.5522847 19,18 C19,17.4477153 18.5522847,17 18,17 Z M6,11 C5.44771525,11 5,11.4477153 5,12 C5,12.5522847 5.44771525,13 6,13 C6.55228475,13 7,12.5522847 7,12 C7,11.4477153 6.55228475,11 6,11 Z M18,5 C17.4477153,5 17,5.44771525 17,6 C17,6.55228475 17.4477153,7 18,7 C18.5522847,7 19,6.55228475 19,6 C19,5.44771525 18.5522847,5 18,5 Z"/>
</svg>
