<svg xmlns="http://www.w3.org/2000/svg" width="24" height="24" viewBox="0 0 24 24">
  <path d="M20,4 C21.1045695,4 22,4.8954305 22,6 L22,6 L22,18 C22,19.1045695 21.1045695,20 20,20 L20,20 L4,20 C2.8954305,20 2,19.1045695 2,18 L2,18 L2,6 C2,4.8954305 2.8954305,4 4,4 L4,4 Z M20,10 L4,10 L4,18 L20,18 L20,10 Z M11,13 C11.5522847,13 12,13.4477153 12,14 C12,14.5128358 11.6139598,14.9355072 11.1166211,14.9932723 L11,15 L7,15 C6.44771525,15 6,14.5522847 6,14 C6,13.4871642 6.38604019,13.0644928 6.88337887,13.0067277 L7,13 L11,13 Z M20,6 L4,6 L4,8 L20,8 L20,6 Z"/>
</svg>
