<svg xmlns="http://www.w3.org/2000/svg" width="24" height="24" viewBox="0 0 24 24">
  <path d="M12,2 C17.5228475,2 22,6.4771525 22,12 C22,17.5228475 17.5228475,22 12,22 C6.4771525,22 2,17.5228475 2,12 C2,6.4771525 6.4771525,2 12,2 Z M13.0009551,4.06201291 L13,6 C13,6.55228475 12.5522847,7 12,7 C11.4871642,7 11.0644928,6.61395981 11.0067277,6.11662113 L11,6 L11.0000487,4.06188768 C7.38129217,4.5131177 4.5131177,7.38129217 4.06188768,11.0000487 L6,11 C6.55228475,11 7,11.4477153 7,12 C7,12.5128358 6.61395981,12.9355072 6.11662113,12.9932723 L6,13 L4.06201291,13.0009551 C4.51364811,16.6192382 7.38162677,19.486924 11.0000487,19.9381123 L11,18 C11,17.4477153 11.4477153,17 12,17 C12.5128358,17 12.9355072,17.3860402 12.9932723,17.8833789 L13,18 L13.0009551,19.9379871 C16.6189036,19.4863937 19.4863937,16.6189036 19.9379871,13.0009551 L18,13 C17.4477153,13 17,12.5522847 17,12 C17,11.4871642 17.3860402,11.0644928 17.8833789,11.0067277 L18,11 L19.9381123,11.0000487 C19.486924,7.38162677 16.6192382,4.51364811 13.0009551,4.06201291 Z M12,9 C13.6568542,9 15,10.3431458 15,12 C15,13.6568542 13.6568542,15 12,15 C10.3431458,15 9,13.6568542 9,12 C9,10.3431458 10.3431458,9 12,9 Z M12,11 C11.4477153,11 11,11.4477153 11,12 C11,12.5522847 11.4477153,13 12,13 C12.5522847,13 13,12.5522847 13,12 C13,11.4477153 12.5522847,11 12,11 Z"/>
</svg>
