<svg xmlns="http://www.w3.org/2000/svg" width="24" height="24" viewBox="0 0 24 24">
  <path d="M9,15 C10.1045695,15 11,15.8954305 11,17 L11,17 L11,19 C11,20.1045695 10.1045695,21 9,21 L9,21 L5,21 C3.8954305,21 3,20.1045695 3,19 L3,19 L3,17 C3,15.8954305 3.8954305,15 5,15 L5,15 Z M19,11 C20.1045695,11 21,11.8954305 21,13 L21,13 L21,19 C21,20.1045695 20.1045695,21 19,21 L19,21 L15,21 C13.8954305,21 13,20.1045695 13,19 L13,19 L13,13 C13,11.8954305 13.8954305,11 15,11 L15,11 Z M9,17 L5,17 L5,19 L9,19 L9,17 Z M19,13 L15,13 L15,19 L19,19 L19,13 Z M9,3 C10.1045695,3 11,3.8954305 11,5 L11,5 L11,11 C11,12.1045695 10.1045695,13 9,13 L9,13 L5,13 C3.8954305,13 3,12.1045695 3,11 L3,11 L3,5 C3,3.8954305 3.8954305,3 5,3 L5,3 Z M9,5 L5,5 L5,11 L9,11 L9,5 Z M19,3 C20.1045695,3 21,3.8954305 21,5 L21,5 L21,7 C21,8.1045695 20.1045695,9 19,9 L19,9 L15,9 C13.8954305,9 13,8.1045695 13,7 L13,7 L13,5 C13,3.8954305 13.8954305,3 15,3 L15,3 Z M19,5 L15,5 L15,7 L19,7 L19,5 Z"/>
</svg>
