<svg xmlns="http://www.w3.org/2000/svg" width="24" height="24" viewBox="0 0 24 24">
  <path d="M14,3 C15.0543618,3 15.9181651,3.81587779 15.9945143,4.85073766 L16,5 L16,6 L20,6 C20.5522847,6 21,6.44771525 21,7 C21,7.51283584 20.6139598,7.93550716 20.1166211,7.99327227 L20,8 L19,8 L19,19 C19,20.0543618 18.1841222,20.9181651 17.1492623,20.9945143 L17,21 L7,21 C5.9456382,21 5.08183488,20.1841222 5.00548574,19.1492623 L5,19 L5,8 L4,8 C3.44771525,8 3,7.55228475 3,7 C3,6.48716416 3.38604019,6.06449284 3.88337887,6.00672773 L4,6 L8,6 L8,5 C8,3.9456382 8.81587779,3.08183488 9.85073766,3.00548574 L10,3 L14,3 Z M17,8 L7,8 L7,19 L17,19 L17,8 Z M10,10 C10.5128358,10 10.9355072,10.3860402 10.9932723,10.8833789 L11,11 L11,16 C11,16.5522847 10.5522847,17 10,17 C9.48716416,17 9.06449284,16.6139598 9.00672773,16.1166211 L9,16 L9,11 C9,10.4477153 9.44771525,10 10,10 Z M14,10 C14.5128358,10 14.9355072,10.3860402 14.9932723,10.8833789 L15,11 L15,16 C15,16.5522847 14.5522847,17 14,17 C13.4871642,17 13.0644928,16.6139598 13.0067277,16.1166211 L13,16 L13,11 C13,10.4477153 13.4477153,10 14,10 Z M14,5 L10,5 L10,6 L14,6 L14,5 Z"/>
</svg>
