<svg xmlns="http://www.w3.org/2000/svg" width="24" height="24" viewBox="0 0 24 24">
  <path d="M19,15 C19.5128358,15 19.9355072,15.3860402 19.9932723,15.8833789 L20,16 L20,19 C20,20.0543618 19.1841222,20.9181651 18.1492623,20.9945143 L18,21 L6,21 C4.9456382,21 4.08183488,20.1841222 4.00548574,19.1492623 L4,19 L4,16 C4,15.4477153 4.44771525,15 5,15 C5.51283584,15 5.93550716,15.3860402 5.99327227,15.8833789 L6,16 L6,19 L18,19 L18,16 C18,15.4477153 18.4477153,15 19,15 Z M12,3 C12.5128358,3 12.9355072,3.38604019 12.9932723,3.88337887 L13,4 L12.999,12.585 L16.2928932,9.29289322 C16.6533772,8.93240926 17.2206082,8.90467972 17.6128994,9.20970461 L17.7071068,9.29289322 C18.0675907,9.65337718 18.0953203,10.2206082 17.7902954,10.6128994 L17.7071068,10.7071068 L12.7071068,15.7071068 C12.6786405,15.7355731 12.6484659,15.7623312 12.6167501,15.787214 L12.7071068,15.7071068 C12.6717127,15.7425008 12.6343256,15.774687 12.5953066,15.8036654 C12.5711307,15.8215099 12.546275,15.8382813 12.5206602,15.8539326 C12.5086131,15.8613931 12.4963944,15.8685012 12.4840621,15.8753288 C12.4642939,15.8862061 12.4438914,15.8966234 12.4230991,15.9063462 C12.4060985,15.914321 12.3887956,15.9218036 12.371336,15.9287745 C12.3515792,15.9366843 12.3317977,15.9438775 12.3117364,15.9504533 C12.2968513,15.9552713 12.2814633,15.9599023 12.265993,15.9641549 C12.2444365,15.9701664 12.2227461,15.9753602 12.2007941,15.9798348 C12.1833753,15.9832978 12.165949,15.9863719 12.1484669,15.9889822 C12.1285247,15.9920328 12.107886,15.9944666 12.087065,15.9962623 C12.0682655,15.9978436 12.0502664,15.9989053 12.0322546,15.9994829 C12.0222108,15.9998183 12.0111266,16 12,16 L11.9667532,15.9994506 C11.949409,15.9988772 11.9320769,15.997855 11.9147758,15.996384 L12,16 C11.9493797,16 11.8996379,15.9962388 11.8510388,15.9889807 C11.834051,15.9863719 11.8166247,15.9832978 11.7992742,15.9797599 C11.7772539,15.9753602 11.7555635,15.9701664 11.7341604,15.964279 C11.7185367,15.9599023 11.7031487,15.9552713 11.6878575,15.9502619 C11.6682023,15.9438775 11.6484208,15.9366843 11.6289415,15.928896 C11.6112044,15.9218036 11.5939015,15.914321 11.5767785,15.9063266 C11.5561086,15.8966234 11.5357061,15.8862061 11.515723,15.8751242 C11.5036056,15.8685012 11.4913869,15.8613931 11.4792912,15.8540045 C11.453725,15.8382813 11.4288693,15.8215099 11.4048407,15.8036865 C11.3987914,15.7992821 11.3929267,15.7948255 11.3871006,15.7902954 C11.3515341,15.7623312 11.3213595,15.7355731 11.2928932,15.7071068 L6.29289322,10.7071068 C5.90236893,10.3165825 5.90236893,9.68341751 6.29289322,9.29289322 C6.65337718,8.93240926 7.22060824,8.90467972 7.61289944,9.20970461 L7.70710678,9.29289322 L10.999,12.585 L11,4 C11,3.44771525 11.4477153,3 12,3 Z"/>
</svg>
