<svg xmlns="http://www.w3.org/2000/svg" width="24" height="24" viewBox="0 0 24 24">
  <path d="M19,3 C20.1045695,3 21,3.8954305 21,5 L21,5 L21,15 C21,16.1045695 20.1045695,17 19,17 L19,17 L17,17 L17,19 C17,20.0543618 16.1841222,20.9181651 15.1492623,20.9945143 L15,21 L5,21 C3.9456382,21 3.08183488,20.1841222 3.00548574,19.1492623 L3,19 L3,9 C3,7.9456382 3.81587779,7.08183488 4.85073766,7.00548574 L5,7 L7,7 L7,5 C7,3.9456382 7.81587779,3.08183488 8.85073766,3.00548574 L9,3 Z M7,9 L5,9 L5,19 L15,19 L15,17 L9,17 C7.9456382,17 7.08183488,16.1841222 7.00548574,15.1492623 L7,15 L7,9 Z M19,5 L9,5 L9,15 L19,15 L19,5 Z"/>
</svg>
