<svg xmlns="http://www.w3.org/2000/svg" width="24" height="24" viewBox="0 0 24 24">
  <path d="M12,2 C12.5128358,2 12.9355072,2.38604019 12.9932723,2.88337887 L13,3 L12.9998796,4.53519846 C13.5882535,4.19481516 14.271376,4 15,4 L15,4 L17,4 C17.5522847,4 18,4.44771525 18,5 L18,5 L18,6 C18,8.209139 16.209139,10 14,10 L14,10 L13,10 L12.9998057,12.9997798 C13.7815513,12.4125286 14.741033,12.0490951 15.7831104,12.0046195 L16,12 L19,12 C19.5522847,12 20,12.4477153 20,13 L20,13 L20,14 C20,16.7614237 17.7614237,19 15,19 L15,19 L13,19 L13,21 C13,21.5522847 12.5522847,22 12,22 C11.4871642,22 11.0644928,21.6139598 11.0067277,21.1166211 L11,21 L11,15 L9,15 C6.3112453,15 4.11818189,12.8776933 4.00461951,10.2168896 L4,10 L4,9 C4,8.44771525 4.44771525,8 5,8 L5,8 L8,8 C9.12614453,8 10.1653335,8.37230087 11.0011995,9.00053506 L11,3 C11,2.44771525 11.4477153,2 12,2 Z M18,14 L16,14 C14.3431458,14 13,15.3431458 13,17 L13,17 L15,17 C16.5976809,17 17.9036609,15.75108 17.9949073,14.1762728 L17.9949073,14.1762728 L18,14 Z M8,10 L6,10 L6.00509269,10.1762728 C6.09633912,11.75108 7.40231912,13 9,13 L9,13 L11,13 L10.9949073,12.8237272 C10.9070404,11.3072462 9.69275384,10.0929596 8.17627279,10.0050927 L8.17627279,10.0050927 L8,10 Z M16,6 L15,6 C13.8954305,6 13,6.8954305 13,8 L13,8 L14,8 C15.0543618,8 15.9181651,7.18412221 15.9945143,6.14926234 L15.9945143,6.14926234 L16,6 Z"/>
</svg>
