<svg xmlns="http://www.w3.org/2000/svg" width="24" height="24" viewBox="0 0 24 24">
  <path d="M15.5857864,4 C16.366835,3.21895142 17.633165,3.21895142 18.4142136,4 L18.4142136,4 L20,5.58578644 C20.7810486,6.36683502 20.7810486,7.63316498 20,8.41421356 L20,8.41421356 L17.7137795,10.7003718 C17.7115681,10.7026247 17.7093438,10.7048697 17.7071068,10.7071068 L17.7,10.7122136 L7.70710678,20.7071068 C7.55082647,20.8633871 7.34814508,20.9625983 7.13144398,20.9913276 L7,21 L4,21 C3.44771525,21 3,20.5522847 3,20 L3,20 L3,17 C3,16.7347835 3.10535684,16.4804296 3.29289322,16.2928932 L3.29289322,16.2928932 Z M13.999,8.41321356 L5,17.414 L5,19 L6.584,19 L15.585,9.99921356 L13.999,8.41321356 Z M17,5.41421356 L15.414,6.99921356 L16.999,8.58421356 L18.5857864,7 L17,5.41421356 Z"/>
</svg>
