<svg xmlns="http://www.w3.org/2000/svg" width="24" height="24" viewBox="0 0 24 24">
  <path d="M20,19 C20.5522847,19 21,19.4477153 21,20 C21,20.5128358 20.6139598,20.9355072 20.1166211,20.9932723 L20,21 L4,21 C3.44771525,21 3,20.5522847 3,20 C3,19.4871642 3.38604019,19.0644928 3.88337887,19.0067277 L4,19 L20,19 Z M13.5857864,4 C14.366835,3.21895142 15.633165,3.21895142 16.4142136,4 L16.4142136,4 L18,5.58578644 C18.7810486,6.36683502 18.7810486,7.63316498 18,8.41421356 L18,8.41421356 L9.70710678,16.7071068 C9.5195704,16.8946432 9.26521649,17 9,17 L9,17 L6,17 C5.44771525,17 5,16.5522847 5,16 L5,16 L5,13 C5,12.7347835 5.10535684,12.4804296 5.29289322,12.2928932 L5.29289322,12.2928932 Z M15,5.41421356 L7,13.414 L7,15 L8.584,15 L16.5857864,7 L15,5.41421356 Z"/>
</svg>
