<svg xmlns="http://www.w3.org/2000/svg" width="24" height="24" viewBox="0 0 24 24">
  <path d="M8,10 C8.55228475,10 9,10.4477153 9,11 C9,11.5128358 8.61395981,11.9355072 8.11662113,11.9932723 L8,12 L5,12 L5,18 L19,18 L19,12 L16,12 C15.4477153,12 15,11.5522847 15,11 C15,10.4871642 15.3860402,10.0644928 15.8833789,10.0067277 L16,10 L19,10 C20.0543618,10 20.9181651,10.8158778 20.9945143,11.8507377 L21,12 L21,18 C21,19.0543618 20.1841222,19.9181651 19.1492623,19.9945143 L19,20 L5,20 C3.9456382,20 3.08183488,19.1841222 3.00548574,18.1492623 L3,18 L3,12 C3,10.9456382 3.81587779,10.0818349 4.85073766,10.0054857 L5,10 L8,10 Z M12,2 L12.0193545,2.00018615 C12.042681,2.00063489 12.0659949,2.00189498 12.0892501,2.00396641 L12,2 C12.0506203,2 12.1003621,2.00376119 12.1489612,2.01101934 C12.165949,2.01362808 12.1833753,2.01670217 12.2007258,2.02024007 C12.2227461,2.0246398 12.2444365,2.02983363 12.2658396,2.03572097 C12.2814633,2.04009773 12.2968513,2.04472872 12.3121425,2.04973809 C12.3317977,2.05612249 12.3515792,2.06331574 12.3710585,2.07110396 C12.3887956,2.07819642 12.4060985,2.08567905 12.4232215,2.09367336 C12.4438914,2.10337664 12.4642939,2.11379392 12.484277,2.12487577 C12.4963944,2.13149883 12.5086131,2.13860692 12.5207088,2.14599545 C12.546275,2.1617187 12.5711307,2.17849009 12.5951593,2.19631351 C12.6012086,2.20071786 12.6070733,2.20517454 12.6128994,2.20970461 C12.6196628,2.21507113 12.6225624,2.2173721 12.625449,2.21968877 L12.7071068,2.29289322 L16.7071068,6.29289322 C17.0976311,6.68341751 17.0976311,7.31658249 16.7071068,7.70710678 C16.3466228,8.06759074 15.7793918,8.09532028 15.3871006,7.79029539 L15.2928932,7.70710678 L13,5.415 L13,15 C13,15.5522847 12.5522847,16 12,16 C11.4871642,16 11.0644928,15.6139598 11.0067277,15.1166211 L11,15 L11,5.415 L8.70710678,7.70710678 C8.34662282,8.06759074 7.77939176,8.09532028 7.38710056,7.79029539 L7.29289322,7.70710678 C6.93240926,7.34662282 6.90467972,6.77939176 7.20970461,6.38710056 L7.29289322,6.29289322 L11.2928932,2.29289322 L11.374551,2.21968877 C11.3774376,2.2173721 11.3803372,2.21507113 11.3832499,2.21278596 L11.2928932,2.29289322 C11.3282873,2.25749917 11.3656744,2.22531295 11.4046934,2.19633458 C11.4288693,2.17849009 11.453725,2.1617187 11.4793398,2.14606743 C11.4913869,2.13860692 11.5036056,2.13149883 11.5159379,2.12467117 C11.5357061,2.11379392 11.5561086,2.10337664 11.5769009,2.09365378 C11.5939015,2.08567905 11.6112044,2.07819642 11.628664,2.07122549 C11.6484208,2.06331574 11.6682023,2.05612249 11.6882636,2.04954668 C11.7031487,2.04472872 11.7185367,2.04009773 11.734007,2.03584514 C11.7555635,2.02983363 11.7772539,2.0246398 11.7992059,2.02016515 C11.8166247,2.01670217 11.834051,2.01362808 11.8515331,2.0110178 C11.8705042,2.00811223 11.890153,2.00576612 11.909968,2.00399798 C11.9343349,2.0018656 11.9579802,2.00059932 11.9816379,2.00016755 C11.9872016,2.00006024 11.9935938,2 12,2 Z"/>
</svg>
