<svg xmlns="http://www.w3.org/2000/svg" width="24" height="24" viewBox="0 0 24 24">
  <path d="M10,4 C10.2210137,4 10.434484,4.07316447 10.6080295,4.20608063 L10.7071068,4.29289322 L12.415,6 L20,6 C21.0543618,6 21.9181651,6.81587779 21.9945143,7.85073766 L22,8 L22,10 L22.3596118,10 C23.1880389,10 23.8596118,10.6715729 23.8596118,11.5 C23.8596118,11.6226427 23.8445708,11.7448225 23.8148255,11.8638034 L23.8148255,11.8638034 L22.1595086,18.4850713 C21.9369251,19.3754053 21.1369589,20 20.2192236,20 L20.2192236,20 L3.78077641,20 C2.86304112,20 2.06307491,19.3754053 1.84049141,18.4850713 L1.84049141,18.4850713 L0.185174453,11.8638034 C-0.0157486375,11.0601111 0.472892404,10.2457093 1.27658477,10.0447862 C1.39556567,10.015041 1.51774549,10 1.6403882,10 L1.6403882,10 L1.99903337,10 L2,6 C2,4.9456382 2.81587779,4.08183488 3.85073766,4.00548574 L4,4 L10,4 Z M21.719,12 L2.28,12 L3.78077641,18 L20.2192236,18 L21.719,12 Z M9.585,6 L4,6 L3.99903337,10 L20,10 L20,8 L12,8 C11.7789863,8 11.565516,7.92683553 11.3919705,7.79391937 L11.2928932,7.70710678 L9.585,6 Z"/>
</svg>
