<svg xmlns="http://www.w3.org/2000/svg" width="24" height="24" viewBox="0 0 24 24">
  <path d="M4,4 L3.89084512,4.00557168 C3.10749006,4.08647256 2.70891185,5.03032124 3.2407434,5.65079137 L9,12.37 L9,19 C9,19.743382 9.7823125,20.2268777 10.4472136,19.8944272 L14.4472136,17.8944272 L14.5553977,17.8316104 C14.8309117,17.6476865 15,17.3366863 15,17 L15,12.369 L20.7592566,5.65079137 C21.3152623,5.00211805 20.8543532,4 20,4 L4,4 Z M17.825,6 L13.2407434,11.3492086 L13.1560512,11.463572 C13.054651,11.6231015 13,11.809031 13,12 L13,16.381 L11,17.381 L11,12 L10.9898764,11.8580519 C10.9630448,11.6709377 10.8835376,11.4942031 10.7592566,11.3492086 L6.174,6 L17.825,6 Z"/>
</svg>
