<svg xmlns="http://www.w3.org/2000/svg" width="24" height="24" viewBox="0 0 24 24">
  <path d="M12,2 C17.5228475,2 22,6.4771525 22,12 C22,17.5228475 17.5228475,22 12,22 L12,22 L11.7200952,21.9961582 C6.32667079,21.8479317 2,17.4292399 2,12 C2,6.4771525 6.4771525,2 12,2 Z M14.5564074,16.0008211 L9.44359258,16.0008211 C10.0105644,18.4070089 11.0345862,20 12,20 L12,20 L12.0980377,19.9945744 C13.0340904,19.8914252 14.0085922,18.3257098 14.5564074,16.0008211 Z M7.38875596,16.0005945 L5.07092854,16.0011597 C5.85643379,17.358539 7.02934514,18.463704 8.4384554,19.1654475 C7.98973774,18.2665573 7.63409302,17.1924239 7.38875596,16.0005945 Z M18.9290715,16.0011597 L16.611244,16.0005945 C16.365907,17.1924239 16.0102623,18.2665573 15.5610206,19.1655183 C16.9706549,18.463704 18.1435662,17.358539 18.9290715,16.0011597 Z M7.09266912,10.0002903 L4.25186923,10.000644 C4.08744724,10.63969 4,11.3096328 4,12 C4,12.6907281 4.08753869,13.3610104 4.25212715,14.0003581 L7.09276348,14.0007093 C7.03160836,13.353009 7,12.6837423 7,12 C7,11.3166094 7.03157585,10.6476795 7.09266912,10.0002903 Z M14.8939839,9.99998989 L9.10601606,9.99998989 C9.03742792,10.6374133 9,11.3072427 9,12 C9,12.6931183 9.03746694,13.3632848 9.10612331,14.0010066 L14.8938767,14.0010066 C14.9625331,13.3632848 15,12.6931183 15,12 C15,11.3072427 14.9625721,10.6374133 14.8939839,9.99998989 Z M19.7481308,10.000644 L16.9073309,10.0002903 C16.9684241,10.6476795 17,11.3166094 17,12 C17,12.6837423 16.9683916,13.353009 16.9072365,14.0007093 L19.7478729,14.0003581 C19.9124613,13.3610104 20,12.6907281 20,12 C20,11.3096328 19.9125528,10.63969 19.7481308,10.000644 Z M8.43897939,4.83448175 L8.30278764,4.90374076 C6.95370963,5.60806187 5.83051679,6.68580862 5.07035011,7.99984002 L7.38855069,8.00040285 C7.63389463,6.80817529 7.98961243,5.73369343 8.43897939,4.83448175 Z M12,4 L11.9019623,4.00542559 C10.9657749,4.10858969 9.99112733,5.67474089 9.4433561,8.00018262 L14.5566439,8.00018262 C13.9897204,5.59343408 12.965548,4 12,4 L12,4 Z M15.5615446,4.83455246 L15.5685958,4.84967465 C16.0143864,5.74578674 16.3674856,6.81488249 16.6114493,8.00040285 L18.9296499,7.99984002 C18.1441421,6.64200369 16.9710008,5.53646831 15.5615446,4.83455246 Z"/>
</svg>
