<svg xmlns="http://www.w3.org/2000/svg" width="24" height="24" viewBox="0 0 24 24">
  <path d="M18.363961,5.63603897 C21.8786797,9.15075759 21.8786797,14.8492424 18.363961,18.363961 C14.9181585,21.8097636 9.373388,21.8773284 5.84527296,18.5666553 L5.63603897,18.363961 L5.56633276,18.2865856 L5,17.588 L5,19 C5,19.5128358 4.61395981,19.9355072 4.11662113,19.9932723 L4,20 C3.48716416,20 3.06449284,19.6139598 3.00672773,19.1166211 L3,19 L3,15 C3,14.4871642 3.38604019,14.0644928 3.88337887,14.0067277 L4,14 L8,14 C8.55228475,14 9,14.4477153 9,15 C9,15.5128358 8.61395981,15.9355072 8.11662113,15.9932723 L8,16 L6.286,15.999 L7.076,16.974 L7.2392312,17.131898 C9.92066322,19.6227007 14.0793368,19.6227007 16.7607688,17.131898 L16.9497475,16.9497475 C19.6834175,14.2160774 19.6834175,9.78392257 16.9497475,7.05025253 C14.2160774,4.31658249 9.78392257,4.31658249 7.05025253,7.05025253 C6.65972824,7.44077682 6.02656326,7.44077682 5.63603897,7.05025253 C5.24551468,6.65972824 5.24551468,6.02656326 5.63603897,5.63603897 C9.15075759,2.12132034 14.8492424,2.12132034 18.363961,5.63603897 Z M12,7 C12.5128358,7 12.9355072,7.38604019 12.9932723,7.88337887 L13,8 L13,11.585 L14.7071068,13.2928932 C15.0675907,13.6533772 15.0953203,14.2206082 14.7902954,14.6128994 L14.7071068,14.7071068 C14.3466228,15.0675907 13.7793918,15.0953203 13.3871006,14.7902954 L13.2928932,14.7071068 L11.2928932,12.7071068 C11.1366129,12.5508265 11.0374017,12.3481451 11.0086724,12.131444 L11,12 L11,8 C11,7.44771525 11.4477153,7 12,7 Z"/>
</svg>
