<svg xmlns="http://www.w3.org/2000/svg" width="24" height="24" viewBox="0 0 24 24">
  <path d="M12.5015601,3.13481458 L12.6139406,3.21064778 L21.6139406,10.2106478 C22.0498878,10.5497178 22.1284223,11.1779934 21.7893522,11.6139406 C21.4763645,12.0163534 20.9169531,12.1142252 20.4898575,11.8602134 L20.3860594,11.7893522 L19.999954,11.489 L20,19.5 C20,20.2796961 19.4051119,20.9204487 18.64446,20.9931334 L18.5,21 L14.5,21 C13.7203039,21 13.0795513,20.4051119 13.0068666,19.64446 L13,19.5 L13,15 L11,15 L11,19.5 C11,20.2796961 10.4051119,20.9204487 9.64446001,20.9931334 L9.5,21 L5.5,21 C4.72030388,21 4.07955132,20.4051119 4.00686658,19.64446 L4,19.5 L3.99995403,11.488 L3.61394061,11.7893522 C3.21152782,12.1023399 2.64523757,12.059499 2.29380936,11.7081718 L2.21064778,11.6139406 C1.89766006,11.2115278 1.940501,10.6452376 2.29182819,10.2938094 L2.38605939,10.2106478 L11.3860594,3.21064778 C11.7110588,2.95787044 12.1531436,2.93259271 12.5015601,3.13481458 Z M12,5.266 L5.99595403,9.935 L6,10 L6,19 L9,19 L9,14 C9,13.4871642 9.38604019,13.0644928 9.88337887,13.0067277 L10,13 L14,13 C14.5128358,13 14.9355072,13.3860402 14.9932723,13.8833789 L15,14 L15,19 L18,19 L18,10 L18.002954,9.935 L12,5.266 Z"/>
</svg>
