<svg xmlns="http://www.w3.org/2000/svg" width="24" height="24" viewBox="0 0 24 24">
  <path d="M19,3 C20.1045695,3 21,3.8954305 21,5 L21,5 L21,19 C21,20.1045695 20.1045695,21 19,21 L19,21 L5,21 C3.8954305,21 3,20.1045695 3,19 L3,19 L3,5 C3,3.8954305 3.8954305,3 5,3 L5,3 Z M19,5 L5,5 L5,19 L6.584,19 L15.2928932,10.2928932 C15.6533772,9.93240926 16.2206082,9.90467972 16.6128994,10.2097046 L16.7071068,10.2928932 L19,12.585 L19,5 Z M16,12.415 L9.414,19 L19,19 L19,15.415 L16,12.415 Z M9,6 C10.6568542,6 12,7.34314575 12,9 C12,10.6568542 10.6568542,12 9,12 C7.34314575,12 6,10.6568542 6,9 C6,7.34314575 7.34314575,6 9,6 Z M9,8 C8.44771525,8 8,8.44771525 8,9 C8,9.55228475 8.44771525,10 9,10 C9.55228475,10 10,9.55228475 10,9 C10,8.44771525 9.55228475,8 9,8 Z"/>
</svg>
