<svg xmlns="http://www.w3.org/2000/svg" width="24" height="24" viewBox="0 0 24 24">
  <path d="M8,5 C8.55228475,5 9,5.44771525 9,6 C9,6.51283584 8.61395981,6.93550716 8.11662113,6.99327227 L8,7 L5,7 L5,19 L19,19 L19,7 L16,7 C15.4477153,7 15,6.55228475 15,6 C15,5.48716416 15.3860402,5.06449284 15.8833789,5.00672773 L16,5 L19,5 C20.0543618,5 20.9181651,5.81587779 20.9945143,6.85073766 L21,7 L21,19 C21,20.0543618 20.1841222,20.9181651 19.1492623,20.9945143 L19,21 L5,21 C3.9456382,21 3.08183488,20.1841222 3.00548574,19.1492623 L3,19 L3,7 C3,5.9456382 3.81587779,5.08183488 4.85073766,5.00548574 L5,5 L8,5 Z M12,3 C12.5128358,3 12.9355072,3.38604019 12.9932723,3.88337887 L13,4 L13,13.585 L15.2928932,11.2928932 C15.6533772,10.9324093 16.2206082,10.9046797 16.6128994,11.2097046 L16.7071068,11.2928932 C17.0675907,11.6533772 17.0953203,12.2206082 16.7902954,12.6128994 L16.7071068,12.7071068 L12.7071068,16.7071068 C12.6786405,16.7355731 12.6484659,16.7623312 12.6167501,16.787214 L12.7071068,16.7071068 C12.6717127,16.7425008 12.6343256,16.774687 12.5953066,16.8036654 C12.5711307,16.8215099 12.546275,16.8382813 12.5206602,16.8539326 C12.5086131,16.8613931 12.4963944,16.8685012 12.4840621,16.8753288 C12.4642939,16.8862061 12.4438914,16.8966234 12.4230991,16.9063462 C12.4060985,16.914321 12.3887956,16.9218036 12.371336,16.9287745 C12.3515792,16.9366843 12.3317977,16.9438775 12.3117364,16.9504533 C12.2968513,16.9552713 12.2814633,16.9599023 12.265993,16.9641549 C12.2444365,16.9701664 12.2227461,16.9753602 12.2007941,16.9798348 C12.1833753,16.9832978 12.165949,16.9863719 12.1484669,16.9889822 C12.1281144,16.9920941 12.1070574,16.994564 12.085811,16.9963697 C12.0679231,16.997855 12.050591,16.9988772 12.0332468,16.9994506 C12.0224019,16.9998151 12.0112225,17 12,17 L11.9677454,16.9994829 C11.9497336,16.9989053 11.9317345,16.9978436 11.9137692,16.9962979 L12,17 C11.9493797,17 11.8996379,16.9962388 11.8510388,16.9889807 C11.834051,16.9863719 11.8166247,16.9832978 11.7992742,16.9797599 C11.7772539,16.9753602 11.7555635,16.9701664 11.7341604,16.964279 C11.7185367,16.9599023 11.7031487,16.9552713 11.6878575,16.9502619 C11.6682023,16.9438775 11.6484208,16.9366843 11.6289415,16.928896 C11.6112044,16.9218036 11.5939015,16.914321 11.5767785,16.9063266 C11.5561086,16.8966234 11.5357061,16.8862061 11.515723,16.8751242 C11.5036056,16.8685012 11.4913869,16.8613931 11.4792912,16.8540045 C11.453725,16.8382813 11.4288693,16.8215099 11.4048407,16.8036865 C11.3987914,16.7992821 11.3929267,16.7948255 11.3871006,16.7902954 C11.3515341,16.7623312 11.3213595,16.7355731 11.2928932,16.7071068 L7.29289322,12.7071068 C6.90236893,12.3165825 6.90236893,11.6834175 7.29289322,11.2928932 C7.65337718,10.9324093 8.22060824,10.9046797 8.61289944,11.2097046 L8.70710678,11.2928932 L11,13.585 L11,4 C11,3.44771525 11.4477153,3 12,3 Z"/>
</svg>
