<svg xmlns="http://www.w3.org/2000/svg" width="24" height="24" viewBox="0 0 24 24">
  <path d="M3.38043045,14.0750876 L3.48564293,14.1258427 L12,18.8560411 L20.5143571,14.1258427 C20.9971408,13.8576295 21.6059441,14.0315733 21.8741573,14.5143571 C22.1232124,14.9626562 21.9910199,15.5196151 21.5843209,15.81164 L21.4856429,15.8741573 L12.9712859,20.6043556 C12.4175779,20.9119712 11.754267,20.9376058 11.1822919,20.6812595 L11.0287141,20.6043556 L2.51435707,15.8741573 C2.03157334,15.6059441 1.85762954,14.9971408 2.12584272,14.5143571 C2.37489782,14.0660579 2.917625,13.8840544 3.38043045,14.0750876 Z M11.0287141,4.39564435 C11.6327592,4.06006376 12.3672408,4.06006376 12.9712859,4.39564435 L12.9712859,4.39564435 L21.4856429,9.12584272 C22.1714524,9.50684796 22.1714524,10.493152 21.4856429,10.8741573 L21.4856429,10.8741573 L12.9712859,15.6043556 C12.3672408,15.9399362 11.6327592,15.9399362 11.0287141,15.6043556 L11.0287141,15.6043556 L2.51435707,10.8741573 C1.82854764,10.493152 1.82854764,9.50684796 2.51435707,9.12584272 L2.51435707,9.12584272 Z M12,6.1439589 L5.059,10 L12,13.8560411 L18.94,10 L12,6.1439589 Z"/>
</svg>
