<svg xmlns="http://www.w3.org/2000/svg" width="24" height="24" viewBox="0 0 24 24">
  <path d="M10,7 C10.5522847,7 11,7.44771525 11,8 C11,8.51283584 10.6139598,8.93550716 10.1166211,8.99327227 L10,9 L8,9 C6.34314575,9 5,10.3431458 5,12 C5,13.5976809 6.24891996,14.9036609 7.82372721,14.9949073 L8,15 L10,15 C10.5522847,15 11,15.4477153 11,16 C11,16.5128358 10.6139598,16.9355072 10.1166211,16.9932723 L10,17 L8,17 C5.23857625,17 3,14.7614237 3,12 C3,9.3112453 5.12230671,7.11818189 7.78311038,7.00461951 L8,7 L10,7 Z M16,7 C18.7614237,7 21,9.23857625 21,12 C21,14.6887547 18.8776933,16.8818181 16.2168896,16.9953805 L16,17 L14,17 C13.4477153,17 13,16.5522847 13,16 C13,15.4871642 13.3860402,15.0644928 13.8833789,15.0067277 L14,15 L16,15 C17.6568542,15 19,13.6568542 19,12 C19,10.4023191 17.75108,9.09633912 16.1762728,9.00509269 L16,9 L14,9 C13.4477153,9 13,8.55228475 13,8 C13,7.48716416 13.3860402,7.06449284 13.8833789,7.00672773 L14,7 L16,7 Z M15,11 C15.5522847,11 16,11.4477153 16,12 C16,12.5128358 15.6139598,12.9355072 15.1166211,12.9932723 L15,13 L9,13 C8.44771525,13 8,12.5522847 8,12 C8,11.4871642 8.38604019,11.0644928 8.88337887,11.0067277 L9,11 L15,11 Z"/>
</svg>
