<svg xmlns="http://www.w3.org/2000/svg" width="24" height="24" viewBox="0 0 24 24">
  <path d="M5,16 C6.1045695,16 7,16.8954305 7,18 C7,19.1045695 6.1045695,20 5,20 C3.8954305,20 3,19.1045695 3,18 C3,16.8954305 3.8954305,16 5,16 Z M20,17 C20.5522847,17 21,17.4477153 21,18 C21,18.5128358 20.6139598,18.9355072 20.1166211,18.9932723 L20,19 L10,19 C9.44771525,19 9,18.5522847 9,18 C9,17.4871642 9.38604019,17.0644928 9.88337887,17.0067277 L10,17 L20,17 Z M5,10 C6.1045695,10 7,10.8954305 7,12 C7,13.1045695 6.1045695,14 5,14 C3.8954305,14 3,13.1045695 3,12 C3,10.8954305 3.8954305,10 5,10 Z M20,11 C20.5522847,11 21,11.4477153 21,12 C21,12.5128358 20.6139598,12.9355072 20.1166211,12.9932723 L20,13 L10,13 C9.44771525,13 9,12.5522847 9,12 C9,11.4871642 9.38604019,11.0644928 9.88337887,11.0067277 L10,11 L20,11 Z M5,4 C6.1045695,4 7,4.8954305 7,6 C7,7.1045695 6.1045695,8 5,8 C3.8954305,8 3,7.1045695 3,6 C3,4.8954305 3.8954305,4 5,4 Z M20,5 C20.5522847,5 21,5.44771525 21,6 C21,6.51283584 20.6139598,6.93550716 20.1166211,6.99327227 L20,7 L10,7 C9.44771525,7 9,6.55228475 9,6 C9,5.48716416 9.38604019,5.06449284 9.88337887,5.00672773 L10,5 L20,5 Z"/>
</svg>
