<svg xmlns="http://www.w3.org/2000/svg" width="24" height="24" viewBox="0 0 24 24">
  <path d="M12,2 C14.3577963,2 16.4773598,3.01999575 17.9415059,4.64280257 L19.2928932,3.29289322 C19.6834175,2.90236893 20.3165825,2.90236893 20.7071068,3.29289322 C21.0675907,3.65337718 21.0953203,4.22060824 20.7902954,4.61289944 L20.7071068,4.70710678 L19.1019483,6.3137052 C19.6757215,7.41687489 20,8.67056779 20,10 C20,14.0239755 17.5028331,17.948095 12.6178216,21.7863183 C12.2552102,22.0712272 11.7447898,22.0712272 11.3821784,21.7863183 C9.79873207,20.5421819 8.46617469,19.2890204 7.38822953,18.0263585 L5.70710678,19.7071068 C5.31658249,20.0976311 4.68341751,20.0976311 4.29289322,19.7071068 C3.93240926,19.3466228 3.90467972,18.7793918 4.20970461,18.3871006 L4.29289322,18.2928932 L6.16024244,16.4232837 C4.72579078,14.3097536 4,12.1693882 4,10 C4,5.581722 7.581722,2 12,2 Z M17.5928023,7.82286873 L8.80604557,16.6072681 C9.6496663,17.6130647 10.6855453,18.6266463 11.9164299,19.6476622 L11.9164299,19.6476622 L12,19.715 L12.4293358,19.3566684 C16.0611562,16.2548913 17.8906761,13.2222245 17.9952436,10.2685449 L17.9952436,10.2685449 L18,10 C18,9.23205034 17.8557253,8.49779783 17.5928023,7.82286873 Z M12,4 C8.6862915,4 6,6.6862915 6,10 C6,11.6359124 6.53014201,13.2962257 7.60363163,14.9792537 L16.5247737,6.05950853 C15.4248217,4.79752039 13.8055463,4 12,4 Z"/>
</svg>
