<svg xmlns="http://www.w3.org/2000/svg" width="24" height="24" viewBox="0 0 24 24">
  <path d="M12,2 C16.418278,2 20,5.581722 20,10 C20,14.0239755 17.5028331,17.948095 12.6178216,21.7863183 C12.2552102,22.0712272 11.7447898,22.0712272 11.3821784,21.7863183 C6.49716692,17.948095 4,14.0239755 4,10 C4,5.581722 7.581722,2 12,2 Z M12,4 C8.6862915,4 6,6.6862915 6,10 C6,13.1304736 7.94129817,16.3502998 11.9164299,19.6476622 L11.9164299,19.6476622 L12,19.715 L12.4293358,19.3566684 C16.0611562,16.2548913 17.8906761,13.2222245 17.9952436,10.2685449 L17.9952436,10.2685449 L18,10 C18,6.6862915 15.3137085,4 12,4 Z M12,6 C14.209139,6 16,7.790861 16,10 C16,12.209139 14.209139,14 12,14 C9.790861,14 8,12.209139 8,10 C8,7.790861 9.790861,6 12,6 Z M12,8 C10.8954305,8 10,8.8954305 10,10 C10,11.1045695 10.8954305,12 12,12 C13.1045695,12 14,11.1045695 14,10 C14,8.8954305 13.1045695,8 12,8 Z"/>
</svg>
