<svg xmlns="http://www.w3.org/2000/svg" width="24" height="24" viewBox="0 0 24 24">
  <path d="M16,3 C16.0450346,3 16.0893739,3.00297693 16.1328318,3.00874473 C16.1487875,3.01099134 16.1651975,3.01359956 16.1815358,3.01661543 C16.2072377,3.0211618 16.2321808,3.02675881 16.2567529,3.03326779 C16.3044446,3.0461769 16.3515151,3.06248285 16.3973215,3.08231626 L16.2968723,3.04480355 C16.3244978,3.05338008 16.3516103,3.06312205 16.3781524,3.07397198 L16.3973215,3.08231626 L16.4122189,3.08864556 C16.4416536,3.10198035 16.4703276,3.11669923 16.4981578,3.13271915 L16.5144958,3.14250707 L21.5144958,6.14250707 C21.8157012,6.32323032 22,6.64873715 22,7 L22,7 L22,20 C22,20.7074646 21.2854737,21.1912224 20.6286093,20.9284767 L20.6286093,20.9284767 L15.929,19.048 L8.24253563,20.9701425 C8.24022654,20.9707198 8.23791625,20.9712886 8.23560479,20.971849 C8.15992458,20.9903483 8.08108943,21 8,21 L7.98245172,20.9998485 C7.97042166,20.999637 7.95840215,20.9992085 7.94639908,20.9985639 L8,21 C7.9549654,21 7.9106261,20.9970231 7.86716815,20.9912553 C7.85121247,20.9890087 7.83480246,20.9864004 7.81846424,20.9833846 C7.79276226,20.9788382 7.76781916,20.9732412 7.74324709,20.9667322 C7.69555537,20.9538231 7.64848493,20.9375172 7.60267846,20.9176837 L7.70312768,20.9551964 C7.67550218,20.9466199 7.64838966,20.9368779 7.62184761,20.926028 L7.60267846,20.9176837 L7.58778107,20.9113544 C7.55834639,20.8980196 7.52967243,20.8833008 7.50184222,20.8672809 L7.48550424,20.8574929 L2.48550424,17.8574929 C2.18429883,17.6767697 2,17.3512629 2,17 L2,17 L2,4 C2,3.2925354 2.71452628,2.80877755 3.37139068,3.07152331 L3.37139068,3.07152331 L8.07,4.951 L15.7574644,3.0298575 C15.7597735,3.02928023 15.7620837,3.0287114 15.7643952,3.02815101 C15.8400754,3.00965171 15.9189106,3 16,3 Z M15,5.27901382 L9,6.78001382 L9,18.7170138 L15,17.2180138 L15,5.27901382 Z M17,5.76501382 L17,17.3220138 L20,18.523 L20,7.566 L17,5.76501382 Z M4,5.477 L4,16.434 L7,18.2340138 L7,6.67701382 L4,5.477 Z"/>
</svg>
