<svg xmlns="http://www.w3.org/2000/svg" width="24" height="24" viewBox="0 0 24 24">
  <path d="M5,14 C5.51283584,14 5.93550716,14.3860402 5.99327227,14.8833789 L6,15 L6,18 L9,18 C9.55228475,18 10,18.4477153 10,19 C10,19.5128358 9.61395981,19.9355072 9.11662113,19.9932723 L9,20 L6,20 C4.9456382,20 4.08183488,19.1841222 4.00548574,18.1492623 L4,18 L4,15 C4,14.4477153 4.44771525,14 5,14 Z M19,14 C19.5128358,14 19.9355072,14.3860402 19.9932723,14.8833789 L20,15 L20,18 C20,19.0543618 19.1841222,19.9181651 18.1492623,19.9945143 L18,20 L15,20 C14.4477153,20 14,19.5522847 14,19 C14,18.4871642 14.3860402,18.0644928 14.8833789,18.0067277 L15,18 L18,18 L18,15 C18,14.4477153 18.4477153,14 19,14 Z M9,4 C9.55228475,4 10,4.44771525 10,5 C10,5.51283584 9.61395981,5.93550716 9.11662113,5.99327227 L9,6 L6,6 L6,9 C6,9.55228475 5.55228475,10 5,10 C4.48716416,10 4.06449284,9.61395981 4.00672773,9.11662113 L4,9 L4,6 C4,4.9456382 4.81587779,4.08183488 5.85073766,4.00548574 L6,4 L9,4 Z M18,4 C19.0543618,4 19.9181651,4.81587779 19.9945143,5.85073766 L20,6 L20,9 C20,9.55228475 19.5522847,10 19,10 C18.4871642,10 18.0644928,9.61395981 18.0067277,9.11662113 L18,9 L18,6 L15,6 C14.4477153,6 14,5.55228475 14,5 C14,4.48716416 14.3860402,4.06449284 14.8833789,4.00672773 L15,4 L18,4 Z"/>
</svg>
