<svg xmlns="http://www.w3.org/2000/svg" width="24" height="24" viewBox="0 0 24 24">
  <path d="M13,17 C13.5522847,17 14,17.4477153 14,18 C14,18.5128358 13.6139598,18.9355072 13.1166211,18.9932723 L13,19 L3,19 C2.44771525,19 2,18.5522847 2,18 C2,17.4871642 2.38604019,17.0644928 2.88337887,17.0067277 L3,17 L13,17 Z M21,11 C21.5522847,11 22,11.4477153 22,12 C22,12.5128358 21.6139598,12.9355072 21.1166211,12.9932723 L21,13 L3,13 C2.44771525,13 2,12.5522847 2,12 C2,11.4871642 2.38604019,11.0644928 2.88337887,11.0067277 L3,11 L21,11 Z M13,5 C13.5522847,5 14,5.44771525 14,6 C14,6.51283584 13.6139598,6.93550716 13.1166211,6.99327227 L13,7 L3,7 C2.44771525,7 2,6.55228475 2,6 C2,5.48716416 2.38604019,5.06449284 2.88337887,5.00672773 L3,5 L13,5 Z"/>
</svg>
