<svg xmlns="http://www.w3.org/2000/svg" width="24" height="24" viewBox="0 0 24 24">
  <path d="M12,3 L12.0193545,3.00018615 C12.042681,3.00063489 12.0659949,3.00189498 12.0892501,3.00396641 L12,3 C12.0506203,3 12.1003621,3.00376119 12.1489612,3.01101934 C12.165949,3.01362808 12.1833753,3.01670217 12.2007258,3.02024007 C12.2227461,3.0246398 12.2444365,3.02983363 12.2658396,3.03572097 C12.2814633,3.04009773 12.2968513,3.04472872 12.3121425,3.04973809 C12.3317977,3.05612249 12.3515792,3.06331574 12.3710585,3.07110396 C12.3887956,3.07819642 12.4060985,3.08567905 12.4232215,3.09367336 C12.4438914,3.10337664 12.4642939,3.11379392 12.484277,3.12487577 C12.4963944,3.13149883 12.5086131,3.13860692 12.5207088,3.14599545 C12.546275,3.1617187 12.5711307,3.17849009 12.5951593,3.19631351 C12.6012086,3.20071786 12.6070733,3.20517454 12.6128994,3.20970461 C12.6196628,3.21507113 12.6225624,3.2173721 12.625449,3.21968877 L12.7071068,3.29289322 L16.7071068,7.29289322 C17.0976311,7.68341751 17.0976311,8.31658249 16.7071068,8.70710678 C16.3466228,9.06759074 15.7793918,9.09532028 15.3871006,8.79029539 L15.2928932,8.70710678 L13,6.415 L13,13.5857864 C13,14.0572824 12.8335102,14.5116128 12.5330869,14.8701798 L12.4142136,15 L6.70710678,20.7071068 C6.31658249,21.0976311 5.68341751,21.0976311 5.29289322,20.7071068 C4.93240926,20.3466228 4.90467972,19.7793918 5.20970461,19.3871006 L5.29289322,19.2928932 L11,13.5857864 L11,6.415 L8.70710678,8.70710678 C8.34662282,9.06759074 7.77939176,9.09532028 7.38710056,8.79029539 L7.29289322,8.70710678 C6.93240926,8.34662282 6.90467972,7.77939176 7.20970461,7.38710056 L7.29289322,7.29289322 L11.2928932,3.29289322 L11.374551,3.21968877 C11.3774376,3.2173721 11.3803372,3.21507113 11.3832499,3.21278596 L11.2928932,3.29289322 C11.3282873,3.25749917 11.3656744,3.22531295 11.4046934,3.19633458 C11.4288693,3.17849009 11.453725,3.1617187 11.4793398,3.14606743 C11.4913869,3.13860692 11.5036056,3.13149883 11.5159379,3.12467117 C11.5357061,3.11379392 11.5561086,3.10337664 11.5769009,3.09365378 C11.5939015,3.08567905 11.6112044,3.07819642 11.628664,3.07122549 C11.6484208,3.06331574 11.6682023,3.05612249 11.6882636,3.04954668 C11.7031487,3.04472872 11.7185367,3.04009773 11.734007,3.03584514 C11.7555635,3.02983363 11.7772539,3.0246398 11.7992059,3.02016515 C11.8166247,3.01670217 11.834051,3.01362808 11.8515331,3.0110178 C11.8705042,3.00811223 11.890153,3.00576612 11.909968,3.00399798 C11.9343349,3.0018656 11.9579802,3.00059932 11.9816379,3.00016755 C11.9872016,3.00006024 11.9935938,3 12,3 Z M15.6128994,16.2097046 L15.7071068,16.2928932 L18.7071068,19.2928932 C19.0976311,19.6834175 19.0976311,20.3165825 18.7071068,20.7071068 C18.3466228,21.0675907 17.7793918,21.0953203 17.3871006,20.7902954 L17.2928932,20.7071068 L14.2928932,17.7071068 C13.9023689,17.3165825 13.9023689,16.6834175 14.2928932,16.2928932 C14.6533772,15.9324093 15.2206082,15.9046797 15.6128994,16.2097046 Z"/>
</svg>
