<svg xmlns="http://www.w3.org/2000/svg" width="24" height="24" viewBox="0 0 24 24">
  <path d="M8,14 C9.0543618,14 9.91816512,14.8158778 9.99451426,15.8507377 L10,16 L10,19 C10,19.5522847 9.55228475,20 9,20 C8.48716416,20 8.06449284,19.6139598 8.00672773,19.1166211 L8,19 L8,16 L5,16 C4.44771525,16 4,15.5522847 4,15 C4,14.4871642 4.38604019,14.0644928 4.88337887,14.0067277 L5,14 L8,14 Z M19,14 C19.5522847,14 20,14.4477153 20,15 C20,15.5128358 19.6139598,15.9355072 19.1166211,15.9932723 L19,16 L16,16 L16,19 C16,19.5522847 15.5522847,20 15,20 C14.4871642,20 14.0644928,19.6139598 14.0067277,19.1166211 L14,19 L14,16 C14,14.9456382 14.8158778,14.0818349 15.8507377,14.0054857 L16,14 L19,14 Z M9,4 C9.51283584,4 9.93550716,4.38604019 9.99327227,4.88337887 L10,5 L10,8 C10,9.0543618 9.18412221,9.91816512 8.14926234,9.99451426 L8,10 L5,10 C4.44771525,10 4,9.55228475 4,9 C4,8.48716416 4.38604019,8.06449284 4.88337887,8.00672773 L5,8 L8,8 L8,5 C8,4.44771525 8.44771525,4 9,4 Z M15,4 C15.5128358,4 15.9355072,4.38604019 15.9932723,4.88337887 L16,5 L16,8 L19,8 C19.5522847,8 20,8.44771525 20,9 C20,9.51283584 19.6139598,9.93550716 19.1166211,9.99327227 L19,10 L16,10 C14.9456382,10 14.0818349,9.18412221 14.0054857,8.14926234 L14,8 L14,5 C14,4.44771525 14.4477153,4 15,4 Z"/>
</svg>
