<svg xmlns="http://www.w3.org/2000/svg" width="24" height="24" viewBox="0 0 24 24">
  <path d="M12,2 C15.8659932,2 19,5.13400675 19,9 L19,9 L19,15 C19,18.8659932 15.8659932,22 12,22 C8.13400675,22 5,18.8659932 5,15 L5,15 L5,9 C5,5.13400675 8.13400675,2 12,2 Z M12,4 C9.23857625,4 7,6.23857625 7,9 L7,9 L7,15 C7,17.7614237 9.23857625,20 12,20 C14.7614237,20 17,17.7614237 17,15 L17,15 L17,9 C17,6.23857625 14.7614237,4 12,4 Z M12,6 C12.5128358,6 12.9355072,6.38604019 12.9932723,6.88337887 L13,7 L13,10 C13,10.5522847 12.5522847,11 12,11 C11.4871642,11 11.0644928,10.6139598 11.0067277,10.1166211 L11,10 L11,7 C11,6.44771525 11.4477153,6 12,6 Z"/>
</svg>
