<svg xmlns="http://www.w3.org/2000/svg" width="24" height="24" viewBox="0 0 24 24">
  <path d="M9,5 C9.55228475,5 10,5.44771525 10,6 C10,6.51283584 9.61395981,6.93550716 9.11662113,6.99327227 L9,7 L5,7 L5,19 L17,19 L17,15 C17,14.4477153 17.4477153,14 18,14 C18.5128358,14 18.9355072,14.3860402 18.9932723,14.8833789 L19,15 L19,19 C19,20.0543618 18.1841222,20.9181651 17.1492623,20.9945143 L17,21 L5,21 C3.9456382,21 3.08183488,20.1841222 3.00548574,19.1492623 L3,19 L3,7 C3,5.9456382 3.81587779,5.08183488 4.85073766,5.00548574 L5,5 L9,5 Z M20,3 L20.0193545,3.00018615 C20.042681,3.00063489 20.0659949,3.00189498 20.0892501,3.00396641 L20,3 C20.0506203,3 20.1003621,3.00376119 20.1489612,3.01101934 C20.165949,3.01362808 20.1833753,3.01670217 20.2007258,3.02024007 C20.2227461,3.0246398 20.2444365,3.02983363 20.2658396,3.03572097 C20.2814633,3.04009773 20.2968513,3.04472872 20.3121425,3.04973809 C20.3317977,3.05612249 20.3515792,3.06331574 20.3710585,3.07110396 C20.3887956,3.07819642 20.4060985,3.08567905 20.4232215,3.09367336 C20.4438914,3.10337664 20.4642939,3.11379392 20.484277,3.12487577 C20.4963944,3.13149883 20.5086131,3.13860692 20.5207088,3.14599545 C20.546275,3.1617187 20.5711307,3.17849009 20.5951593,3.19631351 C20.602603,3.20175344 20.6098424,3.20728448 20.6170223,3.21292769 C20.6801818,3.26255171 20.7374483,3.31981825 20.787214,3.38324992 L20.7071068,3.29289322 C20.7425008,3.32828727 20.774687,3.36567442 20.8036654,3.40469339 C20.8215099,3.42886931 20.8382813,3.45372505 20.8539326,3.47933981 C20.8613931,3.49138689 20.8685012,3.50360556 20.8753288,3.5159379 C20.8862061,3.53570605 20.8966234,3.5561086 20.9063462,3.57690085 C20.914321,3.5939015 20.9218036,3.61120435 20.9287745,3.62866398 C20.9366843,3.6484208 20.9438775,3.66820232 20.9504533,3.68826359 C20.9552713,3.70314866 20.9599023,3.71853672 20.9641549,3.73400703 C20.9701664,3.75556352 20.9753602,3.77725392 20.9798348,3.7992059 C20.9832978,3.81662474 20.9863719,3.83405099 20.9889822,3.85153313 C20.9905825,3.86176411 20.9920139,3.87254508 20.9932723,3.88337887 L20.9962979,3.9137692 C20.9978436,3.93173451 20.9989053,3.94973363 20.9994829,3.96774538 L21,4 L21,10 C21,10.5522847 20.5522847,11 20,11 C19.4871642,11 19.0644928,10.6139598 19.0067277,10.1166211 L19,10 L19,6.414 L11.7071068,13.7071068 C11.3165825,14.0976311 10.6834175,14.0976311 10.2928932,13.7071068 C9.93240926,13.3466228 9.90467972,12.7793918 10.2097046,12.3871006 L10.2928932,12.2928932 L17.585,4.999 L14,5 C13.4871642,5 13.0644928,4.61395981 13.0067277,4.11662113 L13,4 C13,3.48716416 13.3860402,3.06449284 13.8833789,3.00672773 L14,3 L20,3 Z"/>
</svg>
