<svg xmlns="http://www.w3.org/2000/svg" width="24" height="24" viewBox="0 0 24 24">
  <path d="M8.92758795,5.20612962 C9.13477043,5.71808065 8.88770669,6.30105355 8.37575566,6.50823603 C5.75281251,7.56972008 4,10.121977 4,13 C4,16.8659932 7.13400675,20 11,20 C13.876881,20 16.4283257,18.2485814 17.4905767,15.6271762 C17.6979922,15.1153196 18.2810776,14.8685213 18.7929342,15.0759369 C19.3047909,15.2833525 19.5515891,15.8664378 19.3441736,16.3782945 C17.9785586,19.748336 14.6983628,22 11,22 C6.02943725,22 2,17.9705627 2,13 C2,9.30016649 4.25345356,6.01892999 7.62548153,4.65429732 C8.13743257,4.44711484 8.72040547,4.69417858 8.92758795,5.20612962 Z M12,2 C17.5228475,2 22,6.4771525 22,12 C22,12.5522847 21.5522847,13 21,13 L21,13 L12,13 C11.4477153,13 11,12.5522847 11,12 L11,12 L11,3 C11,2.44771525 11.4477153,2 12,2 Z M13,4.062 L13,10.999 L19.937,10.999 L19.9066733,10.7741848 C19.3782076,7.33742574 16.6625743,4.62179242 13.2258152,4.0933267 L13.2258152,4.0933267 L13,4.062 Z"/>
</svg>
