<svg xmlns="http://www.w3.org/2000/svg" width="24" height="24" viewBox="0 0 24 24">
  <path d="M7.05025253,5.63603897 C7.44077682,6.02656326 7.44077682,6.65972824 7.05025253,7.05025253 C4.31658249,9.78392257 4.31658249,14.2160774 7.05025253,16.9497475 C9.78392257,19.6834175 14.2160774,19.6834175 16.9497475,16.9497475 C19.6834175,14.2160774 19.6834175,9.78392257 16.9497475,7.05025253 C16.5592232,6.65972824 16.5592232,6.02656326 16.9497475,5.63603897 C17.3402718,5.24551468 17.9734367,5.24551468 18.363961,5.63603897 C21.8786797,9.15075759 21.8786797,14.8492424 18.363961,18.363961 C14.8492424,21.8786797 9.15075759,21.8786797 5.63603897,18.363961 C2.12132034,14.8492424 2.12132034,9.15075759 5.63603897,5.63603897 C6.02656326,5.24551468 6.65972824,5.24551468 7.05025253,5.63603897 Z M12,3 C12.5128358,3 12.9355072,3.38604019 12.9932723,3.88337887 L13,4 L13,12 C13,12.5522847 12.5522847,13 12,13 C11.4871642,13 11.0644928,12.6139598 11.0067277,12.1166211 L11,12 L11,4 C11,3.44771525 11.4477153,3 12,3 Z"/>
</svg>
