<svg xmlns="http://www.w3.org/2000/svg" width="24" height="24" viewBox="0 0 24 24">
  <path d="M17.6128994,7.20970461 L17.7071068,7.29289322 L21.7071068,11.2928932 C21.7355731,11.3213595 21.7623312,11.3515341 21.787214,11.3832499 L21.7071068,11.2928932 C21.7425008,11.3282873 21.774687,11.3656744 21.8036654,11.4046934 C21.8215099,11.4288693 21.8382813,11.453725 21.8539326,11.4793398 C21.8613931,11.4913869 21.8685012,11.5036056 21.8753288,11.5159379 C21.8862061,11.5357061 21.8966234,11.5561086 21.9063462,11.5769009 C21.914321,11.5939015 21.9218036,11.6112044 21.9287745,11.628664 C21.9366843,11.6484208 21.9438775,11.6682023 21.9504533,11.6882636 C21.9552713,11.7031487 21.9599023,11.7185367 21.9641549,11.734007 C21.9701664,11.7555635 21.9753602,11.7772539 21.9798348,11.7992059 C21.9832978,11.8166247 21.9863719,11.834051 21.9889822,11.8515331 C21.9920328,11.8714753 21.9944666,11.892114 21.9962623,11.912935 C21.9978436,11.9317345 21.9989053,11.9497336 21.9994829,11.9677454 C21.9998183,11.9777892 22,11.9888734 22,12 L21.9994506,12.0332468 C21.9988772,12.050591 21.997855,12.0679231 21.996384,12.0852242 L22,12 C22,12.0506203 21.9962388,12.1003621 21.9889807,12.1489612 C21.9863719,12.165949 21.9832978,12.1833753 21.9797599,12.2007258 C21.9753602,12.2227461 21.9701664,12.2444365 21.964279,12.2658396 C21.9599023,12.2814633 21.9552713,12.2968513 21.9502619,12.3121425 C21.9438775,12.3317977 21.9366843,12.3515792 21.928896,12.3710585 C21.9218036,12.3887956 21.914321,12.4060985 21.9063266,12.4232215 C21.8966234,12.4438914 21.8862061,12.4642939 21.8751242,12.484277 C21.8685012,12.4963944 21.8613931,12.5086131 21.8540045,12.5207088 C21.8382813,12.546275 21.8215099,12.5711307 21.8036865,12.5951593 C21.7992821,12.6012086 21.7948255,12.6070733 21.7902954,12.6128994 C21.7849289,12.6196628 21.7826279,12.6225624 21.7803112,12.625449 L21.7071068,12.7071068 L17.7071068,16.7071068 C17.3165825,17.0976311 16.6834175,17.0976311 16.2928932,16.7071068 C15.9324093,16.3466228 15.9046797,15.7793918 16.2097046,15.3871006 L16.2928932,15.2928932 L18.585,13 L7.82897577,13.0009007 C7.43555819,14.1128456 6.4051328,14.9237055 5.17627279,14.9949073 L5,15 C3.34314575,15 2,13.6568542 2,12 C2,10.3431458 3.34314575,9 5,9 C6.30625206,9 7.41751442,9.8348501 7.82932572,11.0000889 L18.585,11 L16.2928932,8.70710678 C15.9324093,8.34662282 15.9046797,7.77939176 16.2097046,7.38710056 L16.2928932,7.29289322 C16.6533772,6.93240926 17.2206082,6.90467972 17.6128994,7.20970461 Z M5,11 C4.44771525,11 4,11.4477153 4,12 C4,12.5522847 4.44771525,13 5,13 C5.55228475,13 6,12.5522847 6,12 C6,11.4477153 5.55228475,11 5,11 Z"/>
</svg>
