<svg xmlns="http://www.w3.org/2000/svg" width="24" height="24" viewBox="0 0 24 24">
  <path d="M19,3 C19.5128358,3 19.9355072,3.38604019 19.9932723,3.88337887 L20,4 L20,8 C20,8.51283584 19.6139598,8.93550716 19.1166211,8.99327227 L19,9 L15,9 C14.4477153,9 14,8.55228475 14,8 C14,7.48716416 14.3860402,7.06449284 14.8833789,7.00672773 L15,7 L16.897,7 L16.7607688,6.868102 C14.0154932,4.31799451 9.72179371,4.37871135 7.05025253,7.05025253 C4.31658249,9.78392257 4.31658249,14.2160774 7.05025253,16.9497475 C9.72179371,19.6212886 14.0154932,19.6820055 16.7607688,17.131898 L16.923,16.974 L18.223187,15.3702686 C18.5442249,14.9742484 19.1054959,14.8876758 19.5273831,15.1502473 L19.6297314,15.223187 C20.0257516,15.5442249 20.1123242,16.1054959 19.8497527,16.5273831 L19.776813,16.6297314 L18.4336672,18.2865856 L18.363961,18.363961 C14.8492424,21.8786797 9.15075759,21.8786797 5.63603897,18.363961 C2.12132034,14.8492424 2.12132034,9.15075759 5.63603897,5.63603897 C9.03224775,2.23983019 14.4674403,2.12531628 18.0011507,5.29249723 L18,4 C18,3.48716416 18.3860402,3.06449284 18.8833789,3.00672773 L19,3 Z"/>
</svg>
