<svg xmlns="http://www.w3.org/2000/svg" width="24" height="24" viewBox="0 0 24 24">
  <path d="M9,14 L9.0193545,14.0001861 C9.04268105,14.0006349 9.06599489,14.001895 9.08925007,14.0039664 L9,14 C9.05062028,14 9.10036209,14.0037612 9.14896122,14.0110193 C9.16594901,14.0136281 9.18337526,14.0167022 9.20072576,14.0202401 C9.22274608,14.0246398 9.24443648,14.0298336 9.26583961,14.035721 C9.28146328,14.0400977 9.29685134,14.0447287 9.31214252,14.0497381 C9.33179768,14.0561225 9.3515792,14.0633157 9.37105852,14.071104 C9.38879565,14.0781964 9.4060985,14.085679 9.42322155,14.0936734 C9.4438914,14.1033766 9.46429395,14.1137939 9.48427695,14.1248758 C9.49639444,14.1314988 9.50861311,14.1386069 9.52070875,14.1459955 C9.54627495,14.1617187 9.57113069,14.1784901 9.5951593,14.1963135 C9.60260304,14.2017534 9.60984241,14.2072845 9.61702235,14.2129277 C9.68018175,14.2625517 9.73744829,14.3198182 9.78721404,14.3832499 L9.70710678,14.2928932 C9.74250083,14.3282873 9.77468705,14.3656744 9.80366542,14.4046934 C9.82150991,14.4288693 9.8382813,14.453725 9.85393257,14.4793398 C9.86139308,14.4913869 9.86850117,14.5036056 9.87532883,14.5159379 C9.88620608,14.5357061 9.89662336,14.5561086 9.90634622,14.5769009 C9.91432095,14.5939015 9.92180358,14.6112044 9.92877451,14.628664 C9.93668426,14.6484208 9.94387751,14.6682023 9.95045332,14.6882636 C9.95527128,14.7031487 9.95990227,14.7185367 9.96415486,14.734007 C9.97016637,14.7555635 9.9753602,14.7772539 9.97983485,14.7992059 C9.98329783,14.8166247 9.98637192,14.834051 9.9889822,14.8515331 C9.99058246,14.8617641 9.99201394,14.8725451 9.99327227,14.8833789 L9.99629794,14.9137692 C9.9978436,14.9317345 9.99890526,14.9497336 9.99948292,14.9677454 L10,15 L10,19 C10,19.5522847 9.55228475,20 9,20 C8.48716416,20 8.06449284,19.6139598 8.00672773,19.1166211 L8,19 L8,17.414 L4.70710678,20.7071068 C4.31658249,21.0976311 3.68341751,21.0976311 3.29289322,20.7071068 C2.93240926,20.3466228 2.90467972,19.7793918 3.20970461,19.3871006 L3.29289322,19.2928932 L6.584,16 L5,16 C4.48716416,16 4.06449284,15.6139598 4.00672773,15.1166211 L4,15 C4,14.4871642 4.38604019,14.0644928 4.88337887,14.0067277 L5,14 L9,14 Z M19,14 C19.5522847,14 20,14.4477153 20,15 C20,15.5128358 19.6139598,15.9355072 19.1166211,15.9932723 L19,16 L17.415,16 L20.7071068,19.2928932 C21.0976311,19.6834175 21.0976311,20.3165825 20.7071068,20.7071068 C20.3466228,21.0675907 19.7793918,21.0953203 19.3871006,20.7902954 L19.2928932,20.7071068 L16,17.415 L16,19 C16,19.5128358 15.6139598,19.9355072 15.1166211,19.9932723 L15,20 C14.4871642,20 14.0644928,19.6139598 14.0067277,19.1166211 L14,19 L14,15 L14.0001675,14.9816379 C14.0005993,14.9579802 14.0018656,14.9343349 14.0039664,14.9107499 L14,15 C14,14.9493797 14.0037612,14.8996379 14.0110193,14.8510388 C14.0136281,14.834051 14.0167022,14.8166247 14.0202401,14.7992742 C14.0246398,14.7772539 14.0298336,14.7555635 14.035721,14.7341604 C14.0400977,14.7185367 14.0447287,14.7031487 14.0497381,14.6878575 C14.0561225,14.6682023 14.0633157,14.6484208 14.071104,14.6289415 C14.0781964,14.6112044 14.085679,14.5939015 14.0936734,14.5767785 C14.1033766,14.5561086 14.1137939,14.5357061 14.1248758,14.515723 C14.1314988,14.5036056 14.1386069,14.4913869 14.1459955,14.4792912 C14.1617187,14.453725 14.1784901,14.4288693 14.1963135,14.4048407 C14.2017534,14.397397 14.2072845,14.3901576 14.2129277,14.3829777 C14.2625517,14.3198182 14.3198182,14.2625517 14.3832499,14.212786 L14.2928932,14.2928932 C14.3282873,14.2574992 14.3656744,14.225313 14.4046934,14.1963346 C14.4288693,14.1784901 14.453725,14.1617187 14.4793398,14.1460674 C14.4913869,14.1386069 14.5036056,14.1314988 14.5159379,14.1246712 C14.5357061,14.1137939 14.5561086,14.1033766 14.5769009,14.0936538 C14.5939015,14.085679 14.6112044,14.0781964 14.628664,14.0712255 C14.6484208,14.0633157 14.6682023,14.0561225 14.6882636,14.0495467 C14.7031487,14.0447287 14.7185367,14.0400977 14.734007,14.0358451 C14.7555635,14.0298336 14.7772539,14.0246398 14.7992059,14.0201652 C14.8166247,14.0167022 14.834051,14.0136281 14.8515331,14.0110178 C14.8617641,14.0094175 14.8725451,14.0079861 14.8833789,14.0067277 L14.9107499,14.0039664 C14.9343349,14.0018656 14.9579802,14.0005993 14.9816379,14.0001675 L15,14 L19,14 Z M4.61289944,3.20970461 L4.70710678,3.29289322 L8,6.585 L8,5 C8,4.48716416 8.38604019,4.06449284 8.88337887,4.00672773 L9,4 C9.51283584,4 9.93550716,4.38604019 9.99327227,4.88337887 L10,5 L10,9 L9.99945061,9.03324678 C9.99887723,9.05059097 9.99785504,9.06792309 9.99638403,9.08522423 L10,9 C10,9.05062028 9.99623881,9.10036209 9.98898066,9.14896122 C9.98637192,9.16594901 9.98329783,9.18337526 9.97975993,9.20072576 C9.9753602,9.22274608 9.97016637,9.24443648 9.96427903,9.26583961 C9.95990227,9.28146328 9.95527128,9.29685134 9.95026191,9.31214252 C9.94387751,9.33179768 9.93668426,9.3515792 9.92889604,9.37105852 C9.92180358,9.38879565 9.91432095,9.4060985 9.90632664,9.42322155 C9.89662336,9.4438914 9.88620608,9.46429395 9.87512423,9.48427695 C9.86850117,9.49639444 9.86139308,9.50861311 9.85400455,9.52070875 C9.8382813,9.54627495 9.82150991,9.57113069 9.80368649,9.5951593 C9.79824656,9.60260304 9.79271552,9.60984241 9.78707231,9.61702235 C9.73744829,9.68018175 9.68018175,9.73744829 9.61675008,9.78721404 L9.70710678,9.70710678 C9.67171273,9.74250083 9.63432558,9.77468705 9.59530661,9.80366542 C9.57113069,9.82150991 9.54627495,9.8382813 9.52066019,9.85393257 C9.50861311,9.86139308 9.49639444,9.86850117 9.4840621,9.87532883 C9.46429395,9.88620608 9.4438914,9.89662336 9.42309915,9.90634622 C9.4060985,9.91432095 9.38879565,9.92180358 9.37133602,9.92877451 C9.3515792,9.93668426 9.33179768,9.94387751 9.31173641,9.95045332 C9.29685134,9.95527128 9.28146328,9.95990227 9.26599297,9.96415486 C9.24443648,9.97016637 9.22274608,9.9753602 9.2007941,9.97983485 C9.18337526,9.98329783 9.16594901,9.98637192 9.14846687,9.9889822 C9.13823589,9.99058246 9.12745492,9.99201394 9.11662113,9.99327227 L9.08522423,9.99638403 C9.06792309,9.99785504 9.05059097,9.99887723 9.03324678,9.99945061 L9,10 L5,10 C4.44771525,10 4,9.55228475 4,9 C4,8.48716416 4.38604019,8.06449284 4.88337887,8.00672773 L5,8 L6.585,8 L3.29289322,4.70710678 C2.90236893,4.31658249 2.90236893,3.68341751 3.29289322,3.29289322 C3.65337718,2.93240926 4.22060824,2.90467972 4.61289944,3.20970461 Z M20.7071068,3.29289322 C21.0675907,3.65337718 21.0953203,4.22060824 20.7902954,4.61289944 L20.7071068,4.70710678 L17.414,8 L19,8 C19.5128358,8 19.9355072,8.38604019 19.9932723,8.88337887 L20,9 C20,9.51283584 19.6139598,9.93550716 19.1166211,9.99327227 L19,10 L15,10 L14.9677454,9.99948292 C14.9497336,9.99890526 14.9317345,9.9978436 14.9137692,9.99629794 L15,10 C14.9493797,10 14.8996379,9.99623881 14.8510388,9.98898066 C14.834051,9.98637192 14.8166247,9.98329783 14.7992742,9.97975993 C14.7772539,9.9753602 14.7555635,9.97016637 14.7341604,9.96427903 C14.7185367,9.95990227 14.7031487,9.95527128 14.6878575,9.95026191 C14.6682023,9.94387751 14.6484208,9.93668426 14.6289415,9.92889604 C14.6112044,9.92180358 14.5939015,9.91432095 14.5767785,9.90632664 C14.5561086,9.89662336 14.5357061,9.88620608 14.515723,9.87512423 C14.5036056,9.86850117 14.4913869,9.86139308 14.4792912,9.85400455 C14.453725,9.8382813 14.4288693,9.82150991 14.4048407,9.80368649 C14.397397,9.79824656 14.3901576,9.79271552 14.3829777,9.78707231 C14.3198182,9.73744829 14.2625517,9.68018175 14.212786,9.61675008 L14.2928932,9.70710678 C14.2574992,9.67171273 14.225313,9.63432558 14.1963346,9.59530661 C14.1784901,9.57113069 14.1617187,9.54627495 14.1460674,9.52066019 C14.1386069,9.50861311 14.1314988,9.49639444 14.1246712,9.4840621 C14.1137939,9.46429395 14.1033766,9.4438914 14.0936538,9.42309915 C14.085679,9.4060985 14.0781964,9.38879565 14.0712255,9.37133602 C14.0633157,9.3515792 14.0561225,9.33179768 14.0495467,9.31173641 C14.0447287,9.29685134 14.0400977,9.28146328 14.0358451,9.26599297 C14.0298336,9.24443648 14.0246398,9.22274608 14.0201652,9.2007941 C14.0167022,9.18337526 14.0136281,9.16594901 14.0110178,9.14846687 C14.0094175,9.13823589 14.0079861,9.12745492 14.0067277,9.11662113 L14.003616,9.08522423 C14.0017523,9.06330457 14.000609,9.04133518 14.0001861,9.0193545 L14,9 L14,5 C14,4.44771525 14.4477153,4 15,4 C15.5128358,4 15.9355072,4.38604019 15.9932723,4.88337887 L16,5 L16,6.584 L19.2928932,3.29289322 C19.6834175,2.90236893 20.3165825,2.90236893 20.7071068,3.29289322 Z"/>
</svg>
