<svg xmlns="http://www.w3.org/2000/svg" width="24" height="24" viewBox="0 0 24 24">
  <path d="M8.70710678,12.2928932 C9.06759074,12.6533772 9.09532028,13.2206082 8.79029539,13.6128994 L8.70710678,13.7071068 C8.34662282,14.0675907 7.77939176,14.0953203 7.38710056,13.7902954 L7.29289322,13.7071068 L3.29289322,9.70710678 L3.27147494,9.68502345 C3.25091649,9.66316781 3.23133046,9.64038698 3.21278596,9.61675008 L3.29289322,9.70710678 C3.25749917,9.67171273 3.22531295,9.63432558 3.19633458,9.59530661 C3.17849009,9.57113069 3.1617187,9.54627495 3.14606743,9.52066019 C3.13860692,9.50861311 3.13149883,9.49639444 3.12467117,9.4840621 C3.11379392,9.46429395 3.10337664,9.4438914 3.09365378,9.42309915 C3.08567905,9.4060985 3.07819642,9.38879565 3.07122549,9.37133602 C3.06331574,9.3515792 3.05612249,9.33179768 3.04954668,9.31173641 C3.04462107,9.29652275 3.03989888,9.28080189 3.03557152,9.26499553 C3.02967077,9.24375557 3.02456957,9.22240155 3.02016515,9.2007941 C3.01670217,9.18337526 3.01362808,9.16594901 3.0110178,9.14846687 C3.00810098,9.12942044 3.00574796,9.10969493 3.00397748,9.08980185 C3.00168934,9.06368628 3.0003927,9.03805161 3.00007649,9.0124071 C3.00002445,9.00815613 3,9.00408092 3,9 L3.00016755,8.98163795 C3.00059932,8.95798023 3.0018656,8.93433491 3.00396641,8.91074993 L3,9 C3,8.94937972 3.00376119,8.89963791 3.01101934,8.85103878 C3.01362808,8.83405099 3.01670217,8.81662474 3.02024007,8.79927424 C3.0246398,8.77725392 3.02983363,8.75556352 3.03572097,8.73416039 C3.04009773,8.71853672 3.04472872,8.70314866 3.04973809,8.68785748 C3.05612249,8.66820232 3.06331574,8.6484208 3.07110396,8.62894148 C3.07819642,8.61120435 3.08567905,8.5939015 3.09367336,8.57677845 C3.10337664,8.5561086 3.11379392,8.53570605 3.12487577,8.51572305 C3.13149883,8.50360556 3.13860692,8.49138689 3.14599545,8.47929125 C3.1617187,8.45372505 3.17849009,8.42886931 3.19631351,8.4048407 C3.20071786,8.39879136 3.20517454,8.39292666 3.20970461,8.38710056 C3.23766884,8.35153408 3.26442691,8.32135953 3.29289322,8.29289322 L7.29289322,4.29289322 C7.68341751,3.90236893 8.31658249,3.90236893 8.70710678,4.29289322 C9.06759074,4.65337718 9.09532028,5.22060824 8.79029539,5.61289944 L8.70710678,5.70710678 L6.415,8 L15.5,8 C18.5375661,8 21,10.4624339 21,13.5 C21,16.4634791 18.65622,18.8795391 15.7212071,18.9956328 L15.5,19 L11,19 C10.4477153,19 10,18.5522847 10,18 C10,17.4871642 10.3860402,17.0644928 10.8833789,17.0067277 L11,17 L15.5,17 C17.4329966,17 19,15.4329966 19,13.5 C19,11.6314366 17.5357224,10.1048736 15.6920352,10.0051789 L15.5,10 L6.415,10 L8.70710678,12.2928932 Z"/>
</svg>
