<svg xmlns="http://www.w3.org/2000/svg" width="24" height="24" viewBox="0 0 24 24">
  <path d="M9,4 C11.1421954,4 12.8910789,5.68396847 12.9951047,7.80035966 L13,8 L13,14 C13,15.1045695 13.8954305,16 15,16 C16.0543618,16 16.9181651,15.1841222 16.9945143,14.1492623 L17,14 L17,7 C17,6.44771525 17.4477153,6 18,6 C18.5128358,6 18.9355072,6.38604019 18.9932723,6.88337887 L19,7 L19,14 C19,16.209139 17.209139,18 15,18 C12.8578046,18 11.1089211,16.3160315 11.0048953,14.1996403 L11,14 L11,8 C11,6.8954305 10.1045695,6 9,6 C7.9456382,6 7.08183488,6.81587779 7.00548574,7.85073766 L7,8 L7.00090072,15.1710242 C8.16562257,15.5831148 9,16.6941178 9,18 C9,19.6568542 7.65685425,21 6,21 C4.34314575,21 3,19.6568542 3,18 C3,16.6937479 3.8348501,15.5824856 5.00008893,15.1706743 L5,8 C5,5.790861 6.790861,4 9,4 Z M6,17 C5.44771525,17 5,17.4477153 5,18 C5,18.5522847 5.44771525,19 6,19 C6.55228475,19 7,18.5522847 7,18 C7,17.4477153 6.55228475,17 6,17 Z M20,3 C20.5522847,3 21,3.44771525 21,4 C21,4.51283584 20.6139598,4.93550716 20.1166211,4.99327227 L20,5 L16,5 C15.4477153,5 15,4.55228475 15,4 C15,3.48716416 15.3860402,3.06449284 15.8833789,3.00672773 L16,3 L20,3 Z"/>
</svg>
