<svg xmlns="http://www.w3.org/2000/svg" width="24" height="24" viewBox="0 0 24 24">
  <path d="M10.5,3 C14.6421356,3 18,6.35786438 18,10.5 C18,12.2101481 17.4276233,13.7866104 16.4639906,15.0482663 L20.7071068,19.2928932 C21.0976311,19.6834175 21.0976311,20.3165825 20.7071068,20.7071068 C20.3466228,21.0675907 19.7793918,21.0953203 19.3871006,20.7902954 L19.2928932,20.7071068 L15.0482663,16.4639906 C13.7866104,17.4276233 12.2101481,18 10.5,18 C6.35786438,18 3,14.6421356 3,10.5 C3,6.35786438 6.35786438,3 10.5,3 Z M10.5,5 C7.46243388,5 5,7.46243388 5,10.5 C5,13.5375661 7.46243388,16 10.5,16 C13.5375661,16 16,13.5375661 16,10.5 C16,7.46243388 13.5375661,5 10.5,5 Z"/>
</svg>
