<svg xmlns="http://www.w3.org/2000/svg" width="24" height="24" viewBox="0 0 24 24">
  <path d="M12.6128994,13.2097046 L12.7071068,13.2928932 L16.7071068,17.2928932 C17.0976311,17.6834175 17.0976311,18.3165825 16.7071068,18.7071068 C16.3466228,19.0675907 15.7793918,19.0953203 15.3871006,18.7902954 L15.2928932,18.7071068 L12,15.415 L8.70710678,18.7071068 C8.34662282,19.0675907 7.77939176,19.0953203 7.38710056,18.7902954 L7.29289322,18.7071068 C6.93240926,18.3466228 6.90467972,17.7793918 7.20970461,17.3871006 L7.29289322,17.2928932 L11.2928932,13.2928932 C11.6533772,12.9324093 12.2206082,12.9046797 12.6128994,13.2097046 Z M8.61289944,5.20970461 L8.70710678,5.29289322 L12,8.585 L15.2928932,5.29289322 C15.6533772,4.93240926 16.2206082,4.90467972 16.6128994,5.20970461 L16.7071068,5.29289322 C17.0675907,5.65337718 17.0953203,6.22060824 16.7902954,6.61289944 L16.7071068,6.70710678 L12.7071068,10.7071068 C12.3466228,11.0675907 11.7793918,11.0953203 11.3871006,10.7902954 L11.2928932,10.7071068 L7.29289322,6.70710678 C6.90236893,6.31658249 6.90236893,5.68341751 7.29289322,5.29289322 C7.65337718,4.93240926 8.22060824,4.90467972 8.61289944,5.20970461 Z"/>
</svg>
