<svg xmlns="http://www.w3.org/2000/svg" width="24" height="24" viewBox="0 0 24 24">
  <path d="M8.61289944,14.2097046 L8.70710678,14.2928932 L12,17.585 L15.2928932,14.2928932 C15.6533772,13.9324093 16.2206082,13.9046797 16.6128994,14.2097046 L16.7071068,14.2928932 C17.0675907,14.6533772 17.0953203,15.2206082 16.7902954,15.6128994 L16.7071068,15.7071068 L12.7071068,19.7071068 C12.3466228,20.0675907 11.7793918,20.0953203 11.3871006,19.7902954 L11.2928932,19.7071068 L7.29289322,15.7071068 C6.90236893,15.3165825 6.90236893,14.6834175 7.29289322,14.2928932 C7.65337718,13.9324093 8.22060824,13.9046797 8.61289944,14.2097046 Z M12.6128994,4.20970461 L12.7071068,4.29289322 L16.7071068,8.29289322 C17.0976311,8.68341751 17.0976311,9.31658249 16.7071068,9.70710678 C16.3466228,10.0675907 15.7793918,10.0953203 15.3871006,9.79029539 L15.2928932,9.70710678 L12,6.415 L8.70710678,9.70710678 C8.34662282,10.0675907 7.77939176,10.0953203 7.38710056,9.79029539 L7.29289322,9.70710678 C6.93240926,9.34662282 6.90467972,8.77939176 7.20970461,8.38710056 L7.29289322,8.29289322 L11.2928932,4.29289322 C11.6533772,3.93240926 12.2206082,3.90467972 12.6128994,4.20970461 Z"/>
</svg>
