<svg xmlns="http://www.w3.org/2000/svg" width="24" height="24" viewBox="0 0 24 24">
  <path d="M3.0298575,4.24253563 C2.82264641,3.41369126 3.68305684,2.72349443 4.4472136,3.10557281 L4.4472136,3.10557281 L20.4329956,11.0983481 C20.4712005,11.1167285 20.5080576,11.1374656 20.5433783,11.1603709 C20.7372494,11.2841648 20.8690192,11.4594458 20.9394223,11.6535596 C20.9412818,11.6614662 20.9441063,11.6694242 20.9468323,11.6774278 C20.9558064,11.7015631 20.962927,11.7259146 20.9691171,11.7504699 C20.9729186,11.7672092 20.9768254,11.7842527 20.9802908,11.8014559 C20.9841773,11.8196295 20.9872945,11.8380176 20.9899053,11.8564692 C20.992627,11.8763545 20.9948606,11.8960471 20.996514,11.9159044 C20.9979396,11.9327863 20.9989177,11.9498702 20.9994683,11.9669664 C20.9998183,11.9777892 21,11.9888734 21,12 L20.9994683,12.0330336 C20.9989097,12.0503792 20.997911,12.0677122 20.9964721,12.0850126 L21,12 C21,12.0482545 20.9965822,12.0957107 20.9899754,12.1421397 C20.987385,12.161582 20.9840316,12.1813312 20.9800941,12.2009777 C20.9764414,12.2173787 20.9728246,12.2330861 20.9688428,12.2486473 C20.9631695,12.273255 20.9559437,12.2980262 20.9477553,12.3225231 C20.9441063,12.3305758 20.9412818,12.3385338 20.93836,12.3464447 C20.8578119,12.5714545 20.6937424,12.7711628 20.4472136,12.8944272 L20.5433783,12.8396291 C20.5080576,12.8625344 20.4712005,12.8832715 20.4329956,12.9016519 L4.4472136,20.8944272 C3.68305684,21.2765056 2.82264641,20.5863087 3.0298575,19.7574644 L3.0298575,19.7574644 L4.968,12 Z M15.7625366,12.9994537 L6.78053656,12.9994537 L5.497,18.132 L15.7625366,12.9994537 Z M5.497,5.867 L6.77953656,10.9994537 L15.7625366,10.9994537 L5.497,5.867 Z"/>
</svg>
