<svg xmlns="http://www.w3.org/2000/svg" width="24" height="24" viewBox="0 0 24 24">
  <path d="M17.381966,3 C18.1395101,3 18.8320364,3.42800475 19.1708204,4.10557281 L19.1708204,4.10557281 L22.6708204,11.1055728 C22.9523479,11.6686278 22.9523479,12.3313722 22.6708204,12.8944272 L22.6708204,12.8944272 L19.1708204,19.8944272 C18.8320364,20.5719952 18.1395101,21 17.381966,21 L17.381966,21 L6.61803399,21 C5.86048987,21 5.16796364,20.5719952 4.82917961,19.8944272 L4.82917961,19.8944272 L1.32917961,12.8944272 C1.04765212,12.3313722 1.04765212,11.6686278 1.32917961,11.1055728 L1.32917961,11.1055728 L4.82917961,4.10557281 C5.16796364,3.42800475 5.86048987,3 6.61803399,3 L6.61803399,3 Z M17.381966,5 L6.61803399,5 L3.11803399,12 L6.61803399,19 L17.381966,19 L20.881966,12 L17.381966,5 Z M12,8 C14.209139,8 16,9.790861 16,12 C16,14.209139 14.209139,16 12,16 C9.790861,16 8,14.209139 8,12 C8,9.790861 9.790861,8 12,8 Z M12,10 C10.8954305,10 10,10.8954305 10,12 C10,13.1045695 10.8954305,14 12,14 C13.1045695,14 14,13.1045695 14,12 C14,10.8954305 13.1045695,10 12,10 Z"/>
</svg>
