<svg xmlns="http://www.w3.org/2000/svg" width="24" height="24" viewBox="0 0 24 24">
  <path d="M10,13 C10.5128358,13 10.9355072,13.3860402 10.9932723,13.8833789 L11,14 L11,15 L21,15 C21.5522847,15 22,15.4477153 22,16 C22,16.5128358 21.6139598,16.9355072 21.1166211,16.9932723 L21,17 L11,17 L11,18 C11,18.5522847 10.5522847,19 10,19 C9.48716416,19 9.06449284,18.6139598 9.00672773,18.1166211 L9,18 L9,14 C9,13.4477153 9.44771525,13 10,13 Z M6,15 C6.55228475,15 7,15.4477153 7,16 C7,16.5128358 6.61395981,16.9355072 6.11662113,16.9932723 L6,17 L3,17 C2.44771525,17 2,16.5522847 2,16 C2,15.4871642 2.38604019,15.0644928 2.88337887,15.0067277 L3,15 L6,15 Z M14,5 C14.5128358,5 14.9355072,5.38604019 14.9932723,5.88337887 L15,6 L15,10 C15,10.5522847 14.5522847,11 14,11 C13.4871642,11 13.0644928,10.6139598 13.0067277,10.1166211 L13,10 L13,9 L3,9 C2.44771525,9 2,8.55228475 2,8 C2,7.48716416 2.38604019,7.06449284 2.88337887,7.00672773 L3,7 L13,7 L13,6 C13,5.44771525 13.4477153,5 14,5 Z M21,7 C21.5522847,7 22,7.44771525 22,8 C22,8.51283584 21.6139598,8.93550716 21.1166211,8.99327227 L21,9 L18,9 C17.4477153,9 17,8.55228475 17,8 C17,7.48716416 17.3860402,7.06449284 17.8833789,7.00672773 L18,7 L21,7 Z"/>
</svg>
