<svg xmlns="http://www.w3.org/2000/svg" width="24" height="24" viewBox="0 0 24 24">
  <path d="M9,13 C10.3062521,13 11.4175144,13.8348501 11.8293257,15.0000889 L21,15 C21.5522847,15 22,15.4477153 22,16 C22,16.5128358 21.6139598,16.9355072 21.1166211,16.9932723 L21,17 L11.8289758,17.0009007 C11.4168852,18.1656226 10.3058822,19 9,19 C7.69411778,19 6.58311485,18.1656226 6.17102423,17.0009007 L3,17 C2.44771525,17 2,16.5522847 2,16 C2,15.4871642 2.38604019,15.0644928 2.88337887,15.0067277 L3,15 L6.17067428,15.0000889 C6.58248558,13.8348501 7.69374794,13 9,13 Z M9,15 C8.44771525,15 8,15.4477153 8,16 C8,16.5522847 8.44771525,17 9,17 C9.55228475,17 10,16.5522847 10,16 C10,15.4477153 9.55228475,15 9,15 Z M15,5 C16.3062521,5 17.4175144,5.8348501 17.8293257,7.00008893 L21,7 C21.5522847,7 22,7.44771525 22,8 C22,8.51283584 21.6139598,8.93550716 21.1166211,8.99327227 L21,9 L17.8289758,9.00090072 C17.4168852,10.1656226 16.3058822,11 15,11 C13.6941178,11 12.5831148,10.1656226 12.1710242,9.00090072 L3,9 C2.44771525,9 2,8.55228475 2,8 C2,7.48716416 2.38604019,7.06449284 2.88337887,7.00672773 L3,7 L12.1706743,7.00008893 C12.5824856,5.8348501 13.6937479,5 15,5 Z M15,7 C14.4477153,7 14,7.44771525 14,8 C14,8.55228475 14.4477153,9 15,9 C15.5522847,9 16,8.55228475 16,8 C16,7.44771525 15.5522847,7 15,7 Z"/>
</svg>
