<svg xmlns="http://www.w3.org/2000/svg" width="24" height="24" viewBox="0 0 24 24">
  <path d="M18,2 C20.209139,2 22,3.790861 22,6 L22,6 L22,18 C22,20.209139 20.209139,22 18,22 L18,22 L6,22 C3.790861,22 2,20.209139 2,18 L2,18 L2,6 C2,3.790861 3.790861,2 6,2 L6,2 Z M18,4 L6,4 C4.8954305,4 4,4.8954305 4,6 L4,6 L4,18 C4,19.1045695 4.8954305,20 6,20 L6,20 L18,20 C19.1045695,20 20,19.1045695 20,18 L20,18 L20,6 C20,4.8954305 19.1045695,4 18,4 L18,4 Z M16,12 C16.5128358,12 16.9355072,12.3860402 16.9932723,12.8833789 L17,13 L17,16 C17,16.5128358 16.6139598,16.9355072 16.1166211,16.9932723 L16,17 L8,17 C7.44771525,17 7,16.5522847 7,16 C7,15.4871642 7.38604019,15.0644928 7.88337887,15.0067277 L8,15 L15,14.999 L15,13 C15,12.4871642 15.3860402,12.0644928 15.8833789,12.0067277 L16,12 Z M16,7 C16.5522847,7 17,7.44771525 17,8 C17,8.51283584 16.6139598,8.93550716 16.1166211,8.99327227 L16,9 L9,9 L9,11 C9,11.5128358 8.61395981,11.9355072 8.11662113,11.9932723 L8,12 C7.48716416,12 7.06449284,11.6139598 7.00672773,11.1166211 L7,11 L7,8 C7,7.48716416 7.38604019,7.06449284 7.88337887,7.00672773 L8,7 L16,7 Z"/>
</svg>
