<svg xmlns="http://www.w3.org/2000/svg" width="24" height="24" viewBox="0 0 24 24">
  <path d="M19.6949595,4.28095113 C24.1016802,8.5400392 24.1016802,15.4599608 19.6949595,19.7190489 C19.2978398,20.1028644 18.6647667,20.0920792 18.2809511,19.6949595 C17.8971356,19.2978398 17.9079208,18.6647667 18.3050405,18.2809511 C21.8983198,14.8080527 21.8983198,9.1919473 18.3050405,5.71904887 C17.9079208,5.33523332 17.8971356,4.70216021 18.2809511,4.30504048 C18.6647667,3.90792076 19.2978398,3.89713559 19.6949595,4.28095113 Z M5.71904887,4.30504048 C6.10286441,4.70216021 6.09207924,5.33523332 5.69495952,5.71904887 C2.10168016,9.1919473 2.10168016,14.8080527 5.69495952,18.2809511 C6.09207924,18.6647667 6.10286441,19.2978398 5.71904887,19.6949595 C5.33523332,20.0920792 4.70216021,20.1028644 4.30504048,19.7190489 C-0.101680161,15.4599608 -0.101680161,8.5400392 4.30504048,4.28095113 C4.70216021,3.89713559 5.33523332,3.90792076 5.71904887,4.30504048 Z M8.47616821,7.31248292 C8.85587341,7.71353455 8.83856871,8.34646301 8.43751708,8.72616821 C6.52082764,10.5408397 6.52082764,13.4591603 8.43751708,15.2738318 C8.83856871,15.653537 8.85587341,16.2864654 8.47616821,16.6875171 C8.09646301,17.0885687 7.46353455,17.1058734 7.06248292,16.7261682 C4.31250569,14.1225617 4.31250569,9.87743834 7.06248292,7.27383179 C7.46353455,6.89412659 8.09646301,6.9114313 8.47616821,7.31248292 Z M16.9375171,7.27383179 C19.6874943,9.87743834 19.6874943,14.1225617 16.9375171,16.7261682 C16.5364654,17.1058734 15.903537,17.0885687 15.5238318,16.6875171 C15.1441266,16.2864654 15.1614313,15.653537 15.5624829,15.2738318 C17.4791724,13.4591603 17.4791724,10.5408397 15.5624829,8.72616821 C15.1614313,8.34646301 15.1441266,7.71353455 15.5238318,7.31248292 C15.903537,6.9114313 16.5364654,6.89412659 16.9375171,7.27383179 Z M12,9 C13.6568542,9 15,10.3431458 15,12 C15,13.6568542 13.6568542,15 12,15 C10.3431458,15 9,13.6568542 9,12 C9,10.3431458 10.3431458,9 12,9 Z M12,11 C11.4477153,11 11,11.4477153 11,12 C11,12.5522847 11.4477153,13 12,13 C12.5522847,13 13,12.5522847 13,12 C13,11.4477153 12.5522847,11 12,11 Z"/>
</svg>
