<svg xmlns="http://www.w3.org/2000/svg" width="24" height="24" viewBox="0 0 24 24">
  <path d="M19.6949595,4.28095113 C24.1016802,8.5400392 24.1016802,15.4599608 19.6949595,19.7190489 C19.2978398,20.1028644 18.6647667,20.0920792 18.2809511,19.6949595 C17.8971356,19.2978398 17.9079208,18.6647667 18.3050405,18.2809511 C21.8983198,14.8080527 21.8983198,9.1919473 18.3050405,5.71904887 C17.9079208,5.33523332 17.8971356,4.70216021 18.2809511,4.30504048 C18.6647667,3.90792076 19.2978398,3.89713559 19.6949595,4.28095113 Z M5.71904887,4.30504048 C6.10286441,4.70216021 6.09207924,5.33523332 5.69495952,5.71904887 C2.10168016,9.1919473 2.10168016,14.8080527 5.69495952,18.2809511 C6.09207924,18.6647667 6.10286441,19.2978398 5.71904887,19.6949595 C5.33523332,20.0920792 4.70216021,20.1028644 4.30504048,19.7190489 C-0.101680161,15.4599608 -0.101680161,8.5400392 4.30504048,4.28095113 C4.70216021,3.89713559 5.33523332,3.90792076 5.71904887,4.30504048 Z M12,5 C15.8659932,5 19,8.13400675 19,12 C19,15.8659932 15.8659932,19 12,19 C8.13400675,19 5,15.8659932 5,12 C5,8.13400675 8.13400675,5 12,5 Z M12,7 C9.23857625,7 7,9.23857625 7,12 C7,14.7614237 9.23857625,17 12,17 C14.7614237,17 17,14.7614237 17,12 C17,9.23857625 14.7614237,7 12,7 Z M12,9 C13.6568542,9 15,10.3431458 15,12 C15,13.6568542 13.6568542,15 12,15 C10.3431458,15 9,13.6568542 9,12 C9,10.3431458 10.3431458,9 12,9 Z M12,11 C11.4477153,11 11,11.4477153 11,12 C11,12.5522847 11.4477153,13 12,13 C12.5522847,13 13,12.5522847 13,12 C13,11.4477153 12.5522847,11 12,11 Z"/>
</svg>
