<svg xmlns="http://www.w3.org/2000/svg" width="24" height="24" viewBox="0 0 24 24">
  <path d="M10.5857864,4 C11.366835,3.21895142 12.633165,3.21895142 13.4142136,4 C13.7892863,4.37507276 14,4.88378058 14,5.41421356 L14,5.41421356 L14,18.5857864 C14,19.6903559 13.1045695,20.5857864 12,20.5857864 C11.469567,20.5857864 10.9608592,20.3750728 10.5857864,20 L10.5857864,20 L7.585,17 L4,17 C2.9456382,17 2.08183488,16.1841222 2.00548574,15.1492623 L2.00548574,15.1492623 L2,15 L2,9 C2,7.8954305 2.8954305,7 4,7 L4,7 L7.584,7 Z M12,5.41421356 L8.70710678,8.70710678 C8.5195704,8.89464316 8.26521649,9 8,9 L8,9 L4,9 L4,15 L8,15 C8.26521649,15 8.5195704,15.1053568 8.70710678,15.2928932 L8.70710678,15.2928932 L12,18.5857864 L12,5.41421356 Z M17.6128994,9.20970461 L17.7071068,9.29289322 L19,10.5852136 L20.2928932,9.29289322 C20.6834175,8.90236893 21.3165825,8.90236893 21.7071068,9.29289322 C22.0675907,9.65337718 22.0953203,10.2206082 21.7902954,10.6128994 L21.7071068,10.7071068 L20.414,11.9992136 L21.7071068,13.2928932 C22.0976311,13.6834175 22.0976311,14.3165825 21.7071068,14.7071068 C21.3466228,15.0675907 20.7793918,15.0953203 20.3871006,14.7902954 L20.2928932,14.7071068 L19,13.4142136 L17.7071068,14.7071068 C17.3165825,15.0976311 16.6834175,15.0976311 16.2928932,14.7071068 C15.9324093,14.3466228 15.9046797,13.7793918 16.2097046,13.3871006 L16.2928932,13.2928932 L17.585,11.9992136 L16.2928932,10.7071068 C15.9023689,10.3165825 15.9023689,9.68341751 16.2928932,9.29289322 C16.6533772,8.93240926 17.2206082,8.90467972 17.6128994,9.20970461 Z"/>
</svg>
