<svg xmlns="http://www.w3.org/2000/svg" width="24" height="24" viewBox="0 0 24 24">
  <path d="M10.5857864,4 C11.366835,3.21895142 12.633165,3.21895142 13.4142136,4 C13.7892863,4.37507276 14,4.88378058 14,5.41421356 L14,5.41421356 L14,18.5857864 C14,19.6903559 13.1045695,20.5857864 12,20.5857864 C11.469567,20.5857864 10.9608592,20.3750728 10.5857864,20 L10.5857864,20 L7.585,17 L4,17 C2.9456382,17 2.08183488,16.1841222 2.00548574,15.1492623 L2.00548574,15.1492623 L2,15 L2,9 C2,7.8954305 2.8954305,7 4,7 L4,7 L7.584,7 Z M21,5 C21.5128358,5 21.9355072,5.38604019 21.9932723,5.88337887 L22,6 L22,18 C22,18.5522847 21.5522847,19 21,19 C20.4871642,19 20.0644928,18.6139598 20.0067277,18.1166211 L20,18 L20,6 C20,5.44771525 20.4477153,5 21,5 Z M12,5.41421356 L8.70710678,8.70710678 C8.5195704,8.89464316 8.26521649,9 8,9 L8,9 L4,9 L4,15 L8,15 C8.26521649,15 8.5195704,15.1053568 8.70710678,15.2928932 L8.70710678,15.2928932 L12,18.5857864 L12,5.41421356 Z M17,8 C17.5128358,8 17.9355072,8.38604019 17.9932723,8.88337887 L18,9 L18,15 C18,15.5522847 17.5522847,16 17,16 C16.4871642,16 16.0644928,15.6139598 16.0067277,15.1166211 L16,15 L16,9 C16,8.44771525 16.4477153,8 17,8 Z"/>
</svg>
