<svg xmlns="http://www.w3.org/2000/svg" width="24" height="24" viewBox="0 0 24 24">
  <path d="M14.5857864,4 L11.584,7 L8,7 C6.8954305,7 6,7.8954305 6,9 L6,15 L6.00548574,15.1492623 C6.08183488,16.1841222 6.9456382,17 8,17 L11.585,17 L14.5857864,20 C14.9608592,20.3750728 15.469567,20.5857864 16,20.5857864 C17.1045695,20.5857864 18,19.6903559 18,18.5857864 L18,5.41421356 C18,4.88378058 17.7892863,4.37507276 17.4142136,4 C16.633165,3.21895142 15.366835,3.21895142 14.5857864,4 Z M12.7071068,8.70710678 L16,5.41421356 L16,18.5857864 L12.7071068,15.2928932 C12.5195704,15.1053568 12.2652165,15 12,15 L8,15 L8,9 L12,9 C12.2652165,9 12.5195704,8.89464316 12.7071068,8.70710678 Z"/>
</svg>
