<svg xmlns="http://www.w3.org/2000/svg" width="24" height="24" viewBox="0 0 24 24">
  <path d="M12.5857864,4 C13.366835,3.21895142 14.633165,3.21895142 15.4142136,4 C15.7892863,4.37507276 16,4.88378058 16,5.41421356 L16,5.41421356 L16,18.5857864 C16,19.6903559 15.1045695,20.5857864 14,20.5857864 C13.469567,20.5857864 12.9608592,20.3750728 12.5857864,20 L12.5857864,20 L9.585,17 L6,17 C4.9456382,17 4.08183488,16.1841222 4.00548574,15.1492623 L4.00548574,15.1492623 L4,15 L4,9 C4,7.8954305 4.8954305,7 6,7 L6,7 L9.584,7 Z M14,5.41421356 L10.7071068,8.70710678 C10.5195704,8.89464316 10.2652165,9 10,9 L10,9 L6,9 L6,15 L10,15 C10.2652165,15 10.5195704,15.1053568 10.7071068,15.2928932 L10.7071068,15.2928932 L14,18.5857864 L14,5.41421356 Z M19,8 C19.5128358,8 19.9355072,8.38604019 19.9932723,8.88337887 L20,9 L20,15 C20,15.5522847 19.5522847,16 19,16 C18.4871642,16 18.0644928,15.6139598 18.0067277,15.1166211 L18,15 L18,9 C18,8.44771525 18.4477153,8 19,8 Z"/>
</svg>
