<svg xmlns="http://www.w3.org/2000/svg" width="24" height="24" viewBox="0 0 24 24">
  <path d="M4,3 C4.51283584,3 4.93550716,3.38604019 4.99327227,3.88337887 L5,4 L5,19 L20,19 C20.5128358,19 20.9355072,19.3860402 20.9932723,19.8833789 L21,20 C21,20.5128358 20.6139598,20.9355072 20.1166211,20.9932723 L20,21 L4,21 C3.48716416,21 3.06449284,20.6139598 3.00672773,20.1166211 L3,20 L3,4 C3,3.44771525 3.44771525,3 4,3 Z M13,7 C14.5976809,7 15.9036609,8.24891996 15.9949073,9.82372721 L16,10 L16,11 C16,11.5128358 16.3860402,11.9355072 16.8833789,11.9932723 L17,12 L18,12 C18.5522847,12 19,12.4477153 19,13 C19,13.5128358 18.6139598,13.9355072 18.1166211,13.9932723 L18,14 L17,14 C15.4023191,14 14.0963391,12.75108 14.0050927,11.1762728 L14,11 L14,10 C14,9.44771525 13.5522847,9 13,9 C12.4871642,9 12.0644928,9.38604019 12.0067277,9.88337887 L12,10 L12,14 C12,15.5976809 10.75108,16.9036609 9.17627279,16.9949073 L9,17 L8,17 C7.44771525,17 7,16.5522847 7,16 C7,15.4871642 7.38604019,15.0644928 7.88337887,15.0067277 L8,15 L9,15 C9.51283584,15 9.93550716,14.6139598 9.99327227,14.1166211 L10,14 L10,10 C10,8.34314575 11.3431458,7 13,7 Z"/>
</svg>
