<svg xmlns="http://www.w3.org/2000/svg" width="24" height="24" viewBox="0 0 24 24">
  <path d="M4,3 C4.51283584,3 4.93550716,3.38604019 4.99327227,3.88337887 L5,4 L5,19 L20,19 C20.5128358,19 20.9355072,19.3860402 20.9932723,19.8833789 L21,20 C21,20.5128358 20.6139598,20.9355072 20.1166211,20.9932723 L20,21 L4,21 C3.48716416,21 3.06449284,20.6139598 3.00672773,20.1166211 L3,20 L3,4 C3,3.44771525 3.44771525,3 4,3 Z M9,7 C9.51283584,7 9.93550716,7.38604019 9.99327227,7.88337887 L10,8 L10,16 C10,16.5522847 9.55228475,17 9,17 C8.48716416,17 8.06449284,16.6139598 8.00672773,16.1166211 L8,16 L8,8 C8,7.44771525 8.44771525,7 9,7 Z M13,11 C13.5128358,11 13.9355072,11.3860402 13.9932723,11.8833789 L14,12 L14,16 C14,16.5522847 13.5522847,17 13,17 C12.4871642,17 12.0644928,16.6139598 12.0067277,16.1166211 L12,16 L12,12 C12,11.4477153 12.4477153,11 13,11 Z M17,5 C17.5128358,5 17.9355072,5.38604019 17.9932723,5.88337887 L18,6 L18,16 C18,16.5522847 17.5522847,17 17,17 C16.4871642,17 16.0644928,16.6139598 16.0067277,16.1166211 L16,16 L16,6 C16,5.44771525 16.4477153,5 17,5 Z"/>
</svg>
