<svg xmlns="http://www.w3.org/2000/svg" width="24" height="24" viewBox="0 0 24 24">
  <path d="M4,3 C4.51283584,3 4.93550716,3.38604019 4.99327227,3.88337887 L5,4 L4.999,19 L20,19 C20.5128358,19 20.9355072,19.3860402 20.9932723,19.8833789 L21,20 C21,20.5128358 20.6139598,20.9355072 20.1166211,20.9932723 L20,21 L4,21 C3.48716416,21 3.06449284,20.6139598 3.00672773,20.1166211 L3,20 L3,4 C3,3.44771525 3.44771525,3 4,3 Z M20.7071068,7.29289322 C21.0675907,7.65337718 21.0953203,8.22060824 20.7902954,8.61289944 L20.7071068,8.70710678 L14.7071068,14.7071068 C14.3466228,15.0675907 13.7793918,15.0953203 13.3871006,14.7902954 L13.2928932,14.7071068 L10,11.415 L8.70710678,12.7071068 C8.34662282,13.0675907 7.77939176,13.0953203 7.38710056,12.7902954 L7.29289322,12.7071068 C6.93240926,12.3466228 6.90467972,11.7793918 7.20970461,11.3871006 L7.29289322,11.2928932 L9.29289322,9.29289322 C9.65337718,8.93240926 10.2206082,8.90467972 10.6128994,9.20970461 L10.7071068,9.29289322 L14,12.585 L19.2928932,7.29289322 C19.6834175,6.90236893 20.3165825,6.90236893 20.7071068,7.29289322 Z"/>
</svg>
