<svg xmlns="http://www.w3.org/2000/svg" width="24" height="24" viewBox="0 0 24 24">
  <path d="M12,4 C14.124779,4 16.0775836,4.7363102 17.6171757,5.96769257 L18.7928932,4.79289322 C19.1834175,4.40236893 19.8165825,4.40236893 20.2071068,4.79289322 C20.5675907,5.15337718 20.5953203,5.72060824 20.2902954,6.11289944 L20.2071068,6.20710678 L19.0323074,7.38282434 C20.2636898,8.92241642 21,10.875221 21,13 C21,17.9705627 16.9705627,22 12,22 C7.02943725,22 3,17.9705627 3,13 C3,8.02943725 7.02943725,4 12,4 Z M12,6 C8.13400675,6 5,9.13400675 5,13 C5,16.8659932 8.13400675,20 12,20 C15.8659932,20 19,16.8659932 19,13 C19,9.13400675 15.8659932,6 12,6 Z M12,8 C12.5128358,8 12.9355072,8.38604019 12.9932723,8.88337887 L13,9 L13,13 C13,13.5522847 12.5522847,14 12,14 C11.4871642,14 11.0644928,13.6139598 11.0067277,13.1166211 L11,13 L11,9 C11,8.44771525 11.4477153,8 12,8 Z M16,1 C16.5522847,1 17,1.44771525 17,2 C17,2.51283584 16.6139598,2.93550716 16.1166211,2.99327227 L16,3 L8,3 C7.44771525,3 7,2.55228475 7,2 C7,1.48716416 7.38604019,1.06449284 7.88337887,1.00672773 L8,1 L16,1 Z"/>
</svg>
