<svg xmlns="http://www.w3.org/2000/svg" width="24" height="24" viewBox="0 0 24 24">
  <path d="M14.5881905,2.34074174 C15.1216566,2.48368355 15.438239,3.03202051 15.2952972,3.56548661 C15.1523554,4.09895271 14.6040185,4.4155352 14.0705524,4.27259339 C9.80282353,3.1290589 5.41612788,5.66171881 4.27259339,9.92944764 C3.1290589,14.1971765 5.66171881,18.5838721 9.92944764,19.7274066 C14.1971765,20.8709411 18.5838721,18.3382812 19.7274066,14.0705524 C19.8703484,13.5370863 20.4186854,13.2205038 20.9521515,13.3634456 C21.4856176,13.5063874 21.8022001,14.0547243 21.6592583,14.5881905 C20.2298401,19.9228515 14.7464706,23.0886764 9.41180955,21.6592583 C4.07714852,20.2298401 0.911323621,14.7464706 2.34074174,9.41180955 C3.77015985,4.07714852 9.25352942,0.911323621 14.5881905,2.34074174 Z M19.7071068,6.29289322 C20.0675907,6.65337718 20.0953203,7.22060824 19.7902954,7.61289944 L19.7071068,7.70710678 L11.7071068,15.7071068 C11.3466228,16.0675907 10.7793918,16.0953203 10.3871006,15.7902954 L10.2928932,15.7071068 L6.29289322,11.7071068 C5.90236893,11.3165825 5.90236893,10.6834175 6.29289322,10.2928932 C6.65337718,9.93240926 7.22060824,9.90467972 7.61289944,10.2097046 L7.70710678,10.2928932 L11,13.585 L18.2928932,6.29289322 C18.6834175,5.90236893 19.3165825,5.90236893 19.7071068,6.29289322 Z"/>
</svg>
