<svg xmlns="http://www.w3.org/2000/svg" width="24" height="24" viewBox="0 0 24 24">
  <path d="M12,2 C17.5228475,2 22,6.4771525 22,12 C22,17.5228475 17.5228475,22 12,22 C6.4771525,22 2,17.5228475 2,12 C2,6.4771525 6.4771525,2 12,2 Z M15.4756657,16.8913664 C14.4950071,17.5894515 13.2954479,18 12,18 C10.7045521,18 9.50499293,17.5894515 8.52433431,16.8913664 L7.09547725,18.3207287 C8.44997896,19.3732643 10.1517985,20 12,20 C13.8482015,20 15.550021,19.3732643 16.9045228,18.3207287 Z M5.67927125,7.09547725 C4.62673571,8.44997896 4,10.1517985 4,12 C4,13.8482015 4.62673571,15.550021 5.67927125,16.9045228 L7.1086336,15.4756657 C6.41054847,14.4950071 6,13.2954479 6,12 C6,10.7045521 6.41054847,9.50499293 7.1086336,8.52433431 Z M18.3207287,7.09547725 L16.8913664,8.52433431 C17.5894515,9.50499293 18,10.7045521 18,12 C18,13.2954479 17.5894515,14.4950071 16.8913664,15.4756657 L18.3207287,16.9045228 C19.3732643,15.550021 20,13.8482015 20,12 C20,10.1517985 19.3732643,8.44997896 18.3207287,7.09547725 Z M12,8 C9.790861,8 8,9.790861 8,12 C8,14.209139 9.790861,16 12,16 C14.209139,16 16,14.209139 16,12 C16,9.790861 14.209139,8 12,8 Z M12,4 C10.1517985,4 8.44997896,4.62673571 7.09547725,5.67927125 L8.52433431,7.1086336 C9.50499293,6.41054847 10.7045521,6 12,6 C13.2954479,6 14.4950071,6.41054847 15.4756657,7.1086336 L16.9045228,5.67927125 C15.550021,4.62673571 13.8482015,4 12,4 Z"/>
</svg>
