<svg xmlns="http://www.w3.org/2000/svg" width="24" height="24" viewBox="0 0 24 24">
  <path d="M12,1 C12.5128358,1 12.9355072,1.38604019 12.9932723,1.88337887 L13,2 L13.0006955,3.05500569 C17.1720858,3.51645693 20.4841085,6.82877572 20.9451047,11.0003032 L22,11 C22.5522847,11 23,11.4477153 23,12 C23,12.5128358 22.6139598,12.9355072 22.1166211,12.9932723 L22,13 L20.9449943,13.0006955 C20.4835799,17.1717529 17.1717529,20.4835799 13.0006955,20.9449943 L13,22 C13,22.5522847 12.5522847,23 12,23 C11.4871642,23 11.0644928,22.6139598 11.0067277,22.1166211 L11,22 L11.0003032,20.9451047 C6.82877572,20.4841085 3.51645693,17.1720858 3.05500569,13.0006955 L2,13 C1.44771525,13 1,12.5522847 1,12 C1,11.4871642 1.38604019,11.0644928 1.88337887,11.0067277 L2,11 L3.05489527,11.0003032 C3.51592828,6.82844282 6.82844282,3.51592828 11.0003032,3.05489527 L11,2 C11,1.44771525 11.4477153,1 12,1 Z M12,5 C8.13400675,5 5,8.13400675 5,12 C5,15.8659932 8.13400675,19 12,19 C15.8659932,19 19,15.8659932 19,12 C19,8.13400675 15.8659932,5 12,5 Z M12,8 C14.209139,8 16,9.790861 16,12 C16,14.209139 14.209139,16 12,16 C9.790861,16 8,14.209139 8,12 C8,9.790861 9.790861,8 12,8 Z M12,10 C10.8954305,10 10,10.8954305 10,12 C10,13.1045695 10.8954305,14 12,14 C13.1045695,14 14,13.1045695 14,12 C14,10.8954305 13.1045695,10 12,10 Z"/>
</svg>
