<svg xmlns="http://www.w3.org/2000/svg" width="24" height="24" viewBox="0 0 24 24">
  <path d="M20,4 C21.1045695,4 22,4.8954305 22,6 L22,6 L22,18 C22,19.1045695 21.1045695,20 20,20 L20,20 L4,20 C2.8954305,20 2,19.1045695 2,18 L2,18 L2,6 C2,4.8954305 2.8954305,4 4,4 L4,4 Z M20,6 L4,6 L4,18 L20,18 L20,6 Z M17,14 C17.5522847,14 18,14.4477153 18,15 C18,15.5128358 17.6139598,15.9355072 17.1166211,15.9932723 L17,16 L13,16 C12.4477153,16 12,15.5522847 12,15 C12,14.4871642 12.3860402,14.0644928 12.8833789,14.0067277 L13,14 L17,14 Z M7.61289944,8.20970461 L7.70710678,8.29289322 L10.7071068,11.2928932 C11.0675907,11.6533772 11.0953203,12.2206082 10.7902954,12.6128994 L10.7071068,12.7071068 L7.70710678,15.7071068 C7.31658249,16.0976311 6.68341751,16.0976311 6.29289322,15.7071068 C5.93240926,15.3466228 5.90467972,14.7793918 6.20970461,14.3871006 L6.29289322,14.2928932 L8.585,12 L6.29289322,9.70710678 C5.93240926,9.34662282 5.90467972,8.77939176 6.20970461,8.38710056 L6.29289322,8.29289322 C6.65337718,7.93240926 7.22060824,7.90467972 7.61289944,8.20970461 Z"/>
</svg>
