<svg xmlns="http://www.w3.org/2000/svg" width="24" height="24" viewBox="0 0 24 24">
  <path d="M9,20 C8.44771525,20 8,19.5522847 8,19 C8,18.4871642 8.38604019,18.0644928 8.88337887,18.0067277 L9,18 L11,18 L11,6 L6,6 L6,8 C6,8.51283584 5.61395981,8.93550716 5.11662113,8.99327227 L5,9 C4.48716416,9 4.06449284,8.61395981 4.00672773,8.11662113 L4,8 L4,5 C4,4.48716416 4.38604019,4.06449284 4.88337887,4.00672773 L5,4 L19,4 C19.5128358,4 19.9355072,4.38604019 19.9932723,4.88337887 L20,5 L20,8 C20,8.55228475 19.5522847,9 19,9 C18.4871642,9 18.0644928,8.61395981 18.0067277,8.11662113 L18,8 L18,6 L13,6 L13,18 L15,18 C15.5522847,18 16,18.4477153 16,19 C16,19.5128358 15.6139598,19.9355072 15.1166211,19.9932723 L15,20 L9,20 Z"/>
</svg>
