<svg xmlns="http://www.w3.org/2000/svg" width="24" height="24" viewBox="0 0 24 24">
  <path d="M5,3 C5.51283584,3 5.93550716,3.38604019 5.99327227,3.88337887 L6,4 L5.99985462,5.29159636 C9.53359043,2.12533802 14.9680743,2.24015223 18.363961,5.63603897 C21.8786797,9.15075759 21.8786797,14.8492424 18.363961,18.363961 C14.8492424,21.8786797 9.15075759,21.8786797 5.63603897,18.363961 C5.24551468,17.9734367 5.24551468,17.3402718 5.63603897,16.9497475 C6.02656326,16.5592232 6.65972824,16.5592232 7.05025253,16.9497475 C9.78392257,19.6834175 14.2160774,19.6834175 16.9497475,16.9497475 C19.6834175,14.2160774 19.6834175,9.78392257 16.9497475,7.05025253 C14.2782063,4.37871135 9.98450684,4.31799451 7.2392312,6.868102 L7.101,7 L9,7 C9.51283584,7 9.93550716,7.38604019 9.99327227,7.88337887 L10,8 C10,8.51283584 9.61395981,8.93550716 9.11662113,8.99327227 L9,9 L5,9 L4.9547192,8.99903884 C4.9390441,8.99834084 4.92337493,8.99727477 4.90772551,8.99583917 L5,9 C4.94414314,9 4.8893559,8.99542039 4.83599328,8.98661615 C4.82218761,8.98435705 4.80813527,8.98172835 4.79412666,8.97879382 C4.77331417,8.97443339 4.75259823,8.96939479 4.73214578,8.96372259 C4.71266063,8.95831614 4.69336852,8.95232784 4.67422026,8.94573351 C4.65912946,8.94054111 4.64394582,8.93489508 4.62894148,8.92889604 C4.6083807,8.92068123 4.58781664,8.9116504 4.56749034,8.90188162 C4.45994439,8.85015515 4.36341368,8.78009764 4.28163444,8.69566697 L4.37026865,8.77681299 C4.33052468,8.74459414 4.29389741,8.7099557 4.26042696,8.67328139 C4.24230396,8.65319334 4.22484263,8.63239773 4.20823677,8.61090743 C4.19844267,8.59851231 4.1894411,8.58627932 4.18074753,8.57388185 C4.16737107,8.55453877 4.15429792,8.53443591 4.14194447,8.51385181 C4.13318941,8.49947641 4.12475455,8.48453082 4.11672774,8.46941059 C4.10745364,8.45186284 4.09869405,8.4341665 4.0904521,8.41618349 C4.08266759,8.3990893 4.07531813,8.38170497 4.06847575,8.36415392 C4.06032097,8.34355492 4.05300275,8.32284656 4.04635953,8.30183819 C4.042317,8.28851893 4.0383015,8.2747902 4.03458328,8.260991 C4.02772279,8.23620486 4.02201204,8.2112391 4.01725429,8.18593708 C4.01499643,8.17310152 4.01284599,8.1603526 4.01094219,8.14756898 C4.00932824,8.13756203 4.00794674,8.12711636 4.00672773,8.11662113 L4.00254308,8.07131888 C4.00139659,8.05532989 4.00063204,8.03931118 4.00025098,8.02327758 L4,8 L4,4 C4,3.44771525 4.44771525,3 5,3 Z"/>
</svg>
