<svg xmlns="http://www.w3.org/2000/svg" width="24" height="24" viewBox="0 0 24 24">
  <path d="M12,3 C14.7614237,3 17,5.23857625 17,8 C17,8.55228475 16.5522847,9 16,9 C15.4871642,9 15.0644928,8.61395981 15.0067277,8.11662113 L15,8 C15,6.34314575 13.6568542,5 12,5 C10.4023191,5 9.09633912,6.24891996 9.00509269,7.82372721 L9,8 L9,11 L18,11 C19.0543618,11 19.9181651,11.8158778 19.9945143,12.8507377 L20,13 L20,19 C20,20.1045695 19.1045695,21 18,21 L18,21 L6,21 C4.8954305,21 4,20.1045695 4,19 L4,19 L4,13 C4,11.8954305 4.8954305,11 6,11 L6,11 L7,11 L7,8 C7,5.23857625 9.23857625,3 12,3 Z M18,13 L6,13 L6,19 L18,19 L18,13 Z M14,15 C14.5522847,15 15,15.4477153 15,16 C15,16.5128358 14.6139598,16.9355072 14.1166211,16.9932723 L14,17 L10,17 C9.44771525,17 9,16.5522847 9,16 C9,15.4871642 9.38604019,15.0644928 9.88337887,15.0067277 L10,15 L14,15 Z"/>
</svg>
