<svg xmlns="http://www.w3.org/2000/svg" width="24" height="24" viewBox="0 0 24 24">
  <path d="M19.9985434,11 C20.5508276,10.9991966 20.9991945,11.4462592 21.0000086,11.9985434 C21.0034549,14.3711569 20.0789244,16.6489977 18.363961,18.363961 C14.9680743,21.7598478 9.53359043,21.874662 5.99985462,18.7084036 L6,20 C6,20.5128358 5.61395981,20.9355072 5.11662113,20.9932723 L5,21 C4.48716416,21 4.06449284,20.6139598 4.00672773,20.1166211 L4,20 L4,16 L3.9998981,15.9894294 C4.00019884,15.963309 4.00152311,15.9372521 4.00385442,15.9113197 L4,16 C4,15.9542672 4.00306995,15.9092514 4.00901502,15.8651475 C4.01163858,15.8464762 4.01473149,15.827806 4.01834659,15.8092447 C4.02182745,15.7903367 4.02597932,15.7717585 4.03063993,15.7533832 C4.03533828,15.7358672 4.0403746,15.7181122 4.04589646,15.7005055 C4.05100245,15.683364 4.0567013,15.6667717 4.06281773,15.650383 C4.06943239,15.6333148 4.07634812,15.6161931 4.08373711,15.599262 C4.09191392,15.580149 4.10061233,15.5618622 4.10983895,15.5438913 C4.11707208,15.5299211 4.12491472,15.5154439 4.13312158,15.5011514 C4.14276858,15.4844287 4.15270319,15.4682961 4.1630743,15.4524754 C4.17395288,15.4356289 4.18552446,15.419027 4.19762419,15.4027545 C4.2075923,15.3897081 4.21771309,15.3768064 4.2281384,15.3641653 C4.24200099,15.3469568 4.25652159,15.3304701 4.27163578,15.3144247 C4.28277884,15.3029594 4.29437672,15.291222 4.3062571,15.2797757 C4.3165464,15.2695375 4.32786362,15.2591279 4.33945799,15.2489526 C4.3569624,15.2337927 4.37473662,15.2192022 4.39300682,15.2052275 C4.40164486,15.1985711 4.41055587,15.1920109 4.41960207,15.1855802 C4.44316021,15.1687618 4.46724314,15.1530883 4.49201203,15.1384525 C4.49479906,15.1369902 4.49792527,15.1351682 4.50106498,15.1333606 L4.51572305,15.1248758 C4.54044376,15.1111666 4.56580653,15.0984744 4.59175486,15.0868558 L4.50106498,15.1333606 C4.54228226,15.1096313 4.58448404,15.0891663 4.62737106,15.071885 C4.64576917,15.0643303 4.66491099,15.0573007 4.68431692,15.0508495 C4.70581501,15.0437596 4.72716514,15.0374354 4.74861237,15.0318532 C4.76284742,15.028172 4.77751331,15.0247218 4.79229971,15.0215984 C4.81273786,15.0171917 4.83310613,15.0135324 4.85351034,15.0105174 C4.86311194,15.0092393 4.8732222,15.0079074 4.88337887,15.0067277 L4.91077945,15.0037466 C4.93310062,15.001762 4.9554322,15.0005364 4.97773629,15.0000598 L5,15 L9,15 C9.55228475,15 10,15.4477153 10,16 C10,16.5128358 9.61395981,16.9355072 9.11662113,16.9932723 L9,17 L7.10298181,17 L7.2392312,17.131898 C9.98450684,19.6820055 14.2782063,19.6212886 16.9497475,16.9497475 C18.2856149,15.6138801 19.0026895,13.8471651 19.0000011,12.0014566 C18.9991966,11.4491724 19.4462592,11.0008055 19.9985434,11 Z M19,3 C19.5128358,3 19.9355072,3.38604019 19.9932723,3.88337887 L20,4 L20,8 L19.9998697,8.02348856 C19.9993864,8.04325933 19.9983173,8.06298792 19.9966696,8.08264773 L20,8 C20,8.04573281 19.99693,8.09074859 19.990985,8.13485251 C19.9883614,8.15352377 19.9852685,8.17219398 19.9816534,8.19075531 C19.9781726,8.20966331 19.9740207,8.22824148 19.9693601,8.24661677 C19.9646617,8.26413283 19.9596254,8.28188776 19.9541035,8.29949447 C19.9489975,8.31663602 19.9432987,8.33322826 19.9371823,8.34961696 C19.9305676,8.36668515 19.9236519,8.38380695 19.9162629,8.40073798 C19.9080861,8.41985102 19.8993877,8.43813775 19.8901611,8.45610866 C19.8839819,8.46801354 19.8772897,8.48046984 19.8703284,8.49279145 C19.85961,8.51169412 19.8485416,8.52980494 19.8369257,8.54752455 C19.8262765,8.56401979 19.8149563,8.58028284 19.8031295,8.59623049 C19.7929154,8.60964433 19.7825485,8.62287638 19.7718616,8.6358347 C19.7611764,8.6491864 19.7500771,8.6619808 19.7386231,8.6745171 C19.7240922,8.69003584 19.7091553,8.70537508 19.6937429,8.72022425 C19.6834536,8.73046254 19.6721364,8.74087208 19.660542,8.75104744 C19.6430376,8.76620733 19.6252634,8.78079777 19.6069932,8.79477249 C19.5983551,8.80142886 19.5894441,8.80798912 19.5803979,8.81441977 C19.5568398,8.83123818 19.5327569,8.84691169 19.507988,8.86154751 C19.5052009,8.8630098 19.5020747,8.86483183 19.498935,8.8666394 L19.484277,8.87512423 C19.4595562,8.88883344 19.4341935,8.90152559 19.4082451,8.9131442 L19.498935,8.8666394 C19.4577177,8.8903687 19.415516,8.91083372 19.3726289,8.92811504 C19.3542308,8.93566969 19.335089,8.94269935 19.3156831,8.94915049 C19.294185,8.95624043 19.2728349,8.96256456 19.2513876,8.9681468 C19.2371526,8.97182801 19.2224867,8.97527815 19.2077003,8.97840158 C19.1872621,8.9828083 19.1668939,8.98646755 19.1464897,8.98948258 C19.1368881,8.99076072 19.1267778,8.99209259 19.1166211,8.99327227 L19.0851983,8.99660281 C19.0708603,8.99781903 19.056519,8.99872231 19.0421844,8.99931538 L19,9 L15,9 C14.4477153,9 14,8.55228475 14,8 C14,7.48716416 14.3860402,7.06449284 14.8833789,7.00672773 L15,7 L16.8969818,7 L16.7607688,6.868102 C14.0154932,4.31799451 9.72179371,4.37871135 7.05025253,7.05025253 C5.71438514,8.38611992 4.99731047,10.1528349 4.99999141,11.9985434 C5.0008034,12.5508276 4.55374077,12.9991945 4.0014566,13 C3.44917244,13.0008034 3.00080552,12.5537408 2.99999141,12.0014566 C2.9965451,9.6288431 3.9210756,7.35100233 5.63603897,5.63603897 C9.03224775,2.23983019 14.4674403,2.12531628 18.0011507,5.29249723 L18,4 C18,3.48716416 18.3860402,3.06449284 18.8833789,3.00672773 L19,3 Z"/>
</svg>
