<svg xmlns="http://www.w3.org/2000/svg" width="24" height="24" viewBox="0 0 24 24">
  <path d="M19,15 C19.5128358,15 19.9355072,15.3860402 19.9932723,15.8833789 L20,16 L20,19 C20,20.0543618 19.1841222,20.9181651 18.1492623,20.9945143 L18,21 L6,21 C4.9456382,21 4.08183488,20.1841222 4.00548574,19.1492623 L4,19 L4,16 C4,15.4477153 4.44771525,15 5,15 C5.51283584,15 5.93550716,15.3860402 5.99327227,15.8833789 L6,16 L6,19 L18,19 L18,16 C18,15.4477153 18.4477153,15 19,15 Z M12,3 L12.0193545,3.00018615 C12.042681,3.00063489 12.0659949,3.00189498 12.0892501,3.00396641 L12,3 C12.0506203,3 12.1003621,3.00376119 12.1489612,3.01101934 C12.165949,3.01362808 12.1833753,3.01670217 12.2007258,3.02024007 C12.2227461,3.0246398 12.2444365,3.02983363 12.2658396,3.03572097 C12.2814633,3.04009773 12.2968513,3.04472872 12.3121425,3.04973809 C12.3317977,3.05612249 12.3515792,3.06331574 12.3710585,3.07110396 C12.3887956,3.07819642 12.4060985,3.08567905 12.4232215,3.09367336 C12.4438914,3.10337664 12.4642939,3.11379392 12.484277,3.12487577 C12.4963944,3.13149883 12.5086131,3.13860692 12.5207088,3.14599545 C12.546275,3.1617187 12.5711307,3.17849009 12.5951593,3.19631351 C12.6012086,3.20071786 12.6070733,3.20517454 12.6128994,3.20970461 C12.6196628,3.21507113 12.6225624,3.2173721 12.625449,3.21968877 L12.7071068,3.29289322 L17.7071068,8.29289322 C18.0976311,8.68341751 18.0976311,9.31658249 17.7071068,9.70710678 C17.3466228,10.0675907 16.7793918,10.0953203 16.3871006,9.79029539 L16.2928932,9.70710678 L13,6.415 L13,15 C13,15.5522847 12.5522847,16 12,16 C11.4871642,16 11.0644928,15.6139598 11.0067277,15.1166211 L11,15 L11,6.415 L7.70710678,9.70710678 C7.34662282,10.0675907 6.77939176,10.0953203 6.38710056,9.79029539 L6.29289322,9.70710678 C5.93240926,9.34662282 5.90467972,8.77939176 6.20970461,8.38710056 L6.29289322,8.29289322 L11.2928932,3.29289322 L11.374551,3.21968877 C11.3774376,3.2173721 11.3803372,3.21507113 11.3832499,3.21278596 L11.2928932,3.29289322 C11.3282873,3.25749917 11.3656744,3.22531295 11.4046934,3.19633458 C11.4288693,3.17849009 11.453725,3.1617187 11.4793398,3.14606743 C11.4913869,3.13860692 11.5036056,3.13149883 11.5159379,3.12467117 C11.5357061,3.11379392 11.5561086,3.10337664 11.5769009,3.09365378 C11.5939015,3.08567905 11.6112044,3.07819642 11.628664,3.07122549 C11.6484208,3.06331574 11.6682023,3.05612249 11.6882636,3.04954668 C11.7031487,3.04472872 11.7185367,3.04009773 11.734007,3.03584514 C11.7555635,3.02983363 11.7772539,3.0246398 11.7992059,3.02016515 C11.8166247,3.01670217 11.834051,3.01362808 11.8515331,3.0110178 C11.8705042,3.00811223 11.890153,3.00576612 11.909968,3.00399798 C11.9343349,3.0018656 11.9579802,3.00059932 11.9816379,3.00016755 C11.9872016,3.00006024 11.9935938,3 12,3 Z"/>
</svg>
