<svg xmlns="http://www.w3.org/2000/svg" width="24" height="24" viewBox="0 0 24 24">
  <path d="M16,14 C18.6686219,14 20.8633628,16.0955264 20.9948042,18.7758464 L20.9948042,18.7758464 L21,19 L21,19.5 C21,20.3284271 20.3284271,21 19.5,21 L19.5,21 L4.5,21 C3.67157288,21 3,20.3284271 3,19.5 L3,19.5 L3,19 C3,16.2385763 5.23857625,14 8,14 L8,14 Z M16,16 L8,16 C6.34314575,16 5,17.3431458 5,19 L5,19 L18.999,19 L18.9963105,18.8494528 C18.9209635,17.3165285 17.6968193,16.0936119 16.1766673,16.0051283 L16.1766673,16.0051283 L16,16 Z M12,2 C14.7614237,2 17,4.23857625 17,7 C17,9.76142375 14.7614237,12 12,12 C9.23857625,12 7,9.76142375 7,7 C7,4.23857625 9.23857625,2 12,2 Z M12,4 C10.3431458,4 9,5.34314575 9,7 C9,8.65685425 10.3431458,10 12,10 C13.6568542,10 15,8.65685425 15,7 C15,5.34314575 13.6568542,4 12,4 Z"/>
</svg>
