<svg xmlns="http://www.w3.org/2000/svg" width="24" height="24" viewBox="0 0 24 24">
  <path d="M12,4 C16.0715972,4 19.6905703,6.53328118 22.842427,11.4611894 C23.0525243,11.7896754 23.0525243,12.2103246 22.842427,12.5388106 C19.6905703,17.4667188 16.0715972,20 12,20 C7.92840284,20 4.30942972,17.4667188 1.15757304,12.5388106 C0.947475652,12.2103246 0.947475652,11.7896754 1.15757304,11.4611894 C4.30942972,6.53328118 7.92840284,4 12,4 Z M12,6 C8.89070046,6 5.99949421,7.90292717 3.31417253,11.8255867 L3.31417253,11.8255867 L3.196,12 L3.31417253,12.1744133 C5.92051416,15.9817005 8.72080761,17.8863159 11.7262157,17.9950586 L11.7262157,17.9950586 L12,18 C15.1092995,18 18.0005058,16.0970728 20.6858275,12.1744133 L20.6858275,12.1744133 L20.803,12 L20.6858275,11.8255867 C18.0794858,8.01829951 15.2791924,6.11368407 12.2737843,6.00494136 L12.2737843,6.00494136 Z M12,8 C14.209139,8 16,9.790861 16,12 C16,14.209139 14.209139,16 12,16 C9.790861,16 8,14.209139 8,12 C8,9.790861 9.790861,8 12,8 Z M12,10 C10.8954305,10 10,10.8954305 10,12 C10,13.1045695 10.8954305,14 12,14 C13.1045695,14 14,13.1045695 14,12 C14,10.8954305 13.1045695,10 12,10 Z"/>
</svg>
