<svg xmlns="http://www.w3.org/2000/svg" width="24" height="24" viewBox="0 0 24 24">
  <path d="M20.7071068,3.29289322 C21.0675907,3.65337718 21.0953203,4.22060824 20.7902954,4.61289944 L20.7071068,4.70710678 L18.7671051,6.64712459 C20.2021211,7.84971378 21.5608864,9.45750884 22.842427,11.4611894 C23.0525243,11.7896754 23.0525243,12.2103246 22.842427,12.5388106 C19.6905703,17.4667188 16.0715972,20 12,20 C10.2050586,20 8.49808184,19.5076722 6.8803115,18.5348958 L4.70710678,20.7071068 C4.31658249,21.0976311 3.68341751,21.0976311 3.29289322,20.7071068 C2.93240926,20.3466228 2.90467972,19.7793918 3.20970461,19.3871006 L3.29289322,19.2928932 L5.23289488,17.3528754 C3.7978789,16.1502862 2.43911356,14.5424912 1.15757304,12.5388106 C0.947475652,12.2103246 0.947475652,11.7896754 1.15757304,11.4611894 C4.30942972,6.53328118 7.92840284,4 12,4 C13.7949414,4 15.5019182,4.49232781 17.1196885,5.46510416 L19.2928932,3.29289322 C19.6834175,2.90236893 20.3165825,2.90236893 20.7071068,3.29289322 Z M17.3463881,8.06619108 L8.34913695,17.0666876 C9.44491644,17.6458063 10.5703977,17.9532384 11.7262157,17.9950586 L11.7262157,17.9950586 L12,18 C15.1092995,18 18.0005058,16.0970728 20.6858275,12.1744133 L20.6858275,12.1744133 L20.803,12 L20.6858275,11.8255867 C19.6062237,10.248525 18.4933417,8.99792323 17.3463881,8.06619108 Z M12,6 C8.89070046,6 5.99949421,7.90292717 3.31417253,11.8255867 L3.31417253,11.8255867 L3.196,12 L3.31417253,12.1744133 C4.39377631,13.751475 5.50665831,15.0020768 6.65361188,15.9338089 L15.650863,6.93331243 C14.5550836,6.35419369 13.4296023,6.04676157 12.2737843,6.00494136 L12.2737843,6.00494136 Z"/>
</svg>
