<svg xmlns="http://www.w3.org/2000/svg" width="24" height="24" viewBox="0 0 24 24">
  <path d="M10.7070987,3.22562396 C11.1271279,2.51157427 12.0464805,2.2732236 12.7605302,2.69325282 C12.9803607,2.82256488 13.1635893,3.00579346 13.2929013,3.22562396 L13.2929013,3.22562396 L22.418693,18.7394698 C22.8387222,19.4535195 22.6003716,20.3728721 21.8863219,20.7929013 C21.6558069,20.9284984 21.3932308,21 21.1257917,21 L21.1257917,21 L2.87420832,21 C2.0457812,21 1.37420832,20.3284271 1.37420832,19.5 C1.37420832,19.2325608 1.44570996,18.9699848 1.581307,18.7394698 L1.581307,18.7394698 Z M12,4.971 L3.748,19 L20.251,19 L12,4.971 Z M12,15 C12.5522847,15 13,15.4477153 13,16 C13,16.5522847 12.5522847,17 12,17 C11.4477153,17 11,16.5522847 11,16 C11,15.4477153 11.4477153,15 12,15 Z M12,9 C12.5128358,9 12.9355072,9.38604019 12.9932723,9.88337887 L13,10 L13,13 C13,13.5522847 12.5522847,14 12,14 C11.4871642,14 11.0644928,13.6139598 11.0067277,13.1166211 L11,13 L11,10 C11,9.44771525 11.4477153,9 12,9 Z"/>
</svg>
