<svg xmlns="http://www.w3.org/2000/svg" width="24" height="24" viewBox="0 0 24 24">
  <path d="M15.7053558,4.00677034 C14.2503519,4.07422597 13.0687632,4.64202321 12.1678932,5.54289322 L12,5.719 L11.8321068,5.54289322 C10.8711788,4.58196521 9.59085531,4 8,4 C4.84346467,4 3,6.39650407 3,9 C3,11.9694485 4.64575967,14.6438079 7.34149539,17.0025767 C8.25994003,17.8062158 9.2398841,18.5166752 10.2200011,19.1292483 L10.7667103,19.4610518 C11.1000811,19.6570071 11.3682007,19.8021343 11.5527864,19.8944272 C11.8343139,20.0351909 12.1656861,20.0351909 12.4472136,19.8944272 L12.7844573,19.7166129 C13.0480062,19.5719873 13.3859476,19.3755304 13.7799989,19.1292483 C14.7601159,18.5166752 15.74006,17.8062158 16.6585046,17.0025767 C19.3542403,14.6438079 21,11.9694485 21,9 C21,6.39650407 19.1565353,4 16,4 L15.7053558,4.00677034 Z M16,6 C17.9203877,6 19,7.40349593 19,9 C19,11.2805515 17.6457597,13.4811921 15.3414954,15.4974233 C14.50994,16.2250342 13.6148841,16.8739498 12.7200011,17.4332517 L12.2693805,17.707015 L11.999,17.862 L11.7306195,17.707015 C11.5868614,17.6222571 11.4363243,17.5309551 11.2799989,17.4332517 C10.3851159,16.8739498 9.49005997,16.2250342 8.65850461,15.4974233 C6.35424033,13.4811921 5,11.2805515 5,9 C5,7.40349593 6.07961225,6 8,6 C9.03414469,6 9.81632123,6.35553479 10.4178932,6.95710678 C10.7337624,7.27297595 10.9370604,7.5854835 11.0356556,7.79044046 L11.0715233,7.87139068 C11.3908169,8.66962474 12.4821545,8.70763588 12.8749761,7.98542411 L12.9284767,7.87139068 C13.0071519,7.67470276 13.2211134,7.31810012 13.5821068,6.95710678 C14.1836788,6.35553479 14.9658553,6 16,6 Z"/>
</svg>
